<svg width="167" height="101" viewBox="0 0 167 101" fill="none" xmlns="http://www.w3.org/2000/svg">
<path d="M117.137 78.0882L116 81.9314V87.4216V90.1667L117.137 92.9118L119.98 95.6569L122.824 97.8529L126.804 99.5H131.922L136.471 98.402L139.882 95.6569L142.157 94.0098L143.863 90.7157L145 88.5196V84.1275L143.863 80.2843L142.157 76.9902L139.882 74.7941L136.471 72.598L133.059 71.5H127.941L123.961 72.598L120.549 74.7941L117.137 78.0882Z" fill="white" stroke="white"/>
<path d="M39.1373 78.3235L38 82.3039V87.9902V90.8333L39.1373 93.6765L41.9804 96.5196L44.8235 98.7941L48.8039 100.5H53.9216L58.4706 99.3627L61.8824 96.5196L64.1569 94.8137L65.8627 91.402L67 89.1274V84.5784L65.8627 80.598L64.1569 77.1863L61.8824 74.9118L58.4706 72.6373L55.0588 71.5H49.9412L45.9608 72.6373L42.549 74.9118L39.1373 78.3235Z" fill="white" stroke="#FFFAFA"/>
<path d="M46 82.8913V85.1522V87.9783L47.1429 89.6739L48.8571 91.9348L51.7143 92.5L55.1429 91.3696L56.8571 89.6739L58 87.413V84.0217L56.8571 82.3261L55.7143 80.6304L54 79.5H50L47.7143 81.1957L46 82.8913Z" fill="#2086FE" stroke="white"/>
<path d="M51.1579 44.5H2.27368L0 48.0294V51.5588L3.41053 54.5H51.1579L54 51.5588V46.2647L51.1579 44.5Z" fill="white"/>
<g style="mix-blend-mode:lighten">
<path d="M19 4.42903V17.3387H67.77L68.5253 19.0226L72.5564 22.3903L73.1323 24.0742V25.7581L72.5564 30.2484L71.4047 32.4935L68.5253 34.7387L65.6459 35.3H20.1518L19 36.4226V40.3516L20.7276 42.0355H54.7043L58.1595 45.4032L58.7354 47.0871L58.1595 51.5774L57.5837 54.9452L55.856 57.1903L52.4008 58.3129H46.642H19V80.7645L20.1518 83.571L23.0311 86.3774L25.9105 87.5L33.9728 86.9387V83.571V80.7645L35.1245 77.3968L37.428 75.1516L39.7315 72.3452L43.1868 70.1L46.0661 68.4161L48.9455 67.8548H55.856L58.1595 68.4161L61.6148 70.1L65.6459 72.9064L68.5253 75.1516L70.2529 79.0806L71.4047 81.8871V84.6936V86.9387L71.9805 87.5H111.14V84.6936L112.292 80.7645L113.444 77.3968L115.171 74.029L117.475 72.3452L120.354 70.1L123.809 68.4161L126.689 67.8548H133.023L137.054 68.4161L139.358 70.1L143.389 72.9064L146.268 75.1516L147.42 77.3968L149.724 80.7645V87.5H150.875H159.514L162.969 86.3774L165.848 84.6936L167 81.8871V63.3645V58.3129V55.5065V53.8226L164.696 51.5774L162.393 49.8935L159.514 49.3323L156.634 48.771L154.331 48.2097L152.027 47.0871L150.875 45.4032L149.724 44.8419L148.572 42.5968L147.42 40.3516L146.268 38.1065L145.117 35.3L143.389 32.4935L142.237 30.2484L139.358 26.3194L137.054 24.0742L134.751 22.3903H133.023L130.72 21.829H118.626V20.7065L118.051 5.55161L115.171 1.62258L112.292 0.5L28.214 1.06129H23.0311L20.7276 2.74516L19 4.42903Z" fill="#FFFCFC"/>
</g>
<path d="M118 47.5V28.5H128.636L131 29.5857L133.955 31.2143L136.318 33.3857L138.091 36.1L144 46.9571L143.409 47.5H118Z" fill="#2086FE"/>
<path d="M65.8421 21.5H11.5263L9 25.0294V28.5588L12.7895 31.5H65.8421L69 28.5588V23.2647L65.8421 21.5Z" fill="white"/>
<path d="M125 82.8913V85.1522V87.9783L126.143 89.6739L127.857 91.9348L130.714 92.5L134.143 91.3696L135.857 89.6739L137 87.413V84.0217L135.857 82.3261L134.714 80.6304L133 79.5H129L126.714 81.1957L125 82.8913Z" fill="#2086FE" stroke="white"/>
</svg>
