<svg width="64" height="58" viewBox="0 0 64 58" fill="none" xmlns="http://www.w3.org/2000/svg">
<path d="M25.5654 15.6667H23.1494C23.0097 15.6667 22.8757 15.7215 22.7761 15.8194L21.5619 17.0123C21.266 17.303 21.0099 17.6316 20.8004 17.9897L20.3899 18.691L20.1045 19.3386C19.9082 19.7841 19.7664 20.2517 19.6822 20.7312C19.6215 21.0765 19.5911 21.4263 19.5911 21.7769V22.0295C19.5911 22.4915 19.6268 22.9527 19.6981 23.4091L19.8089 24.1193L19.8413 24.2837C20.0123 25.1508 20.32 25.9853 20.753 26.7559L21.5518 28.4619L22.5684 30.3231L23.0674 31.1756C23.4597 31.8459 23.9256 32.4703 24.4565 33.0372L25.3279 34.0453L26.3446 35.2085L27.5065 36.2166L28.3779 36.9921L29.9755 38.1553L31.5731 39.3185C32.4903 39.8856 33.4651 40.3539 34.481 40.7155L35.1314 40.947C36.3867 41.3595 37.6815 41.6405 38.9948 41.7856L39.1254 41.8H40.0412C40.687 41.8 41.3304 41.7219 41.9575 41.5674C42.4372 41.4137 42.8828 41.1693 43.2703 40.8475L43.3372 40.7919L43.7233 40.5382C44.0934 40.295 44.427 40.0004 44.7141 39.6632C44.9092 39.4339 45.0817 39.1864 45.2292 38.9239L45.4175 38.5887C45.5794 38.3006 45.7107 37.9963 45.8092 37.6807C45.9517 37.2243 46.0241 36.7489 46.0241 36.2707V35.984C46.0241 35.2703 45.6234 34.617 44.9873 34.2935L40.1481 31.8328C40.0009 31.7579 39.8381 31.7189 39.673 31.7189C39.3299 31.7189 39.0086 31.8868 38.8127 32.1685L37.2373 34.4331L36.755 35.0417C36.5551 35.294 36.2508 35.4412 35.9289 35.4412C35.7396 35.4412 35.5538 35.3902 35.391 35.2936L35.1771 35.1667C35.0502 35.0914 34.9152 35.0307 34.7748 34.9857L34.6451 34.9442C34.3902 34.8625 34.1512 34.7378 33.9384 34.5755C33.8142 34.4808 33.6808 34.3987 33.5403 34.3305L33.3747 34.2501C33.0943 34.114 32.8301 33.947 32.5868 33.7521L32.3719 33.58L31.7909 33.1923L30.9195 32.5719L29.9755 31.7189L29.9101 31.6652C29.327 31.1863 28.8116 30.6304 28.3779 30.0129L27.7969 29.1599L26.9255 27.8416L26.8296 27.7221C26.6097 27.4481 26.4898 27.1072 26.4898 26.7559C26.4898 26.504 26.5703 26.2587 26.7196 26.0559L28.8223 23.1981C28.8647 23.1404 28.8989 23.0772 28.9241 23.0102C28.9931 22.8259 28.9896 22.6224 28.9144 22.4406L26.3358 16.2088C26.2936 16.1067 26.2333 16.0131 26.1578 15.9325L26.1437 15.9174C26.0843 15.8541 26.015 15.8009 25.9385 15.7601C25.8237 15.6988 25.6955 15.6667 25.5654 15.6667Z" fill="white"/>
<path d="M4.83354 37.8477L6.90418 41.5169C7.01054 41.7054 7.10295 41.9014 7.18066 42.1034C7.56555 43.1038 7.57461 44.2099 7.20615 45.2164L4.23678 53.3285C3.99027 54.0019 4.57655 54.6853 5.27962 54.544L12.3056 52.8285C15.6978 52.0002 19.257 52.1682 22.5562 53.3122C23.5269 53.6489 24.5245 53.9024 25.5382 54.0702L27.9161 54.4639C29.5355 54.7319 31.1741 54.8666 32.8155 54.8666H35.0777L39.36 54.302L40.9822 53.8652C42.6922 53.4047 44.3539 52.7807 45.9443 52.0018L46.1813 51.8858C47.2825 51.3465 48.341 50.7241 49.3477 50.0241C50.656 49.1142 51.871 48.0771 52.9749 46.9278L54.259 45.5909L56.5787 42.8485L58.363 40.0255L58.4933 39.7505C59.4728 37.6842 60.1788 35.499 60.5934 33.2502L60.9024 31.2015C61.053 30.2027 61.1287 29.1941 61.1287 28.184C61.1287 27.0466 61.0327 25.9112 60.8419 24.79L60.5934 23.3292L60.2974 22.0296C60.0787 21.0693 59.7842 20.1277 59.4167 19.2139C59.0715 18.3559 58.663 17.5247 58.1945 16.7273L57.3816 15.344L56.0434 13.6502L54.259 11.4724C52.7768 10.0252 51.1363 8.74951 49.3685 7.6696L48.7277 7.27816L45.4267 5.50368L43.4891 4.65027C42.4626 4.19816 41.4041 3.8227 40.3221 3.52697C38.8518 3.12508 37.3447 2.87222 35.8237 2.77222L33.2041 2.59998H30.9137C29.4101 2.59998 27.9093 2.72947 26.428 2.98702C24.8228 3.26611 23.2471 3.69438 21.7215 4.26627L20.3571 4.77775L16.7884 6.6329L15.3773 7.5353C13.8824 8.49121 12.4754 9.57785 11.1726 10.7824L10.9254 11.011C9.7803 12.0698 8.71947 13.2163 7.75261 14.4401L6.52864 15.9893L5.63923 17.4705C5.10318 18.3633 4.64817 19.3022 4.27964 20.2761L4.19068 20.5112C3.84688 21.4198 3.59288 22.3598 3.43232 23.3179C3.29612 24.1306 3.22766 24.9532 3.22766 25.7773V27.0395V29.7012V31.7177L3.2455 31.8467C3.52994 33.904 4.06319 35.919 4.83354 37.8477Z" stroke="white" stroke-width="5"/>
</svg>
