<svg width="200" height="200" viewBox="0 0 236 209" fill="none" xmlns="http://www.w3.org/2000/svg">
<g filter="url(#filter0_i_17_239)">
<ellipse cx="118.26" cy="104.12" rx="117.448" ry="104.12" fill="#2086FE"/>
<path d="M68.716 60.5051H47.3592V58.8844V53.4822H79.1206L84.0491 81.5739H145.381V83.1945V85.8957L146.477 90.2175L147.572 94.5393L149.762 99.4013L153.596 104.263L157.429 109.125L162.357 112.367L171.119 115.608V117.769L166.738 133.976H92.8108L97.7393 149.102H162.357V157.746H86.2395L68.716 60.5051Z" fill="#FFFEFE"/>
<g style="mix-blend-mode:lighten">
<ellipse cx="180.976" cy="82.6545" rx="25.7377" ry="25.3906" fill="#FFFDFD"/>
</g>
<path d="M195.762 71.3097H190.833L178.786 85.8958H178.238L168.381 77.7924L164.548 81.574L176.595 93.4589H180.976L195.214 76.1717L195.762 75.0913V71.3097Z" fill="#2086FE"/>
</g>
<defs>
<filter id="filter0_i_17_239" x="0.812256" y="0" width="234.896" height="212.24" filterUnits="userSpaceOnUse" color-interpolation-filters="sRGB">
<feFlood flood-opacity="0" result="BackgroundImageFix"/>
<feBlend mode="normal" in="SourceGraphic" in2="BackgroundImageFix" result="shape"/>
<feColorMatrix in="SourceAlpha" type="matrix" values="0 0 0 0 0 0 0 0 0 0 0 0 0 0 0 0 0 0 127 0" result="hardAlpha"/>
<feOffset dy="4"/>
<feGaussianBlur stdDeviation="2"/>
<feComposite in2="hardAlpha" operator="arithmetic" k2="-1" k3="1"/>
<feColorMatrix type="matrix" values="0 0 0 0 0 0 0 0 0 0 0 0 0 0 0 0 0 0 0.25 0"/>
<feBlend mode="normal" in2="shape" result="effect1_innerShadow_17_239"/>
</filter>
</defs>
</svg>
