<svg width="25" height="24" viewBox="0 0 25 24" fill="none" xmlns="http://www.w3.org/2000/svg">
<path d="M6.20097 1H4.09615C3.97445 1 3.85741 1.04675 3.7692 1.1306L2.72409 2.12397C2.46049 2.37452 2.23154 2.65916 2.0433 2.97033L1.69506 3.54599L1.44502 4.09493C1.27537 4.46739 1.15259 4.85947 1.07951 5.26218C1.02661 5.55367 1 5.84932 1 6.14557V6.35643C1 6.74529 1.03111 7.13352 1.09304 7.51742L1.18956 8.11573L1.21621 8.2465C1.36594 8.98132 1.63438 9.68682 2.01099 10.3353L2.70604 11.7715L3.59066 13.3383L4.02118 14.0499C4.36494 14.6182 4.77162 15.1459 5.23352 15.6231L5.99176 16.4718L6.87637 17.451L7.88736 18.2997L8.6456 18.9525L10.0357 19.9318L11.4258 20.911C12.224 21.3884 13.0696 21.7817 13.9491 22.0846L14.522 22.2819C15.6144 22.6292 16.7391 22.8655 17.8789 22.9874L17.9973 23H18.7957C19.3567 23 19.9158 22.9343 20.4615 22.8042C20.879 22.6748 21.2684 22.4677 21.6091 22.1939L21.6621 22.1513L22.0055 21.933C22.3226 21.7314 22.6095 21.4859 22.8577 21.2038C23.0291 21.0091 23.181 20.798 23.3113 20.5737L23.4744 20.2928C23.6138 20.0528 23.727 19.7985 23.8123 19.5344C23.9367 19.1489 24 18.7462 24 18.3411V18.1039C24 17.5044 23.6593 16.957 23.1214 16.6924L18.887 14.6091C18.7589 14.5461 18.6181 14.5134 18.4753 14.5134C18.1752 14.5134 17.8934 14.6578 17.7182 14.9015L16.3544 16.7982L15.9411 17.3028C15.7628 17.5206 15.4961 17.6469 15.2146 17.6469C15.0506 17.6469 14.8894 17.6039 14.7472 17.5223L14.5625 17.4162C14.4516 17.3526 14.334 17.3014 14.2118 17.2635L14.0954 17.2274C13.8758 17.1594 13.6693 17.0549 13.4844 16.9185C13.376 16.8385 13.26 16.7694 13.1381 16.7121L12.9936 16.6443C12.7495 16.5296 12.5188 16.3885 12.3057 16.2233L12.1209 16.0801L11.6154 15.7537L10.8571 15.2315L10.0357 14.5134L9.97213 14.4628C9.46923 14.0632 9.02298 13.597 8.6456 13.0772L8.14011 12.359L7.38187 11.2493L7.29453 11.144C7.10596 10.9167 7.00275 10.6306 7.00275 10.3353C7.00275 10.1236 7.07215 9.91764 7.20033 9.74909L9.03333 7.33883C9.06954 7.29122 9.09887 7.23876 9.12047 7.18298C9.18061 7.02762 9.17761 6.85491 9.11211 6.70174L6.86995 1.45914C6.83243 1.37139 6.77916 1.29126 6.71279 1.22268L6.70331 1.21289C6.65054 1.15837 6.58925 1.1128 6.52183 1.07798C6.42264 1.02674 6.31262 1 6.20097 1Z" stroke="white" stroke-width="2"/>
</svg>
