<svg width="200" height="200" viewBox="0 0 235 209" fill="none" xmlns="http://www.w3.org/2000/svg">
<g filter="url(#filter0_i_17_228)">
<path d="M235 104.385C235 161.889 182.417 208.505 117.552 208.505C52.687 208.505 0.103638 161.889 0.103638 104.385C0.103638 46.8809 52.687 0.264893 117.552 0.264893C182.417 0.264893 235 46.8809 235 104.385Z" fill="#2086FE"/>
<path d="M149.826 129.871L148.673 133.679V139.118V141.838L149.826 144.558L152.707 147.278L155.589 149.453L159.623 151.085H164.81L169.42 149.997L172.878 147.278L175.184 145.646L176.912 142.382L178.065 140.206V135.854L176.912 132.047L175.184 128.783L172.878 126.607L169.42 124.431L165.963 123.344H160.776L156.741 124.431L153.284 126.607L149.826 129.871Z" fill="white" stroke="white"/>
<path d="M71.8239 131.5L70.6713 134.868V139.749V142.578L71.8239 145.406L74.7055 148.235L77.587 150.498L81.6212 152.195H86.808L91.4186 151.063L94.8764 148.235L97.1817 146.538L98.9106 143.143L100.063 140.881V136.355L98.9106 132.395L97.1817 129.001L94.8764 126.738L91.4186 124.475L87.9607 123.344H82.7739L78.7397 124.475L75.2818 126.738L71.8239 131.5Z" fill="white"/>
<path d="M70.6713 134.868L71.8239 131.5L75.2818 126.738L78.7397 124.475L82.7739 123.344H87.9607L91.4186 124.475L94.8764 126.738L97.1817 129.001L98.9106 132.395L100.063 136.355V140.881L98.9106 143.143L97.1817 146.538L94.8764 148.235L91.4186 151.063L86.808 152.195H81.6212L77.587 150.498L74.7055 148.235L71.8239 145.406L70.6713 142.578V139.749V134.092" stroke="#FFFAFA"/>
<path d="M78.5845 134.585V136.901V139.796L79.7688 141.532L81.5453 143.848L84.506 144.427L88.0589 143.269L89.8353 141.532L91.0196 139.217V135.743L89.8353 134.006L88.651 132.269L86.8746 131.111H82.7296L80.361 132.848L78.5845 134.585Z" fill="#2086FE" stroke="white"/>
<path d="M83.6419 96.7114H34.5203L32.2356 100.236V103.761L35.6627 106.698H83.6419L86.4978 103.761V98.4738L83.6419 96.7114Z" fill="white"/>
<g style="mix-blend-mode:lighten">
<path d="M51.4534 56.2337V69.0772H100.253L101.009 70.7525L105.043 74.1029L105.619 75.7782V77.4534L105.043 81.9207L103.89 84.1544L101.009 86.388L98.1278 86.9465H52.6059L51.4534 88.0633V91.9722L53.1821 93.6474H87.1795L90.6369 96.9979L91.2131 98.6731L90.6369 103.14L90.0607 106.491L88.332 108.725L84.8746 109.841H79.1123H51.4534V132.178L52.6059 134.97L55.487 137.762L58.3682 138.879L66.4353 138.32V134.97V132.178L67.5878 128.827L69.8927 126.594L72.1976 123.802L75.655 121.568L78.5361 119.893L81.4173 119.334H88.332L90.6369 119.893L94.0943 121.568L98.1278 124.36L101.009 126.594L102.738 130.503L103.89 133.295V136.087V138.32L104.466 138.879H143.65V136.087L144.802 132.178L145.955 128.827L147.683 125.477L149.988 123.802L152.869 121.568L156.327 119.893L159.208 119.334H165.546L169.58 119.893L171.885 121.568L175.919 124.36L178.8 126.594L179.952 128.827L182.257 132.178V138.879H183.41H192.053L195.51 137.762L198.391 136.087L199.544 133.295V114.867V109.841V107.049V105.374L197.239 103.14L194.934 101.465L192.053 100.907L189.172 100.348L186.867 99.79L184.562 98.6731L183.41 96.9979L182.257 96.4395L181.105 94.2058L179.952 91.9722L178.8 89.7385L177.647 86.9465L175.919 84.1544L174.766 81.9207L171.885 78.0118L169.58 75.7782L167.275 74.1029H165.546L163.242 73.5445H151.141V72.4277L150.565 57.3505L147.683 53.4417L144.802 52.3248L60.6731 52.8832H55.487L53.1821 54.5585L51.4534 56.2337Z" fill="#FFFCFC"/>
<path d="M51.4534 56.2337V69.0772H100.253L101.009 70.7525L105.043 74.1029L105.619 75.7782V77.4534L105.043 81.9207L103.89 84.1544L101.009 86.388L98.1278 86.9465H52.6059L51.4534 88.0633V91.9722L53.1821 93.6474H87.1795L90.6369 96.9979L91.2131 98.6731L90.6369 103.14L90.0607 106.491L88.332 108.725L84.8746 109.841H79.1123H51.4534V132.178L52.6059 134.97L55.487 137.762L58.3682 138.879L66.4353 138.32V134.97V132.178L67.5878 128.827L69.8927 126.594L72.1976 123.802L75.655 121.568L78.5361 119.893L81.4173 119.334H88.332L90.6369 119.893L94.0943 121.568L98.1278 124.36L101.009 126.594L102.738 130.503L103.89 133.295V136.087V138.32L104.466 138.879H143.65V136.087L144.802 132.178L145.955 128.827L147.683 125.477L149.988 123.802L152.869 121.568L156.327 119.893L159.208 119.334H165.546L169.58 119.893L171.885 121.568L175.919 124.36L178.8 126.594L179.952 128.827L182.257 132.178V138.879H183.41H192.053L195.51 137.762L198.391 136.087L199.544 133.295V114.867V109.841V107.049V105.374L197.239 103.14L194.934 101.465L192.053 100.907L189.172 100.348L186.867 99.79L184.562 98.6731L183.41 96.9979L182.257 96.4395L181.105 94.2058L179.952 91.9722L178.8 89.7385L177.647 86.9465L175.919 84.1544L174.766 81.9207L171.885 78.0118L169.58 75.7782L167.275 74.1029H165.546L163.242 73.5445H151.141V72.4277L150.565 57.3505L147.683 53.4417L144.802 52.3248L60.6731 52.8832H55.487L53.1821 54.5585L51.4534 56.2337Z" stroke="black"/>
</g>
<path d="M150.934 98.9309V80.0665H161.571L163.934 81.1445L166.889 82.7614L169.253 84.9174L171.025 87.6123L176.935 98.3919L176.344 98.9309H150.934Z" fill="#2086FE"/>
<path d="M98.0404 73.4084H43.802L41.2793 76.9333V80.4581L45.0634 83.3955H98.0404L101.194 80.4581V75.1709L98.0404 73.4084Z" fill="white"/>
<path d="M157.717 134.585V136.901V139.796L158.901 141.532L160.678 143.848L163.638 144.427L167.191 143.269L168.968 141.532L170.152 139.217V135.743L168.968 134.006L167.783 132.269L166.007 131.111H161.862L159.493 132.848L157.717 134.585Z" fill="#2086FE" stroke="white"/>
</g>
<defs>
<filter id="filter0_i_17_228" x="0.103638" y="0.264893" width="234.896" height="212.24" filterUnits="userSpaceOnUse" color-interpolation-filters="sRGB">
<feFlood flood-opacity="0" result="BackgroundImageFix"/>
<feBlend mode="normal" in="SourceGraphic" in2="BackgroundImageFix" result="shape"/>
<feColorMatrix in="SourceAlpha" type="matrix" values="0 0 0 0 0 0 0 0 0 0 0 0 0 0 0 0 0 0 127 0" result="hardAlpha"/>
<feOffset dy="4"/>
<feGaussianBlur stdDeviation="2"/>
<feComposite in2="hardAlpha" operator="arithmetic" k2="-1" k3="1"/>
<feColorMatrix type="matrix" values="0 0 0 0 0 0 0 0 0 0 0 0 0 0 0 0 0 0 0.25 0"/>
<feBlend mode="normal" in2="shape" result="effect1_innerShadow_17_228"/>
</filter>
</defs>
</svg>
