<svg width="1437" height="303" viewBox="0 0 1437 303" fill="none" xmlns="http://www.w3.org/2000/svg">
<g filter="url(#filter0_i_17_227)">
<path d="M1437 105.385C1437 162.889 1384.42 209.505 1319.55 209.505C1254.69 209.505 1202.1 162.889 1202.1 105.385C1202.1 47.8809 1254.69 1.26489 1319.55 1.26489C1384.42 1.26489 1437 47.8809 1437 105.385Z" fill="#2086FE"/>
<path d="M1351.83 130.871L1350.67 134.679V140.118V142.838L1351.83 145.558L1354.71 148.278L1357.59 150.453L1361.62 152.085H1366.81L1371.42 150.997L1374.88 148.278L1377.18 146.646L1378.91 143.382L1380.07 141.206V136.854L1378.91 133.047L1377.18 129.783L1374.88 127.607L1371.42 125.431L1367.96 124.344H1362.78L1358.74 125.431L1355.28 127.607L1351.83 130.871Z" fill="white" stroke="white"/>
<path d="M1273.82 132.5L1272.67 135.868V140.749V143.578L1273.82 146.406L1276.71 149.235L1279.59 151.498L1283.62 153.195H1288.81L1293.42 152.063L1296.88 149.235L1299.18 147.538L1300.91 144.143L1302.06 141.881V137.355L1300.91 133.395L1299.18 130.001L1296.88 127.738L1293.42 125.475L1289.96 124.344H1284.77L1280.74 125.475L1277.28 127.738L1273.82 132.5Z" fill="white"/>
<path d="M1272.67 135.868L1273.82 132.5L1277.28 127.738L1280.74 125.475L1284.77 124.344H1289.96L1293.42 125.475L1296.88 127.738L1299.18 130.001L1300.91 133.395L1302.06 137.355V141.881L1300.91 144.143L1299.18 147.538L1296.88 149.235L1293.42 152.063L1288.81 153.195H1283.62L1279.59 151.498L1276.71 149.235L1273.82 146.406L1272.67 143.578V140.749V135.092" stroke="#FFFAFA"/>
<path d="M1280.58 135.585V137.901V140.796L1281.77 142.532L1283.55 144.848L1286.51 145.427L1290.06 144.269L1291.84 142.532L1293.02 140.217V136.743L1291.84 135.006L1290.65 133.269L1288.87 132.111H1284.73L1282.36 133.848L1280.58 135.585Z" fill="#2086FE" stroke="white"/>
<path d="M1285.64 97.7114H1236.52L1234.24 101.236V104.761L1237.66 107.698H1285.64L1288.5 104.761V99.4738L1285.64 97.7114Z" fill="white"/>
<g style="mix-blend-mode:lighten">
<path d="M1253.45 57.2337V70.0772H1302.25L1303.01 71.7525L1307.04 75.1029L1307.62 76.7782V78.4534L1307.04 82.9207L1305.89 85.1544L1303.01 87.388L1300.13 87.9465H1254.61L1253.45 89.0633V92.9722L1255.18 94.6474H1289.18L1292.64 97.9979L1293.21 99.6731L1292.64 104.14L1292.06 107.491L1290.33 109.725L1286.87 110.841H1281.11H1253.45V133.178L1254.61 135.97L1257.49 138.762L1260.37 139.879L1268.44 139.32V135.97V133.178L1269.59 129.827L1271.89 127.594L1274.2 124.802L1277.65 122.568L1280.54 120.893L1283.42 120.334H1290.33L1292.64 120.893L1296.09 122.568L1300.13 125.36L1303.01 127.594L1304.74 131.503L1305.89 134.295V137.087V139.32L1306.47 139.879H1345.65V137.087L1346.8 133.178L1347.95 129.827L1349.68 126.477L1351.99 124.802L1354.87 122.568L1358.33 120.893L1361.21 120.334H1367.55L1371.58 120.893L1373.88 122.568L1377.92 125.36L1380.8 127.594L1381.95 129.827L1384.26 133.178V139.879H1385.41H1394.05L1397.51 138.762L1400.39 137.087L1401.54 134.295V115.867V110.841V108.049V106.374L1399.24 104.14L1396.93 102.465L1394.05 101.907L1391.17 101.348L1388.87 100.79L1386.56 99.6731L1385.41 97.9979L1384.26 97.4395L1383.1 95.2058L1381.95 92.9722L1380.8 90.7385L1379.65 87.9465L1377.92 85.1544L1376.77 82.9207L1373.88 79.0118L1371.58 76.7782L1369.28 75.1029H1367.55L1365.24 74.5445H1353.14V73.4277L1352.56 58.3505L1349.68 54.4417L1346.8 53.3248L1262.67 53.8832H1257.49L1255.18 55.5585L1253.45 57.2337Z" fill="#FFFCFC"/>
<path d="M1253.45 57.2337V70.0772H1302.25L1303.01 71.7525L1307.04 75.1029L1307.62 76.7782V78.4534L1307.04 82.9207L1305.89 85.1544L1303.01 87.388L1300.13 87.9465H1254.61L1253.45 89.0633V92.9722L1255.18 94.6474H1289.18L1292.64 97.9979L1293.21 99.6731L1292.64 104.14L1292.06 107.491L1290.33 109.725L1286.87 110.841H1281.11H1253.45V133.178L1254.61 135.97L1257.49 138.762L1260.37 139.879L1268.44 139.32V135.97V133.178L1269.59 129.827L1271.89 127.594L1274.2 124.802L1277.65 122.568L1280.54 120.893L1283.42 120.334H1290.33L1292.64 120.893L1296.09 122.568L1300.13 125.36L1303.01 127.594L1304.74 131.503L1305.89 134.295V137.087V139.32L1306.47 139.879H1345.65V137.087L1346.8 133.178L1347.95 129.827L1349.68 126.477L1351.99 124.802L1354.87 122.568L1358.33 120.893L1361.21 120.334H1367.55L1371.58 120.893L1373.88 122.568L1377.92 125.36L1380.8 127.594L1381.95 129.827L1384.26 133.178V139.879H1385.41H1394.05L1397.51 138.762L1400.39 137.087L1401.54 134.295V115.867V110.841V108.049V106.374L1399.24 104.14L1396.93 102.465L1394.05 101.907L1391.17 101.348L1388.87 100.79L1386.56 99.6731L1385.41 97.9979L1384.26 97.4395L1383.1 95.2058L1381.95 92.9722L1380.8 90.7385L1379.65 87.9465L1377.92 85.1544L1376.77 82.9207L1373.88 79.0118L1371.58 76.7782L1369.28 75.1029H1367.55L1365.24 74.5445H1353.14V73.4277L1352.56 58.3505L1349.68 54.4417L1346.8 53.3248L1262.67 53.8832H1257.49L1255.18 55.5585L1253.45 57.2337Z" stroke="black"/>
</g>
<path d="M1352.93 99.9309V81.0665H1363.57L1365.93 82.1445L1368.89 83.7614L1371.25 85.9174L1373.03 88.6123L1378.93 99.3919L1378.34 99.9309H1352.93Z" fill="#2086FE"/>
<path d="M1300.04 74.4084H1245.8L1243.28 77.9333V81.4581L1247.06 84.3955H1300.04L1303.19 81.4581V76.1709L1300.04 74.4084Z" fill="white"/>
<path d="M1359.72 135.585V137.901V140.796L1360.9 142.532L1362.68 144.848L1365.64 145.427L1369.19 144.269L1370.97 142.532L1372.15 140.217V136.743L1370.97 135.006L1369.78 133.269L1368.01 132.111H1363.86L1361.49 133.848L1359.72 135.585Z" fill="#2086FE" stroke="white"/>
</g>
<g filter="url(#filter1_i_17_227)">
<ellipse cx="940.26" cy="104.12" rx="117.448" ry="104.12" fill="#2086FE"/>
<path d="M890.716 60.5051H869.359V58.8844V53.4822H901.121L906.049 81.5739H967.381V83.1945V85.8957L968.477 90.2175L969.572 94.5393L971.762 99.4013L975.596 104.263L979.429 109.125L984.357 112.367L993.119 115.608V117.769L988.738 133.976H914.811L919.739 149.102H984.357V157.746H908.24L890.716 60.5051Z" fill="#FFFEFE"/>
<g style="mix-blend-mode:lighten">
<ellipse cx="1002.98" cy="82.6545" rx="25.7377" ry="25.3906" fill="#FFFDFD"/>
</g>
<path d="M1017.76 71.3097H1012.83L1000.79 85.8958H1000.24L990.381 77.7924L986.548 81.574L998.595 93.4589H1002.98L1017.21 76.1717L1017.76 75.0913V71.3097Z" fill="#2086FE"/>
</g>
<g filter="url(#filter2_i_17_227)">
<ellipse cx="552.065" cy="108.572" rx="117.448" ry="104.12" fill="#2086FE"/>
<path d="M524.755 100.141C525.572 99.7972 528.677 97.1469 534.559 89.2995V87.7507L532.108 83.1042L530.882 80.5228L529.657 76.9089L527.206 72.2624L525.98 69.681L522.304 63.4857H512.5L506.373 66.0671L502.696 69.681L500.245 74.8438L499.02 80.5228V84.6531V90.3321L501.471 97.56L503.922 103.239L514.338 117.178L528.431 130.602L543.75 141.443L551.103 145.574L554.167 147.639L560.294 150.22L566.422 152.285L573.775 153.834L580.515 154.867H586.03L592.157 153.834L596.446 152.285L600.735 150.22L603.799 147.639L605.637 145.574L606.863 139.895V137.313L605.637 134.216L575 123.374L562.132 132.667L556.005 129.569L549.265 125.439L540.686 119.244L532.108 110.467L525.98 103.239L524.755 100.141Z" fill="white"/>
</g>
<path d="M319.608 75.0286V77.4334L320.098 79.3572L360.294 118.795L320.098 158.714L319.608 161.6L320.098 164.486L321.569 166.891L324.51 168.814H327.451L329.902 167.852L331.373 166.891L361.765 137.071L376.961 122.643L377.941 119.757L377.451 116.391L375.98 114.467L331.373 70.7L329.902 69.2572L327.451 68.2953H325.98L323.529 69.2572L321.569 70.7L320.098 72.6239L319.608 75.0286Z" fill="#43E11C" stroke="#43E11C"/>
<g filter="url(#filter3_d_17_227)">
<g filter="url(#filter4_i_17_227)">
<ellipse cx="148.902" cy="108.572" rx="117.448" ry="107.307" fill="#2086FE"/>
</g>
<path d="M192.114 76.1674L173.278 57.5746V76.1674H192.114Z" fill="white"/>
<path d="M162.401 83.6046V53.3248H103.474V162.757H196.546V85.7295H179.372H166.63L162.401 83.6046Z" fill="#FFFEFE"/>
<path d="M120.648 75.1048L120.094 72.9799C120.278 71.7404 120.537 69.5801 120.094 70.855V70.3238L120.648 69.2614L121.756 68.1989L123.418 67.1365H124.526H127.296H130.62H135.052H137.268H139.484H142.254H146.132L147.24 67.6677L149.456 69.7926L150.01 70.855V74.0424L148.902 75.6361L146.686 76.6985H123.418L120.648 75.1048Z" fill="#2086FE"/>
<path d="M176.602 95.8227L179.372 99.5413V100.604L178.264 102.197L177.71 103.791L174.386 104.854L127.296 104.322H121.756L119.54 103.791L118.432 102.197L117.878 100.604V99.5413L118.432 97.4164L119.54 95.8227L121.202 94.7603H171.616L176.602 95.8227Z" fill="#2086FE"/>
<path d="M121.756 115.478L119.54 117.072C119.258 117.207 118.698 117.691 118.252 118.665L117.878 120.79V121.321L118.432 122.915L119.54 123.978L121.202 125.04H174.386L176.602 123.978L178.264 122.915L179.372 120.79L178.264 118.665L177.71 117.072L175.494 115.478H121.756Z" fill="#2086FE"/>
<path d="M176.602 117.072L179.372 120.79V121.853L178.264 123.446L177.71 125.04L174.386 126.103L127.296 125.571H121.756L119.54 125.04L118.432 123.446L117.878 121.853V120.79L118.432 118.665L119.54 117.072L121.202 116.009H171.616L176.602 117.072Z" fill="#2086FE"/>
<path d="M121.756 136.727L119.54 138.321C119.258 138.456 118.698 138.94 118.252 139.914L117.878 142.039V142.57L118.432 144.164L119.54 145.227L121.202 146.289H174.386L176.602 145.227L178.264 144.164L179.372 142.039L178.264 139.914L177.71 138.321L175.494 136.727H121.756Z" fill="#2086FE"/>
</g>
<path d="M14.7118 243.472H18.9833V261.244C18.9833 263.201 18.6141 264.777 17.8759 265.972C17.1493 267.167 16.1649 268.04 14.9227 268.591C13.6923 269.142 12.3212 269.417 10.8094 269.417C9.23914 269.417 7.83875 269.142 6.60828 268.591C5.37781 268.04 4.41101 267.167 3.70789 265.972C3.00476 264.777 2.6532 263.201 2.6532 261.244V243.472H6.9071V261.244C6.9071 262.462 7.05945 263.406 7.36414 264.074C7.68054 264.742 8.12585 265.204 8.70007 265.462C9.28601 265.72 9.98914 265.849 10.8094 265.849C11.6298 265.849 12.327 265.72 12.9012 265.462C13.4872 265.204 13.9325 264.742 14.2372 264.074C14.5536 263.406 14.7118 262.462 14.7118 261.244V243.472ZM31.8505 259.574H26.454V256.005H31.8505C32.7294 256.005 33.4384 255.818 33.9774 255.443C34.5282 255.068 34.9266 254.552 35.1727 253.896C35.4305 253.24 35.5594 252.495 35.5594 251.663C35.5594 250.867 35.4305 250.117 35.1727 249.413C34.9266 248.71 34.5341 248.142 33.995 247.708C33.4559 247.275 32.7411 247.058 31.8505 247.058H27.6493V269.066H23.3954V243.472H31.8505C33.538 243.472 34.9794 243.824 36.1747 244.527C37.37 245.23 38.2841 246.197 38.9169 247.427C39.5497 248.646 39.8661 250.046 39.8661 251.628C39.8661 253.281 39.5497 254.699 38.9169 255.882C38.2841 257.066 37.37 257.98 36.1747 258.624C34.9794 259.257 33.538 259.574 31.8505 259.574ZM57.4266 265.497V269.066H46.7919V265.497H57.4266ZM47.9169 243.472V269.066H43.6454V243.472H47.9169ZM77.0438 254.177V258.536C77.0438 260.341 76.8329 261.923 76.411 263.283C76.0009 264.642 75.4032 265.779 74.618 266.693C73.8446 267.595 72.9071 268.275 71.8055 268.732C70.7157 269.189 69.4969 269.417 68.1493 269.417C66.8134 269.417 65.5946 269.189 64.493 268.732C63.4032 268.275 62.4598 267.595 61.663 266.693C60.8778 265.779 60.2684 264.642 59.8348 263.283C59.413 261.923 59.202 260.341 59.202 258.536V254.177C59.202 252.349 59.413 250.749 59.8348 249.378C60.2567 247.995 60.8602 246.841 61.6454 245.915C62.4423 244.99 63.3856 244.292 64.4755 243.824C65.577 243.355 66.7899 243.12 68.1141 243.12C69.4618 243.12 70.6805 243.355 71.7704 243.824C72.8719 244.292 73.8153 244.99 74.6005 245.915C75.3856 246.841 75.9891 247.995 76.411 249.378C76.8329 250.749 77.0438 252.349 77.0438 254.177ZM72.8075 258.536V254.142C72.8075 252.841 72.702 251.728 72.4911 250.802C72.2919 249.865 71.993 249.103 71.5946 248.517C71.1962 247.919 70.704 247.48 70.118 247.199C69.5438 246.906 68.8759 246.759 68.1141 246.759C67.3759 246.759 66.7137 246.906 66.1278 247.199C65.5536 247.48 65.0614 247.919 64.6512 248.517C64.2528 249.103 63.9481 249.865 63.7372 250.802C63.538 251.728 63.4384 252.841 63.4384 254.142V258.536C63.4384 259.814 63.5438 260.915 63.7548 261.841C63.9657 262.755 64.2704 263.505 64.6688 264.091C65.079 264.665 65.577 265.093 66.163 265.374C66.7489 265.656 67.411 265.796 68.1493 265.796C68.8993 265.796 69.5673 265.656 70.1532 265.374C70.7391 265.093 71.2255 264.665 71.6122 264.091C72.0106 263.505 72.3094 262.755 72.5087 261.841C72.7079 260.915 72.8075 259.814 72.8075 258.536ZM89.8055 246.988L83.618 269.066H79.1532L87.2743 243.472H90.0516L89.8055 246.988ZM94.745 269.066L88.5399 246.988L88.2411 243.472H91.0712L99.2274 269.066H94.745ZM94.8505 259.556V263.142H82.9325V259.556H94.8505ZM108.421 269.066H103.974L104.009 265.497H108.421C109.792 265.497 110.888 265.245 111.708 264.742C112.528 264.226 113.12 263.441 113.483 262.386C113.847 261.331 114.028 259.984 114.028 258.343V254.177C114.028 252.911 113.923 251.833 113.712 250.943C113.513 250.04 113.196 249.308 112.763 248.745C112.341 248.171 111.784 247.749 111.093 247.48C110.401 247.199 109.569 247.058 108.597 247.058H103.886V243.472H108.597C110.061 243.472 111.386 243.706 112.569 244.175C113.753 244.644 114.766 245.335 115.61 246.249C116.466 247.152 117.122 248.271 117.579 249.607C118.036 250.943 118.265 252.478 118.265 254.212V258.343C118.265 260.078 118.036 261.613 117.579 262.949C117.122 264.273 116.466 265.392 115.61 266.306C114.755 267.208 113.724 267.894 112.516 268.363C111.309 268.831 109.944 269.066 108.421 269.066ZM106.417 243.472V269.066H102.145V243.472H106.417ZM137.179 269.066H132.731L132.766 265.497H137.179C138.55 265.497 139.645 265.245 140.466 264.742C141.286 264.226 141.878 263.441 142.241 262.386C142.604 261.331 142.786 259.984 142.786 258.343V254.177C142.786 252.911 142.681 251.833 142.47 250.943C142.27 250.04 141.954 249.308 141.52 248.745C141.099 248.171 140.542 247.749 139.85 247.48C139.159 247.199 138.327 247.058 137.354 247.058H132.643V243.472H137.354C138.819 243.472 140.143 243.706 141.327 244.175C142.511 244.644 143.524 245.335 144.368 246.249C145.224 247.152 145.88 248.271 146.337 249.607C146.794 250.943 147.022 252.478 147.022 254.212V258.343C147.022 260.078 146.794 261.613 146.337 262.949C145.88 264.273 145.224 265.392 144.368 266.306C143.513 267.208 142.481 267.894 141.274 268.363C140.067 268.831 138.702 269.066 137.179 269.066ZM135.175 243.472V269.066H130.903V243.472H135.175ZM168.731 254.177V258.536C168.731 260.341 168.52 261.923 168.099 263.283C167.688 264.642 167.091 265.779 166.306 266.693C165.532 267.595 164.595 268.275 163.493 268.732C162.403 269.189 161.184 269.417 159.837 269.417C158.501 269.417 157.282 269.189 156.181 268.732C155.091 268.275 154.147 267.595 153.35 266.693C152.565 265.779 151.956 264.642 151.522 263.283C151.1 261.923 150.89 260.341 150.89 258.536V254.177C150.89 252.349 151.1 250.749 151.522 249.378C151.944 247.995 152.548 246.841 153.333 245.915C154.13 244.99 155.073 244.292 156.163 243.824C157.265 243.355 158.477 243.12 159.802 243.12C161.149 243.12 162.368 243.355 163.458 243.824C164.559 244.292 165.503 244.99 166.288 245.915C167.073 246.841 167.677 247.995 168.099 249.378C168.52 250.749 168.731 252.349 168.731 254.177ZM164.495 258.536V254.142C164.495 252.841 164.39 251.728 164.179 250.802C163.979 249.865 163.681 249.103 163.282 248.517C162.884 247.919 162.391 247.48 161.806 247.199C161.231 246.906 160.563 246.759 159.802 246.759C159.063 246.759 158.401 246.906 157.815 247.199C157.241 247.48 156.749 247.919 156.339 248.517C155.94 249.103 155.636 249.865 155.425 250.802C155.225 251.728 155.126 252.841 155.126 254.142V258.536C155.126 259.814 155.231 260.915 155.442 261.841C155.653 262.755 155.958 263.505 156.356 264.091C156.766 264.665 157.265 265.093 157.85 265.374C158.436 265.656 159.099 265.796 159.837 265.796C160.587 265.796 161.255 265.656 161.841 265.374C162.427 265.093 162.913 264.665 163.3 264.091C163.698 263.505 163.997 262.755 164.196 261.841C164.395 260.915 164.495 259.814 164.495 258.536ZM185.536 260.716H189.79C189.708 262.568 189.333 264.144 188.665 265.445C187.997 266.734 187.036 267.718 185.782 268.398C184.54 269.078 183.022 269.417 181.229 269.417C179.87 269.417 178.651 269.171 177.573 268.679C176.507 268.187 175.599 267.478 174.849 266.552C174.099 265.615 173.524 264.472 173.126 263.124C172.739 261.777 172.546 260.247 172.546 258.536V254.001C172.546 252.29 172.745 250.761 173.143 249.413C173.554 248.066 174.14 246.923 174.901 245.986C175.663 245.048 176.589 244.339 177.679 243.859C178.78 243.367 180.022 243.12 181.405 243.12C183.175 243.12 184.663 243.46 185.87 244.14C187.077 244.82 188.009 245.816 188.665 247.128C189.321 248.441 189.702 250.04 189.807 251.927H185.554C185.495 250.65 185.319 249.63 185.026 248.869C184.745 248.095 184.311 247.538 183.725 247.199C183.151 246.859 182.378 246.689 181.405 246.689C180.597 246.689 179.899 246.841 179.313 247.146C178.739 247.451 178.265 247.908 177.89 248.517C177.526 249.115 177.251 249.87 177.063 250.785C176.888 251.687 176.8 252.747 176.8 253.966V258.536C176.8 259.708 176.876 260.745 177.028 261.648C177.181 262.55 177.427 263.318 177.766 263.951C178.106 264.572 178.557 265.046 179.12 265.374C179.682 265.691 180.386 265.849 181.229 265.849C182.237 265.849 183.04 265.691 183.638 265.374C184.247 265.058 184.698 264.525 184.991 263.775C185.284 263.025 185.466 262.005 185.536 260.716ZM205.294 243.472H209.565V261.244C209.565 263.201 209.196 264.777 208.458 265.972C207.731 267.167 206.747 268.04 205.505 268.591C204.274 269.142 202.903 269.417 201.391 269.417C199.821 269.417 198.421 269.142 197.19 268.591C195.96 268.04 194.993 267.167 194.29 265.972C193.587 264.777 193.235 263.201 193.235 261.244V243.472H197.489V261.244C197.489 262.462 197.641 263.406 197.946 264.074C198.263 264.742 198.708 265.204 199.282 265.462C199.868 265.72 200.571 265.849 201.391 265.849C202.212 265.849 202.909 265.72 203.483 265.462C204.069 265.204 204.515 264.742 204.819 264.074C205.136 263.406 205.294 262.462 205.294 261.244V243.472ZM215.436 243.472H219.321L225.21 262.509L231.081 243.472H234.684L226.809 269.066H223.593L215.436 243.472ZM213.977 243.472H217.563L218.143 259.767V269.066H213.977V243.472ZM232.821 243.472H236.425V269.066H232.259V259.767L232.821 243.472ZM255.479 265.497V269.066H244.37V265.497H255.479ZM245.495 243.472V269.066H241.224V243.472H245.495ZM253.985 254.124V257.64H244.37V254.124H253.985ZM255.374 243.472V247.058H244.37V243.472H255.374ZM276.362 243.472V269.066H272.179L263.143 251.347V269.066H259.013V243.472H263.143L272.249 261.314V243.472H276.362ZM289.968 243.472V269.066H285.714V243.472H289.968ZM296.489 243.472V247.058H279.263V243.472H296.489Z" fill="black"/>
<path d="M433.349 256.469H437.603C437.521 258.321 437.146 259.897 436.478 261.198C435.81 262.487 434.849 263.471 433.595 264.151C432.353 264.831 430.836 265.171 429.043 265.171C427.683 265.171 426.465 264.925 425.386 264.432C424.32 263.94 423.412 263.231 422.662 262.305C421.912 261.368 421.338 260.225 420.939 258.878C420.552 257.53 420.359 256.001 420.359 254.29V249.755C420.359 248.044 420.558 246.514 420.957 245.167C421.367 243.819 421.953 242.677 422.715 241.739C423.476 240.802 424.402 240.093 425.492 239.612C426.593 239.12 427.836 238.874 429.218 238.874C430.988 238.874 432.476 239.214 433.683 239.893C434.89 240.573 435.822 241.569 436.478 242.882C437.134 244.194 437.515 245.794 437.621 247.68H433.367C433.308 246.403 433.133 245.384 432.84 244.622C432.558 243.848 432.125 243.292 431.539 242.952C430.965 242.612 430.191 242.442 429.218 242.442C428.41 242.442 427.713 242.594 427.127 242.899C426.552 243.204 426.078 243.661 425.703 244.27C425.34 244.868 425.064 245.624 424.877 246.538C424.701 247.44 424.613 248.501 424.613 249.719V254.29C424.613 255.462 424.689 256.499 424.842 257.401C424.994 258.303 425.24 259.071 425.58 259.704C425.92 260.325 426.371 260.8 426.933 261.128C427.496 261.444 428.199 261.602 429.043 261.602C430.05 261.602 430.853 261.444 431.451 261.128C432.06 260.811 432.511 260.278 432.804 259.528C433.097 258.778 433.279 257.759 433.349 256.469ZM453.107 239.225H457.379V256.997C457.379 258.954 457.009 260.53 456.271 261.725C455.545 262.921 454.56 263.794 453.318 264.344C452.088 264.895 450.717 265.171 449.205 265.171C447.634 265.171 446.234 264.895 445.004 264.344C443.773 263.794 442.806 262.921 442.103 261.725C441.4 260.53 441.049 258.954 441.049 256.997V239.225H445.302V256.997C445.302 258.216 445.455 259.159 445.759 259.827C446.076 260.495 446.521 260.958 447.095 261.216C447.681 261.473 448.384 261.602 449.205 261.602C450.025 261.602 450.722 261.473 451.297 261.216C451.883 260.958 452.328 260.495 452.633 259.827C452.949 259.159 453.107 258.216 453.107 256.997V239.225ZM472.795 258.21C472.795 257.682 472.736 257.214 472.619 256.803C472.513 256.382 472.308 256.001 472.004 255.661C471.699 255.321 471.265 254.987 470.703 254.659C470.152 254.331 469.437 253.997 468.558 253.657C467.55 253.27 466.607 252.848 465.728 252.391C464.861 251.923 464.093 251.395 463.425 250.809C462.769 250.212 462.254 249.514 461.879 248.718C461.504 247.921 461.316 246.995 461.316 245.94C461.316 244.897 461.498 243.948 461.861 243.093C462.236 242.225 462.763 241.481 463.443 240.86C464.134 240.227 464.955 239.741 465.904 239.401C466.853 239.05 467.902 238.874 469.05 238.874C470.703 238.874 472.115 239.225 473.287 239.928C474.47 240.632 475.373 241.575 475.994 242.759C476.627 243.942 476.943 245.255 476.943 246.696H472.689C472.689 245.864 472.56 245.126 472.302 244.481C472.045 243.837 471.646 243.333 471.107 242.969C470.568 242.606 469.871 242.425 469.015 242.425C468.23 242.425 467.58 242.577 467.064 242.882C466.56 243.186 466.185 243.602 465.939 244.13C465.705 244.657 465.588 245.26 465.588 245.94C465.588 246.409 465.687 246.837 465.886 247.223C466.086 247.598 466.373 247.944 466.748 248.26C467.123 248.577 467.58 248.876 468.119 249.157C468.658 249.438 469.279 249.708 469.982 249.966C471.177 250.399 472.22 250.88 473.111 251.407C474.002 251.934 474.734 252.526 475.308 253.182C475.894 253.827 476.328 254.559 476.609 255.38C476.902 256.2 477.049 257.132 477.049 258.175C477.049 259.229 476.867 260.19 476.504 261.057C476.152 261.913 475.636 262.645 474.957 263.255C474.277 263.864 473.457 264.339 472.496 264.678C471.535 265.007 470.457 265.171 469.261 265.171C468.16 265.171 467.099 265.007 466.08 264.678C465.072 264.35 464.17 263.852 463.373 263.184C462.576 262.505 461.943 261.655 461.474 260.635C461.017 259.616 460.789 258.421 460.789 257.05H465.06C465.06 257.87 465.16 258.573 465.359 259.159C465.558 259.733 465.845 260.208 466.22 260.583C466.607 260.946 467.058 261.216 467.574 261.391C468.101 261.555 468.687 261.637 469.332 261.637C470.129 261.637 470.779 261.497 471.283 261.216C471.799 260.923 472.179 260.518 472.425 260.003C472.672 259.487 472.795 258.889 472.795 258.21ZM490.179 239.225V264.819H485.925V239.225H490.179ZM496.701 239.225V242.811H479.474V239.225H496.701ZM516.951 249.93V254.29C516.951 256.094 516.74 257.677 516.318 259.036C515.908 260.395 515.31 261.532 514.525 262.446C513.752 263.348 512.814 264.028 511.713 264.485C510.623 264.942 509.404 265.171 508.056 265.171C506.72 265.171 505.502 264.942 504.4 264.485C503.31 264.028 502.367 263.348 501.57 262.446C500.785 261.532 500.175 260.395 499.742 259.036C499.32 257.677 499.109 256.094 499.109 254.29V249.93C499.109 248.102 499.32 246.503 499.742 245.132C500.164 243.749 500.767 242.594 501.552 241.669C502.349 240.743 503.293 240.046 504.383 239.577C505.484 239.108 506.697 238.874 508.021 238.874C509.369 238.874 510.588 239.108 511.677 239.577C512.779 240.046 513.722 240.743 514.508 241.669C515.293 242.594 515.896 243.749 516.318 245.132C516.74 246.503 516.951 248.102 516.951 249.93ZM512.715 254.29V249.895C512.715 248.594 512.609 247.481 512.398 246.555C512.199 245.618 511.9 244.856 511.502 244.27C511.103 243.673 510.611 243.233 510.025 242.952C509.451 242.659 508.783 242.512 508.021 242.512C507.283 242.512 506.621 242.659 506.035 242.952C505.461 243.233 504.968 243.673 504.558 244.27C504.16 244.856 503.855 245.618 503.644 246.555C503.445 247.481 503.345 248.594 503.345 249.895V254.29C503.345 255.567 503.451 256.669 503.662 257.594C503.873 258.509 504.177 259.259 504.576 259.844C504.986 260.419 505.484 260.846 506.07 261.128C506.656 261.409 507.318 261.55 508.056 261.55C508.806 261.55 509.474 261.409 510.06 261.128C510.646 260.846 511.133 260.419 511.519 259.844C511.918 259.259 512.217 258.509 512.416 257.594C512.615 256.669 512.715 255.567 512.715 254.29ZM522.734 239.225H526.619L532.508 258.262L538.379 239.225H541.982L534.107 264.819H530.89L522.734 239.225ZM521.275 239.225H524.861L525.441 255.52V264.819H521.275V239.225ZM540.119 239.225H543.722V264.819H539.556V255.52L540.119 239.225ZM552.968 239.225V264.819H548.697V239.225H552.968ZM573.183 261.251V264.819H558.295V261.251H573.183ZM572.867 241.985L559.859 264.819H557.011V261.971L570.072 239.225H572.867V241.985ZM571.285 239.225V242.811H556.994V239.225H571.285ZM591.148 261.251V264.819H580.039V261.251H591.148ZM581.164 239.225V264.819H576.892V239.225H581.164ZM589.654 249.878V253.393H580.039V249.878H589.654ZM591.043 239.225V242.811H580.039V239.225H591.043ZM620.345 249.93V254.29C620.345 256.094 620.134 257.677 619.713 259.036C619.302 260.395 618.705 261.532 617.92 262.446C617.146 263.348 616.209 264.028 615.107 264.485C614.017 264.942 612.799 265.171 611.451 265.171C610.115 265.171 608.896 264.942 607.795 264.485C606.705 264.028 605.761 263.348 604.965 262.446C604.179 261.532 603.57 260.395 603.136 259.036C602.715 257.677 602.504 256.094 602.504 254.29V249.93C602.504 248.102 602.715 246.503 603.136 245.132C603.558 243.749 604.162 242.594 604.947 241.669C605.744 240.743 606.687 240.046 607.777 239.577C608.879 239.108 610.092 238.874 611.416 238.874C612.763 238.874 613.982 239.108 615.072 239.577C616.174 240.046 617.117 240.743 617.902 241.669C618.687 242.594 619.291 243.749 619.713 245.132C620.134 246.503 620.345 248.102 620.345 249.93ZM616.109 254.29V249.895C616.109 248.594 616.004 247.481 615.793 246.555C615.593 245.618 615.295 244.856 614.896 244.27C614.498 243.673 614.006 243.233 613.42 242.952C612.845 242.659 612.177 242.512 611.416 242.512C610.677 242.512 610.015 242.659 609.429 242.952C608.855 243.233 608.363 243.673 607.953 244.27C607.554 244.856 607.25 245.618 607.039 246.555C606.84 247.481 606.74 248.594 606.74 249.895V254.29C606.74 255.567 606.845 256.669 607.056 257.594C607.267 258.509 607.572 259.259 607.97 259.844C608.381 260.419 608.879 260.846 609.465 261.128C610.05 261.409 610.713 261.55 611.451 261.55C612.201 261.55 612.869 261.409 613.455 261.128C614.041 260.846 614.527 260.419 614.914 259.844C615.312 259.259 615.611 258.509 615.81 257.594C616.009 256.669 616.109 255.567 616.109 254.29ZM624.687 239.225H632.422C634.109 239.225 635.539 239.518 636.711 240.104C637.883 240.69 638.773 241.557 639.383 242.706C640.004 243.843 640.314 245.255 640.314 246.942C640.314 248.219 640.121 249.344 639.734 250.317C639.359 251.29 638.814 252.11 638.099 252.778C637.384 253.434 636.523 253.944 635.515 254.307L634.267 254.993H627.728L627.711 251.407H632.316C633.148 251.407 633.84 251.225 634.39 250.862C634.941 250.499 635.351 249.995 635.621 249.35C635.902 248.706 636.043 247.973 636.043 247.153C636.043 246.274 635.92 245.512 635.674 244.868C635.427 244.212 635.041 243.708 634.513 243.356C633.986 242.993 633.289 242.811 632.422 242.811H628.959V264.819H624.687V239.225ZM636.605 264.819L631.736 253.323L636.183 253.305L641.175 264.591V264.819H636.605ZM650.492 264.819H646.045L646.08 261.251H650.492C651.863 261.251 652.959 260.999 653.779 260.495C654.599 259.979 655.191 259.194 655.554 258.139C655.918 257.085 656.099 255.737 656.099 254.096V249.93C656.099 248.665 655.994 247.587 655.783 246.696C655.584 245.794 655.267 245.061 654.834 244.499C654.412 243.925 653.855 243.503 653.164 243.233C652.472 242.952 651.64 242.811 650.668 242.811H645.957V239.225H650.668C652.133 239.225 653.457 239.46 654.64 239.928C655.824 240.397 656.838 241.089 657.681 242.003C658.537 242.905 659.193 244.024 659.65 245.36C660.107 246.696 660.336 248.231 660.336 249.966V254.096C660.336 255.831 660.107 257.366 659.65 258.702C659.193 260.026 658.537 261.145 657.681 262.059C656.826 262.962 655.795 263.647 654.588 264.116C653.381 264.585 652.015 264.819 650.492 264.819ZM648.488 239.225V264.819H644.217V239.225H648.488ZM678.933 261.251V264.819H667.824V261.251H678.933ZM668.949 239.225V264.819H664.677V239.225H668.949ZM677.439 249.878V253.393H667.824V249.878H677.439ZM678.828 239.225V242.811H667.824V239.225H678.828ZM682.484 239.225H690.218C691.906 239.225 693.336 239.518 694.508 240.104C695.679 240.69 696.57 241.557 697.179 242.706C697.801 243.843 698.111 245.255 698.111 246.942C698.111 248.219 697.918 249.344 697.531 250.317C697.156 251.29 696.611 252.11 695.896 252.778C695.181 253.434 694.32 253.944 693.312 254.307L692.064 254.993H685.525L685.508 251.407H690.113C690.945 251.407 691.636 251.225 692.187 250.862C692.738 250.499 693.148 249.995 693.418 249.35C693.699 248.706 693.84 247.973 693.84 247.153C693.84 246.274 693.717 245.512 693.47 244.868C693.224 244.212 692.838 243.708 692.31 243.356C691.783 242.993 691.086 242.811 690.218 242.811H686.756V264.819H682.484V239.225ZM694.402 264.819L689.533 253.323L693.98 253.305L698.972 264.591V264.819H694.402Z" fill="black"/>
<path d="M847.709 256.469H851.963C851.881 258.321 851.506 259.897 850.838 261.198C850.17 262.487 849.209 263.471 847.955 264.151C846.713 264.831 845.195 265.171 843.402 265.171C842.043 265.171 840.824 264.925 839.746 264.432C838.679 263.94 837.771 263.231 837.021 262.305C836.271 261.368 835.697 260.225 835.299 258.878C834.912 257.53 834.718 256.001 834.718 254.29V249.755C834.718 248.044 834.918 246.514 835.316 245.167C835.726 243.819 836.312 242.677 837.074 241.739C837.836 240.802 838.761 240.093 839.851 239.612C840.953 239.12 842.195 238.874 843.578 238.874C845.347 238.874 846.836 239.214 848.043 239.893C849.25 240.573 850.181 241.569 850.838 242.882C851.494 244.194 851.875 245.794 851.98 247.68H847.726C847.668 246.403 847.492 245.384 847.199 244.622C846.918 243.848 846.484 243.292 845.898 242.952C845.324 242.612 844.55 242.442 843.578 242.442C842.769 242.442 842.072 242.594 841.486 242.899C840.912 243.204 840.437 243.661 840.062 244.27C839.699 244.868 839.424 245.624 839.236 246.538C839.06 247.44 838.972 248.501 838.972 249.719V254.29C838.972 255.462 839.049 256.499 839.201 257.401C839.353 258.303 839.599 259.071 839.939 259.704C840.279 260.325 840.73 260.8 841.293 261.128C841.855 261.444 842.558 261.602 843.402 261.602C844.41 261.602 845.213 261.444 845.81 261.128C846.42 260.811 846.871 260.278 847.164 259.528C847.457 258.778 847.638 257.759 847.709 256.469ZM873.092 249.93V254.29C873.092 256.094 872.881 257.677 872.459 259.036C872.049 260.395 871.451 261.532 870.666 262.446C869.892 263.348 868.955 264.028 867.853 264.485C866.763 264.942 865.545 265.171 864.197 265.171C862.861 265.171 861.642 264.942 860.541 264.485C859.451 264.028 858.508 263.348 857.711 262.446C856.925 261.532 856.316 260.395 855.883 259.036C855.461 257.677 855.25 256.094 855.25 254.29V249.93C855.25 248.102 855.461 246.503 855.883 245.132C856.304 243.749 856.908 242.594 857.693 241.669C858.49 240.743 859.433 240.046 860.523 239.577C861.625 239.108 862.838 238.874 864.162 238.874C865.509 238.874 866.728 239.108 867.818 239.577C868.92 240.046 869.863 240.743 870.648 241.669C871.433 242.594 872.037 243.749 872.459 245.132C872.881 246.503 873.092 248.102 873.092 249.93ZM868.855 254.29V249.895C868.855 248.594 868.75 247.481 868.539 246.555C868.34 245.618 868.041 244.856 867.642 244.27C867.244 243.673 866.752 243.233 866.166 242.952C865.592 242.659 864.924 242.512 864.162 242.512C863.424 242.512 862.761 242.659 862.175 242.952C861.601 243.233 861.109 243.673 860.699 244.27C860.3 244.856 859.996 245.618 859.785 246.555C859.586 247.481 859.486 248.594 859.486 249.895V254.29C859.486 255.567 859.592 256.669 859.802 257.594C860.013 258.509 860.318 259.259 860.717 259.844C861.127 260.419 861.625 260.846 862.211 261.128C862.797 261.409 863.459 261.55 864.197 261.55C864.947 261.55 865.615 261.409 866.201 261.128C866.787 260.846 867.273 260.419 867.66 259.844C868.058 259.259 868.357 258.509 868.556 257.594C868.756 256.669 868.855 255.567 868.855 254.29ZM894.765 239.225V264.819H890.582L881.547 247.1V264.819H877.416V239.225H881.547L890.652 257.067V239.225H894.765ZM903.871 239.225V264.819H899.599V239.225H903.871ZM912.168 250.387V253.973H902.886V250.387H912.168ZM913.363 239.225V242.811H902.886V239.225H913.363ZM921.273 239.225V264.819H917.002V239.225H921.273ZM926.23 239.225H933.965C935.652 239.225 937.082 239.518 938.254 240.104C939.425 240.69 940.316 241.557 940.925 242.706C941.547 243.843 941.857 245.255 941.857 246.942C941.857 248.219 941.664 249.344 941.277 250.317C940.902 251.29 940.357 252.11 939.642 252.778C938.927 253.434 938.066 253.944 937.058 254.307L935.81 254.993H929.271L929.254 251.407H933.859C934.691 251.407 935.383 251.225 935.933 250.862C936.484 250.499 936.894 249.995 937.164 249.35C937.445 248.706 937.586 247.973 937.586 247.153C937.586 246.274 937.463 245.512 937.217 244.868C936.97 244.212 936.584 243.708 936.056 243.356C935.529 242.993 934.832 242.811 933.965 242.811H930.502V264.819H926.23V239.225ZM938.148 264.819L933.279 253.323L937.726 253.305L942.718 264.591V264.819H938.148ZM947.218 239.225H951.103L956.992 258.262L962.863 239.225H966.467L958.592 264.819H955.375L947.218 239.225ZM945.759 239.225H949.345L949.925 255.52V264.819H945.759V239.225ZM964.603 239.225H968.207V264.819H964.041V255.52L964.603 239.225ZM998.67 249.93V254.29C998.67 256.094 998.459 257.677 998.037 259.036C997.627 260.395 997.029 261.532 996.244 262.446C995.47 263.348 994.533 264.028 993.431 264.485C992.342 264.942 991.123 265.171 989.775 265.171C988.439 265.171 987.22 264.942 986.119 264.485C985.029 264.028 984.086 263.348 983.289 262.446C982.504 261.532 981.894 260.395 981.461 259.036C981.039 257.677 980.828 256.094 980.828 254.29V249.93C980.828 248.102 981.039 246.503 981.461 245.132C981.883 243.749 982.486 242.594 983.271 241.669C984.068 240.743 985.011 240.046 986.101 239.577C987.203 239.108 988.416 238.874 989.74 238.874C991.088 238.874 992.306 239.108 993.396 239.577C994.498 240.046 995.441 240.743 996.226 241.669C997.011 242.594 997.615 243.749 998.037 245.132C998.459 246.503 998.67 248.102 998.67 249.93ZM994.433 254.29V249.895C994.433 248.594 994.328 247.481 994.117 246.555C993.918 245.618 993.619 244.856 993.22 244.27C992.822 243.673 992.33 243.233 991.744 242.952C991.17 242.659 990.502 242.512 989.74 242.512C989.002 242.512 988.34 242.659 987.754 242.952C987.179 243.233 986.687 243.673 986.277 244.27C985.879 244.856 985.574 245.618 985.363 246.555C985.164 247.481 985.064 248.594 985.064 249.895V254.29C985.064 255.567 985.17 256.669 985.381 257.594C985.592 258.509 985.896 259.259 986.295 259.844C986.705 260.419 987.203 260.846 987.789 261.128C988.375 261.409 989.037 261.55 989.775 261.55C990.525 261.55 991.193 261.409 991.779 261.128C992.365 260.846 992.851 260.419 993.238 259.844C993.636 259.259 993.935 258.509 994.134 257.594C994.334 256.669 994.433 255.567 994.433 254.29ZM1003.01 239.225H1010.75C1012.43 239.225 1013.86 239.518 1015.03 240.104C1016.21 240.69 1017.1 241.557 1017.71 242.706C1018.33 243.843 1018.64 245.255 1018.64 246.942C1018.64 248.219 1018.45 249.344 1018.06 250.317C1017.68 251.29 1017.14 252.11 1016.42 252.778C1015.71 253.434 1014.85 253.944 1013.84 254.307L1012.59 254.993H1006.05L1006.03 251.407H1010.64C1011.47 251.407 1012.16 251.225 1012.71 250.862C1013.27 250.499 1013.68 249.995 1013.95 249.35C1014.23 248.706 1014.37 247.973 1014.37 247.153C1014.37 246.274 1014.24 245.512 1014 244.868C1013.75 244.212 1013.36 243.708 1012.84 243.356C1012.31 242.993 1011.61 242.811 1010.75 242.811H1007.28V264.819H1003.01V239.225ZM1014.93 264.819L1010.06 253.323L1014.51 253.305L1019.5 264.591V264.819H1014.93ZM1028.82 264.819H1024.37L1024.4 261.251H1028.82C1030.19 261.251 1031.28 260.999 1032.1 260.495C1032.92 259.979 1033.52 259.194 1033.88 258.139C1034.24 257.085 1034.42 255.737 1034.42 254.096V249.93C1034.42 248.665 1034.32 247.587 1034.11 246.696C1033.91 245.794 1033.59 245.061 1033.16 244.499C1032.74 243.925 1032.18 243.503 1031.49 243.233C1030.8 242.952 1029.96 242.811 1028.99 242.811H1024.28V239.225H1028.99C1030.46 239.225 1031.78 239.46 1032.96 239.928C1034.15 240.397 1035.16 241.089 1036.01 242.003C1036.86 242.905 1037.52 244.024 1037.97 245.36C1038.43 246.696 1038.66 248.231 1038.66 249.966V254.096C1038.66 255.831 1038.43 257.366 1037.97 258.702C1037.52 260.026 1036.86 261.145 1036.01 262.059C1035.15 262.962 1034.12 263.647 1032.91 264.116C1031.7 264.585 1030.34 264.819 1028.82 264.819ZM1026.81 239.225V264.819H1022.54V239.225H1026.81ZM1057.26 261.251V264.819H1046.15V261.251H1057.26ZM1047.27 239.225V264.819H1043V239.225H1047.27ZM1055.76 249.878V253.393H1046.15V249.878H1055.76ZM1057.15 239.225V242.811H1046.15V239.225H1057.15ZM1060.81 239.225H1068.54C1070.23 239.225 1071.66 239.518 1072.83 240.104C1074 240.69 1074.89 241.557 1075.5 242.706C1076.12 243.843 1076.44 245.255 1076.44 246.942C1076.44 248.219 1076.24 249.344 1075.86 250.317C1075.48 251.29 1074.94 252.11 1074.22 252.778C1073.51 253.434 1072.64 253.944 1071.64 254.307L1070.39 254.993H1063.85L1063.83 251.407H1068.44C1069.27 251.407 1069.96 251.225 1070.51 250.862C1071.06 250.499 1071.47 249.995 1071.74 249.35C1072.02 248.706 1072.16 247.973 1072.16 247.153C1072.16 246.274 1072.04 245.512 1071.79 244.868C1071.55 244.212 1071.16 243.708 1070.63 243.356C1070.11 242.993 1069.41 242.811 1068.54 242.811H1065.08V264.819H1060.81V239.225ZM1072.73 264.819L1067.86 253.323L1072.3 253.305L1077.3 264.591V264.819H1072.73Z" fill="black"/>
<path d="M1262.47 260.805H1258.03L1258.06 257.236H1262.47C1263.85 257.236 1264.94 256.984 1265.76 256.48C1266.58 255.965 1267.17 255.18 1267.54 254.125C1267.9 253.07 1268.08 251.723 1268.08 250.082V245.916C1268.08 244.65 1267.98 243.572 1267.77 242.682C1267.57 241.779 1267.25 241.047 1266.82 240.484C1266.39 239.91 1265.84 239.488 1265.15 239.219C1264.45 238.937 1263.62 238.797 1262.65 238.797H1257.94V235.211H1262.65C1264.11 235.211 1265.44 235.445 1266.62 235.914C1267.81 236.383 1268.82 237.074 1269.66 237.988C1270.52 238.891 1271.18 240.01 1271.63 241.346C1272.09 242.682 1272.32 244.217 1272.32 245.951V250.082C1272.32 251.816 1272.09 253.351 1271.63 254.687C1271.18 256.012 1270.52 257.131 1269.66 258.045C1268.81 258.947 1267.78 259.633 1266.57 260.101C1265.36 260.57 1264 260.805 1262.47 260.805ZM1260.47 235.211V260.805H1256.2V235.211H1260.47ZM1290.92 257.236V260.805H1279.81V257.236H1290.92ZM1280.93 235.211V260.805H1276.66V235.211H1280.93ZM1289.42 245.863V249.379H1279.81V245.863H1289.42ZM1290.81 235.211V238.797H1279.81V235.211H1290.81ZM1308.23 257.236V260.805H1297.6V257.236H1308.23ZM1298.72 235.211V260.805H1294.45V235.211H1298.72ZM1316.09 235.211V260.805H1311.82V235.211H1316.09ZM1328.55 256.058L1334 235.211H1338.62L1330.98 260.805H1327.81L1328.55 256.058ZM1323.79 235.211L1329.2 256.058L1329.99 260.805H1326.83L1319.18 235.211H1323.79ZM1355.81 257.236V260.805H1344.7V257.236H1355.81ZM1345.83 235.211V260.805H1341.56V235.211H1345.83ZM1354.32 245.863V249.379H1344.7V245.863H1354.32ZM1355.71 235.211V238.797H1344.7V235.211H1355.71ZM1359.36 235.211H1367.1C1368.79 235.211 1370.22 235.504 1371.39 236.09C1372.56 236.676 1373.45 237.543 1374.06 238.691C1374.68 239.828 1374.99 241.24 1374.99 242.928C1374.99 244.205 1374.8 245.33 1374.41 246.303C1374.04 247.275 1373.49 248.096 1372.78 248.764C1372.06 249.42 1371.2 249.93 1370.19 250.293L1368.94 250.978H1362.41L1362.39 247.392H1366.99C1367.83 247.392 1368.52 247.211 1369.07 246.848C1369.62 246.484 1370.03 245.98 1370.3 245.336C1370.58 244.691 1370.72 243.959 1370.72 243.139C1370.72 242.26 1370.6 241.498 1370.35 240.853C1370.1 240.197 1369.72 239.693 1369.19 239.342C1368.66 238.978 1367.97 238.797 1367.1 238.797H1363.64V260.805H1359.36V235.211ZM1371.28 260.805L1366.41 249.308L1370.86 249.291L1375.85 260.576V260.805H1371.28ZM1380.77 235.211L1385.27 247.34L1389.77 235.211H1394.49L1387.42 251.383V260.805H1383.11V251.383L1376.05 235.211H1380.77Z" fill="black"/>
<path d="M721.569 81.7619V84.1667L722.059 86.0905L762.255 125.529L722.059 165.448L721.569 168.333L722.059 171.219L723.53 173.624L726.471 175.548H729.412L731.863 174.586L733.333 173.624L763.726 143.805L778.922 129.376L779.902 126.49L779.412 123.124L777.941 121.2L733.333 77.4333L731.863 75.9905L729.412 75.0286H727.941L725.49 75.9905L723.53 77.4333L722.059 79.3571L721.569 81.7619Z" fill="#43E11C" stroke="#43E11C"/>
<path d="M1100 77.9142V80.319L1100.49 82.2428L1140.69 121.681L1100.49 161.6L1100 164.486L1100.49 167.371L1101.96 169.776L1104.9 171.7H1107.84L1110.29 170.738L1111.76 169.776L1142.16 139.957L1157.35 125.529L1158.33 122.643L1157.84 119.276L1156.37 117.352L1111.76 73.5857L1110.29 72.1428L1107.84 71.1809H1106.37L1103.92 72.1428L1101.96 73.5857L1100.49 75.5095L1100 77.9142Z" fill="#43E11C" stroke="#43E11C"/>
<defs>
<filter id="filter0_i_17_227" x="1202.1" y="1.26489" width="234.896" height="212.24" filterUnits="userSpaceOnUse" color-interpolation-filters="sRGB">
<feFlood flood-opacity="0" result="BackgroundImageFix"/>
<feBlend mode="normal" in="SourceGraphic" in2="BackgroundImageFix" result="shape"/>
<feColorMatrix in="SourceAlpha" type="matrix" values="0 0 0 0 0 0 0 0 0 0 0 0 0 0 0 0 0 0 127 0" result="hardAlpha"/>
<feOffset dy="4"/>
<feGaussianBlur stdDeviation="2"/>
<feComposite in2="hardAlpha" operator="arithmetic" k2="-1" k3="1"/>
<feColorMatrix type="matrix" values="0 0 0 0 0 0 0 0 0 0 0 0 0 0 0 0 0 0 0.25 0"/>
<feBlend mode="normal" in2="shape" result="effect1_innerShadow_17_227"/>
</filter>
<filter id="filter1_i_17_227" x="822.812" y="0" width="234.896" height="212.24" filterUnits="userSpaceOnUse" color-interpolation-filters="sRGB">
<feFlood flood-opacity="0" result="BackgroundImageFix"/>
<feBlend mode="normal" in="SourceGraphic" in2="BackgroundImageFix" result="shape"/>
<feColorMatrix in="SourceAlpha" type="matrix" values="0 0 0 0 0 0 0 0 0 0 0 0 0 0 0 0 0 0 127 0" result="hardAlpha"/>
<feOffset dy="4"/>
<feGaussianBlur stdDeviation="2"/>
<feComposite in2="hardAlpha" operator="arithmetic" k2="-1" k3="1"/>
<feColorMatrix type="matrix" values="0 0 0 0 0 0 0 0 0 0 0 0 0 0 0 0 0 0 0.25 0"/>
<feBlend mode="normal" in2="shape" result="effect1_innerShadow_17_227"/>
</filter>
<filter id="filter2_i_17_227" x="434.617" y="4.45227" width="234.896" height="212.24" filterUnits="userSpaceOnUse" color-interpolation-filters="sRGB">
<feFlood flood-opacity="0" result="BackgroundImageFix"/>
<feBlend mode="normal" in="SourceGraphic" in2="BackgroundImageFix" result="shape"/>
<feColorMatrix in="SourceAlpha" type="matrix" values="0 0 0 0 0 0 0 0 0 0 0 0 0 0 0 0 0 0 127 0" result="hardAlpha"/>
<feOffset dy="4"/>
<feGaussianBlur stdDeviation="2"/>
<feComposite in2="hardAlpha" operator="arithmetic" k2="-1" k3="1"/>
<feColorMatrix type="matrix" values="0 0 0 0 0 0 0 0 0 0 0 0 0 0 0 0 0 0 0.25 0"/>
<feBlend mode="normal" in2="shape" result="effect1_innerShadow_17_227"/>
</filter>
<filter id="filter3_d_17_227" x="27.4536" y="1.26489" width="242.896" height="222.614" filterUnits="userSpaceOnUse" color-interpolation-filters="sRGB">
<feFlood flood-opacity="0" result="BackgroundImageFix"/>
<feColorMatrix in="SourceAlpha" type="matrix" values="0 0 0 0 0 0 0 0 0 0 0 0 0 0 0 0 0 0 127 0" result="hardAlpha"/>
<feOffset dy="4"/>
<feGaussianBlur stdDeviation="2"/>
<feComposite in2="hardAlpha" operator="out"/>
<feColorMatrix type="matrix" values="0 0 0 0 0 0 0 0 0 0 0 0 0 0 0 0 0 0 0.25 0"/>
<feBlend mode="normal" in2="BackgroundImageFix" result="effect1_dropShadow_17_227"/>
<feBlend mode="normal" in="SourceGraphic" in2="effect1_dropShadow_17_227" result="shape"/>
</filter>
<filter id="filter4_i_17_227" x="31.4536" y="1.26489" width="234.896" height="218.614" filterUnits="userSpaceOnUse" color-interpolation-filters="sRGB">
<feFlood flood-opacity="0" result="BackgroundImageFix"/>
<feBlend mode="normal" in="SourceGraphic" in2="BackgroundImageFix" result="shape"/>
<feColorMatrix in="SourceAlpha" type="matrix" values="0 0 0 0 0 0 0 0 0 0 0 0 0 0 0 0 0 0 127 0" result="hardAlpha"/>
<feOffset dy="4"/>
<feGaussianBlur stdDeviation="2"/>
<feComposite in2="hardAlpha" operator="arithmetic" k2="-1" k3="1"/>
<feColorMatrix type="matrix" values="0 0 0 0 0 0 0 0 0 0 0 0 0 0 0 0 0 0 0.25 0"/>
<feBlend mode="normal" in2="shape" result="effect1_innerShadow_17_227"/>
</filter>
</defs>
</svg>
