<svg xmlns="http://www.w3.org/2000/svg" xmlns:xlink="http://www.w3.org/1999/xlink" width="24" height="26"><defs><path id="xqpua" d="M1402.82 5955.73l.17-.63c.24-.83.49-1.66.65-2.52.18-.99.1-1.95-.22-2.9a27.3 27.3 0 0 0-1.25-3.04c-.59-1.22-1.2-2.43-1.8-3.65-.8-1.65-1.5-3.33-2.04-5.08a9.28 9.28 0 0 1-.3-1.25 4.3 4.3 0 0 1 .52-2.81c.5-.92 1.16-1.7 1.9-2.42.44-.41.89-.8 1.34-1.2a1 1 0 0 1 .25-.16c.15-.07.24 0 .22.16-.01.21-.03.43-.07.64-.2 1.07-.26 2.14-.17 3.21.08 1.08.38 2.1.87 3.06.9 1.76 1.75 3.55 2.55 5.35.68 1.53 1.34 3.06 2 4.6.2.47.37.95.44 1.45.1.66.01 1.3-.2 1.93a7.13 7.13 0 0 1-1.18 2.11c-.59.77-1.27 1.46-1.98 2.12-.43.41-.89.78-1.34 1.17a.91.91 0 0 1-.16.11c-.08.04-.13.02-.16-.06l-.02-.18h-.02"/><path id="xqpub" d="M1415 5947.86c0 .6-.2 1.14-.45 1.67a7.2 7.2 0 0 1-1.47 1.97c-.54.53-1.1 1.03-1.67 1.53a.77.77 0 0 1-.17.12c-.04.02-.1.04-.13.02s-.05-.09-.05-.14l.06-.34.46-1.92c.07-.3.13-.62.16-.94a4.13 4.13 0 0 0-.28-1.83 28.1 28.1 0 0 0-.82-2c-.65-1.41-1.33-2.81-2-4.22-.32-.7-.67-1.39-.92-2.12a6.37 6.37 0 0 1-.39-1.81c-.04-.87.22-1.65.65-2.39a8.4 8.4 0 0 1 1.42-1.74c.25-.25.52-.49.8-.72a.63.63 0 0 1 .18-.12c.16-.06.26.02.24.19l-.12.74c-.2 1.3-.2 2.58.28 3.83.21.55.5 1.08.75 1.62l1.38 2.94c.62 1.34 1.22 2.7 1.75 4.08.22.55.34 1.13.34 1.58"/><path id="xqpuc" d="M1398.66 5948c0 .45-.18 1-.44 1.53a7 7 0 0 1-1.42 1.92c-.56.54-1.14 1.06-1.72 1.58a.77.77 0 0 1-.17.12c-.04.02-.1.04-.13.02-.04-.02-.05-.1-.05-.14.02-.15.05-.3.09-.44.15-.68.3-1.35.47-2.02.23-.92.13-1.82-.2-2.7-.26-.68-.54-1.36-.85-2.03-.62-1.34-1.27-2.67-1.9-4-.34-.72-.7-1.43-.95-2.18a6.11 6.11 0 0 1-.39-1.97c0-.76.22-1.47.6-2.13.4-.73.95-1.34 1.55-1.92l.7-.64c.07-.05.14-.1.22-.12.14-.06.24.02.22.17l-.12.75c-.2 1.3-.2 2.6.28 3.84.22.58.52 1.13.79 1.7l1.32 2.82a67.65 67.65 0 0 1 1.77 4.11c.22.56.33 1.12.33 1.74"/></defs><use fill="#fff" xlink:href="#xqpua" transform="translate(-1391 -5930)"/><use fill="#fff" xlink:href="#xqpub" transform="translate(-1391 -5930)"/><use fill="#fff" xlink:href="#xqpuc" transform="translate(-1391 -5930)"/></svg>