<svg xmlns="http://www.w3.org/2000/svg" xmlns:xlink="http://www.w3.org/1999/xlink" width="22" height="22"><defs><path id="lkgra" d="M1349.79 5945.79a1.84 1.84 0 0 1 0-2.6c.36-.39.8-.58 1.3-.58s.94.18 1.31.54c.38.36.57.8.57 1.32s-.19.96-.57 1.32a1.85 1.85 0 0 1-2.61 0zm-1.14 4.2c-1.1.2-2.2.2-3.29 0a4.62 4.62 0 0 1-2.48-1.14.32.32 0 0 1-.14-.28c0-.13.04-.24.14-.33.09-.1.2-.14.32-.14.13 0 .22.04.29.14.43.4 1.12.7 2.06.86.94.18 1.88.18 2.84.03a3.76 3.76 0 0 0 2.09-.9.45.45 0 0 1 .65 0c.1.1.14.21.14.34 0 .12-.04.21-.14.28-.56.56-1.39.94-2.48 1.15zm-7.04-6.84a1.84 1.84 0 0 1 3.15 1.32c0 .52-.18.96-.54 1.32-.36.36-.79.54-1.3.54-.5 0-.93-.18-1.3-.54-.38-.36-.57-.8-.57-1.3 0-.53.19-.98.56-1.34zm12.24-2.88a11.91 11.91 0 0 0-6.42-1.97l1.3-5.86 4.13.94c0 .5.18.93.54 1.29.36.36.8.54 1.32.54.51 0 .95-.18 1.3-.54.37-.36.55-.8.55-1.32 0-.51-.18-.95-.54-1.3-.36-.37-.8-.55-1.34-.55a1.85 1.85 0 0 0-1.64 1.03l-4.55-1.03a.35.35 0 0 0-.32.07.58.58 0 0 0-.2.26l-1.44 6.47c-2.47.1-4.6.77-6.38 2.02-.5-.5-1.1-.75-1.78-.75a2.2 2.2 0 0 0-1.97.89 2.53 2.53 0 0 0-.5 2.06c.15.75.61 1.33 1.4 1.73-.1.35-.15.72-.15 1.13 0 1.31.45 2.5 1.34 3.58a9.26 9.26 0 0 0 3.58 2.58c1.5.64 3.15.96 4.95.96 1.8 0 3.44-.32 4.94-.96 1.5-.64 2.7-1.5 3.59-2.58a5.5 5.5 0 0 0 1.2-4.75 2.3 2.3 0 0 0 1.33-1.7 2.53 2.53 0 0 0-.5-2.05 2.32 2.32 0 0 0-1.96-.94 2.7 2.7 0 0 0-1.78.75z"/></defs><use fill="#fff" xlink:href="#lkgra" transform="translate(-1336 -5931)"/></svg>