<svg width="60" height="56" viewBox="0 0 60 56" fill="none" xmlns="http://www.w3.org/2000/svg">
<g clip-path="url(#clip0_2_13)">
<path d="M46.9 43.1L46.17 37.63C46.0736 36.9257 45.7261 36.2798 45.1915 35.8113C44.6568 35.3428 43.9709 35.083 43.26 35.08H38.76C38.0474 35.0806 37.3591 35.3392 36.8223 35.808C36.2856 36.2767 35.9367 36.924 35.84 37.63L35.11 43.11L35 43.1H25.98C25.4327 43.0973 24.9088 42.8781 24.5228 42.4902C24.1367 42.1023 23.92 41.5773 23.92 41.03V23C23.92 21.86 24.84 20.9301 25.98 20.9301H56.03C57.17 20.9301 58.09 21.86 58.09 23V41.04C58.09 42.18 57.17 43.11 56.03 43.11H46.9V43.1ZM36.07 50.1L37.7 37.88C37.77 37.35 38.23 36.95 38.76 36.95H43.26C43.8 36.95 44.25 37.35 44.32 37.88L45.95 50.1H36.07ZM31.93 50.1V44.97H34.86L34.18 50.1H31.93ZM23.04 49.04V50.1H18.91V46.97H20.98C22.11 46.97 23.04 47.9 23.04 49.04V49.04ZM4.88 35.37C4.88 34.37 5.52998 33.5 6.47998 33.21L10.43 32C11.7184 33.8249 13.4839 35.2603 15.5333 36.1492C17.5828 37.0381 19.8372 37.3463 22.05 37.04V41.02C22.05 42.0659 22.4648 43.0691 23.2034 43.8096C23.942 44.5501 24.9441 44.9673 25.99 44.97H30.06V50.1H24.93V49.04C24.93 47.9924 24.5138 46.9877 23.7731 46.2469C23.0323 45.5062 22.0276 45.09 20.98 45.09H10.96C10.9441 45.09 10.9289 45.0836 10.9176 45.0724C10.9064 45.0611 10.9 45.0459 10.9 45.03V39.02C10.9 38.7707 10.801 38.5316 10.6247 38.3553C10.4484 38.1791 10.2093 38.08 9.96002 38.08C9.71072 38.08 9.47163 38.1791 9.29535 38.3553C9.11906 38.5316 9.02002 38.7707 9.02002 39.02V45.02C9.02002 46.1 9.89002 46.97 10.96 46.97H17.04V50.1H7.95001C7.1358 50.1 6.35491 49.7765 5.77917 49.2008C5.20344 48.6251 4.88 47.8442 4.88 47.03V35.37ZM13.51 31.05C14.0317 30.8928 14.4887 30.5714 14.813 30.1335C15.1373 29.6957 15.3116 29.1649 15.31 28.62V27.53L16.3 28.36C16.9 28.86 17.66 29.14 18.44 29.14H21.51C21.69 29.14 21.86 29.12 22.04 29.09V35.14C20.2376 35.434 18.3895 35.2434 16.6851 34.588C14.9806 33.9326 13.481 32.8358 12.34 31.41L13.51 31.05ZM12.71 17.92H12.83C13.69 17.92 14.41 17.31 14.55 16.46L14.99 13.86C15.49 13.76 15.96 13.55 16.37 13.24C16.9468 13.6732 17.6486 13.9075 18.37 13.9075C19.0914 13.9075 19.7932 13.6732 20.37 13.24C20.9477 13.6756 21.6515 13.9113 22.375 13.9113C23.0985 13.9113 23.8023 13.6756 24.38 13.24C24.78 13.54 25.26 13.76 25.76 13.85L26.2 16.46C26.3 17.08 26.71 17.56 27.26 17.79L27.06 19.04H25.98C24.9341 19.0427 23.932 19.46 23.1934 20.2004C22.4548 20.9409 22.04 21.9441 22.04 22.99V27.16C21.87 27.22 21.69 27.26 21.51 27.26H18.44C18.1 27.26 17.76 27.14 17.5 26.92L14.28 24.24C13.86 23.89 13.58 23.4 13.5 22.86L12.71 17.92ZM29.45 18.58V19.04H28.96L29.13 18.01C29.33 18.13 29.45 18.34 29.45 18.58ZM11.3 15.4V15.3199C11.3188 15.1124 11.2681 14.9046 11.1559 14.729C11.0437 14.5534 10.8762 14.4201 10.68 14.35C10.4507 14.2741 10.2441 14.1417 10.0793 13.9651C9.91458 13.7884 9.79688 13.5732 9.73712 13.3391C9.67736 13.1051 9.67745 12.8597 9.73737 12.6257C9.79728 12.3917 9.91513 12.1765 10.08 12C10.236 11.8272 10.3224 11.6028 10.3224 11.37C10.3224 11.1372 10.236 10.9127 10.08 10.74C9.90889 10.557 9.78842 10.3326 9.73059 10.0889C9.67276 9.84511 9.67955 9.59045 9.75024 9.3501C9.82093 9.10975 9.95307 8.89202 10.1337 8.71838C10.3143 8.54475 10.5371 8.42118 10.78 8.35999C10.9079 8.3246 11.0267 8.26259 11.1288 8.17798C11.231 8.09337 11.3141 7.98815 11.3727 7.86914C11.4312 7.75013 11.4639 7.61998 11.4686 7.48743C11.4733 7.35487 11.45 7.22284 11.4 7.09998C11.3053 6.87107 11.2709 6.62174 11.2999 6.37573C11.329 6.12973 11.4206 5.89526 11.566 5.6947C11.7114 5.49415 11.9057 5.33421 12.1305 5.2301C12.3553 5.12599 12.603 5.08117 12.85 5.09998C13.27 5.12998 13.65 4.87998 13.79 4.47998C13.8891 4.1884 14.0779 3.93563 14.3293 3.75781C14.5808 3.58 14.8821 3.48626 15.19 3.48999C15.45 3.48999 15.69 3.39998 15.87 3.22998C16.0914 3.01197 16.3639 2.85293 16.6626 2.76733C16.9613 2.68174 17.2767 2.67233 17.58 2.73999C17.88 2.80999 18.2 2.72001 18.43 2.51001C18.8493 2.11482 19.4038 1.89478 19.98 1.89478C20.5562 1.89478 21.1107 2.11482 21.53 2.51001C21.75 2.72001 22.07 2.80999 22.37 2.73999C22.692 2.66545 23.0282 2.67899 23.3432 2.7793C23.6582 2.8796 23.9403 3.06302 24.16 3.31006C24.41 3.59006 24.8 3.68995 25.16 3.56995C25.31 3.51995 25.46 3.48999 25.59 3.48999C26.21 3.48999 26.76 3.88998 26.97 4.47998C27.0448 4.69139 27.1928 4.86909 27.3872 4.98096C27.5816 5.09282 27.8096 5.13146 28.03 5.08997C28.2657 5.09749 28.496 5.16158 28.7017 5.27686C28.9074 5.39213 29.0824 5.55523 29.2118 5.75232C29.3412 5.9494 29.4213 6.17475 29.4454 6.4093C29.4694 6.64386 29.4367 6.88072 29.35 7.09998C29.3002 7.22351 29.2772 7.35629 29.2825 7.48938C29.2879 7.62247 29.3214 7.75281 29.381 7.87195C29.4406 7.99109 29.5248 8.09629 29.6281 8.18042C29.7313 8.26455 29.8513 8.32573 29.98 8.35999C30.62 8.52999 31.07 9.11001 31.07 9.76001C31.07 10.22 30.86 10.55 30.68 10.74C30.524 10.9127 30.4376 11.1372 30.4376 11.37C30.4376 11.6028 30.524 11.8272 30.68 12C30.8449 12.1765 30.9627 12.3917 31.0226 12.6257C31.0826 12.8597 31.0826 13.1051 31.0229 13.3391C30.9631 13.5732 30.8454 13.7884 30.6807 13.9651C30.5159 14.1417 30.3094 14.2741 30.08 14.35C29.8687 14.4227 29.6903 14.5684 29.5767 14.7609C29.463 14.9533 29.4217 15.1799 29.46 15.4C29.4535 15.542 29.4012 15.6781 29.3112 15.788C29.2211 15.8979 29.0979 15.9757 28.96 16.01L28.04 16.04L27.5 12.8C27.4798 12.6736 27.434 12.5526 27.3654 12.4445C27.2968 12.3363 27.2069 12.2434 27.1011 12.1713C26.9953 12.0992 26.8758 12.0494 26.7501 12.0251C26.6244 12.0008 26.4951 12.0026 26.37 12.03C25.89 12.03 25.44 11.78 25.17 11.37C25.084 11.2421 24.9679 11.1374 24.8318 11.0649C24.6958 10.9925 24.5441 10.9546 24.39 10.9546C24.2359 10.9546 24.0841 10.9925 23.9481 11.0649C23.8121 11.1374 23.696 11.2421 23.61 11.37C23.4775 11.5743 23.296 11.7423 23.0821 11.8585C22.8681 11.9748 22.6285 12.0356 22.385 12.0356C22.1415 12.0356 21.9019 11.9748 21.6879 11.8585C21.474 11.7423 21.2925 11.5743 21.16 11.37C21.074 11.2421 20.9579 11.1374 20.8218 11.0649C20.6858 10.9925 20.5341 10.9546 20.38 10.9546C20.2259 10.9546 20.0741 10.9925 19.9381 11.0649C19.8021 11.1374 19.686 11.2421 19.6 11.37C19.4675 11.5743 19.286 11.7423 19.0721 11.8585C18.8581 11.9748 18.6185 12.0356 18.375 12.0356C18.1315 12.0356 17.8919 11.9748 17.6779 11.8585C17.464 11.7423 17.2825 11.5743 17.15 11.37C17.064 11.2421 16.9479 11.1374 16.8119 11.0649C16.6759 10.9925 16.5241 10.9546 16.37 10.9546C16.2159 10.9546 16.0642 10.9925 15.9282 11.0649C15.7921 11.1374 15.676 11.2421 15.59 11.37C15.32 11.77 14.87 12.02 14.39 12.03L14.26 12.02C14.026 12.0017 13.7937 12.0716 13.6086 12.2159C13.4236 12.3603 13.2992 12.5687 13.26 12.8L12.72 16.04L11.79 16.01C11.6536 15.9762 11.5316 15.8998 11.4417 15.7919C11.3518 15.684 11.2986 15.5502 11.29 15.41L11.3 15.4ZM11.16 20.85C11.0716 20.8513 10.9839 20.835 10.902 20.8018C10.8201 20.7686 10.7457 20.7192 10.6832 20.6567C10.6207 20.5943 10.5715 20.5199 10.5383 20.438C10.5051 20.3561 10.4886 20.2684 10.49 20.1801V18.58C10.49 18.34 10.63 18.13 10.82 18.01L11.27 20.85H11.16ZM59.98 41.02V23C59.98 21.9541 59.5652 20.9509 58.8266 20.2104C58.088 19.47 57.0858 19.0527 56.04 19.05H31.34V18.59C31.34 17.99 31.12 17.42 30.76 16.99C31.02 16.66 31.21 16.27 31.29 15.85C32.0337 15.409 32.5775 14.6968 32.8069 13.8632C33.0363 13.0295 32.9335 12.1394 32.52 11.38C32.9432 10.6274 33.0546 9.73882 32.8303 8.90503C32.6059 8.07123 32.0637 7.35867 31.32 6.92004L31.33 6.56995C31.3284 5.76408 31.0362 4.98588 30.5073 4.37793C29.9783 3.76997 29.2479 3.37307 28.45 3.26001C28.1139 2.6953 27.6187 2.24225 27.0264 1.95764C26.434 1.67304 25.7709 1.56955 25.12 1.66003C24.3647 1.04621 23.3993 0.751867 22.43 0.839966C21.7196 0.30923 20.8567 0.0224609 19.97 0.0224609C19.0833 0.0224609 18.2204 0.30923 17.51 0.839966C16.5465 0.746799 15.5848 1.03394 14.83 1.64001C13.78 1.74001 12.84 2.35001 12.3 3.26001C11.4426 3.38211 10.6659 3.83142 10.1327 4.51379C9.59947 5.19617 9.35121 6.05861 9.44 6.92004C8.70401 7.36576 8.16844 8.07829 7.94489 8.90918C7.72133 9.74006 7.82702 10.6252 8.23999 11.38C7.81533 12.136 7.70524 13.0286 7.93353 13.8651C8.16183 14.7016 8.71021 15.4146 9.46002 15.85C9.50002 16.09 9.58 16.31 9.69 16.52C9.35941 16.7546 9.08977 17.0649 8.90363 17.425C8.71748 17.7852 8.62022 18.1846 8.62 18.59V20.1899C8.62 21.5899 9.75997 22.74 11.16 22.74H11.58L11.64 23.16C11.8 24.16 12.31 25.0599 13.08 25.6899L13.42 25.98V28.63C13.42 28.93 13.24 29.18 12.96 29.26L5.92999 31.42C5.08206 31.6782 4.34 32.2029 3.81396 32.9163C3.28793 33.6296 3.006 34.4937 3.01001 35.38V47.04C3.01001 48.2 3.41002 49.27 4.08002 50.11H1.94C0.870002 50.11 0 50.98 0 52.05V54.05C0 55.13 0.870002 56 1.94 56H58.04C59.11 56 59.98 55.1301 59.98 54.0601V52.0601C59.98 50.9801 59.11 50.11 58.04 50.11H47.84L47.16 44.98H56.04C57.0858 44.9773 58.088 44.5601 58.8266 43.8196C59.5652 43.0791 59.98 42.0759 59.98 41.03V41.02Z" fill="url(#paint0_linear_2_13)"/>
</g>
<defs>
<linearGradient id="paint0_linear_2_13" x1="7.13" y1="6.04997" x2="29.99" y2="45.76" gradientUnits="userSpaceOnUse">
<stop stop-color="#43E11C"/>
<stop offset="1" stop-color="#283CEE"/>
</linearGradient>
<clipPath id="clip0_2_13">
<rect width="60" height="56" fill="white"/>
</clipPath>
</defs>
</svg>
