<svg width="47" height="56" viewBox="0 0 47 56" fill="none" xmlns="http://www.w3.org/2000/svg">
<g clip-path="url(#clip0_2_10)">
<path d="M16.25 53.7C15.9923 53.7188 15.7334 53.6843 15.4896 53.5986C15.2458 53.5129 15.0223 53.3779 14.833 53.2019C14.6437 53.026 14.4927 52.813 14.3895 52.576C14.2863 52.3391 14.233 52.0834 14.233 51.825C14.233 51.5665 14.2863 51.3109 14.3895 51.074C14.4927 50.8371 14.6437 50.624 14.833 50.448C15.0223 50.272 15.2458 50.1371 15.4896 50.0514C15.7334 49.9657 15.9923 49.9311 16.25 49.95C16.7486 49.95 17.2268 50.148 17.5793 50.5006C17.9319 50.8532 18.13 51.3313 18.13 51.83C18.13 52.3286 17.9319 52.8067 17.5793 53.1593C17.2268 53.5119 16.7486 53.71 16.25 53.71V53.7ZM12.28 2.69995H20.21C20.3307 2.69995 20.4464 2.74792 20.5317 2.83325C20.6171 2.91858 20.665 3.03436 20.665 3.15503C20.665 3.2757 20.6171 3.39136 20.5317 3.47668C20.4464 3.56201 20.3307 3.60999 20.21 3.60999H12.28C12.1607 3.60999 12.0462 3.56254 11.9618 3.47815C11.8774 3.39376 11.83 3.27938 11.83 3.16003C11.83 3.04069 11.8774 2.92619 11.9618 2.8418C12.0462 2.75741 12.1607 2.70996 12.28 2.70996V2.69995ZM31.36 45.15C30.83 45.15 30.3 45.1099 29.78 45.0699V48.64H2.70001V5.94995H29.77V9.68005C30.29 9.63005 30.81 9.59998 31.35 9.59998C31.7 9.59998 32.04 9.63002 32.38 9.65002V3.75C32.3774 2.75452 31.98 1.80075 31.2752 1.09778C30.5703 0.394803 29.6155 -3.52068e-06 28.62 0H3.85001C2.85452 -3.52068e-06 1.89964 0.394803 1.19479 1.09778C0.489944 1.80075 0.0926439 2.75452 0.0899963 3.75V51.83C0.0952697 52.8246 0.493411 53.777 1.19769 54.4794C1.90197 55.1818 2.85533 55.5773 3.85001 55.58H28.62C29.6147 55.5773 30.568 55.1818 31.2723 54.4794C31.9766 53.777 32.3747 52.8246 32.38 51.83V45.09C32.04 45.11 31.7 45.15 31.35 45.15H31.36ZM34.53 40.7C35.77 38.94 36.63 36.2 37.11 33.12C40.18 32.64 42.93 31.77 44.69 30.54C44.1001 33.0067 42.8385 35.2618 41.0451 37.0552C39.2518 38.8486 36.9967 40.1101 34.53 40.7V40.7ZM18.03 30.54C19.79 31.78 22.54 32.64 25.61 33.12C26.09 36.2 26.95 38.95 28.18 40.72C23.18 39.52 19.23 35.56 18.04 30.54H18.03ZM28.18 14.04C26.95 15.81 26.08 18.56 25.61 21.64C22.54 22.11 19.79 22.98 18.04 24.22C18.6282 21.7536 19.8864 19.4978 21.6757 17.7014C23.4651 15.905 25.716 14.6379 28.18 14.04V14.04ZM44.68 24.2C42.93 22.97 40.18 22.1 37.11 21.63C36.63 18.55 35.76 15.8 34.53 14.04C36.9957 14.632 39.2496 15.8943 41.0427 17.6874C42.8357 19.4804 44.098 21.7343 44.69 24.2H44.68ZM37.33 23.3C42.06 24.1 45.05 25.8 45.05 27.37C45.05 28.95 42.06 30.65 37.33 31.45C37.6164 28.7408 37.6164 26.0092 37.33 23.3V23.3ZM31.36 13.67C32.93 13.67 34.62 16.67 35.43 21.41C32.7242 21.1241 29.9958 21.1241 27.29 21.41C28.09 16.66 29.79 13.67 31.36 13.67ZM25.4 23.3C25.1168 26.0093 25.1168 28.7407 25.4 31.45C20.65 30.65 17.66 28.95 17.66 27.37C17.66 25.8 20.66 24.1 25.4 23.3V23.3ZM31.36 31.9399C29.83 31.9399 28.39 31.8499 27.05 31.6899C26.7192 28.8228 26.7192 25.9272 27.05 23.0601C29.9169 22.7253 32.8131 22.7253 35.68 23.0601C36.0139 25.927 36.0139 28.823 35.68 31.6899C34.34 31.8499 32.9 31.9399 31.36 31.9399ZM31.36 41.0601C29.79 41.0601 28.09 38.08 27.29 33.34C29.9958 33.6255 32.7242 33.6255 35.43 33.34C34.63 38.08 32.93 41.0601 31.36 41.0601ZM46.7 27.38V27.37C46.7 18.92 39.82 12.05 31.37 12.05C27.3058 12.0527 23.4086 13.6669 20.533 16.5388C17.6573 19.4107 16.0379 23.3059 16.03 27.37C16.03 35.82 22.91 42.7 31.37 42.7C39.82 42.7 46.69 35.82 46.7 27.38Z" fill="url(#paint0_linear_2_10)"/>
</g>
<defs>
<linearGradient id="paint0_linear_2_10" x1="23.395" y1="0" x2="23.395" y2="55.58" gradientUnits="userSpaceOnUse">
<stop stop-color="#43E11C"/>
<stop offset="1" stop-color="#283CEE"/>
</linearGradient>
<clipPath id="clip0_2_10">
<rect width="47" height="56" fill="white"/>
</clipPath>
</defs>
</svg>
