<svg xmlns="http://www.w3.org/2000/svg" xmlns:xlink="http://www.w3.org/1999/xlink" width="95" height="32"><defs><path id="qip6a" d="M296.4 5200.77v-19.47h.96c4.1 0 8.2-.05 12.3.02a15 15 0 0 1 3.72.53c2.53.7 4.1 2.47 4.84 4.95.76 2.56.78 5.18.18 7.78a7.39 7.39 0 0 1-6.49 6c-.95.13-1.93.22-2.9.22-4.02.03-8.04.02-12.06.02-.18 0-.36-.03-.55-.05m-27.5-9.77a3.13 3.13 0 1 1 6.25.01 3.13 3.13 0 0 1-6.25-.01zm.57-7.2a2.56 2.56 0 1 1 5.12.01 2.56 2.56 0 0 1-5.12 0zm0 14.4a2.56 2.56 0 1 1 5.12 0 2.56 2.56 0 0 1-5.12 0zm7.58-7.2a2.56 2.56 0 1 1 5.13 0 2.56 2.56 0 0 1-5.13 0zm.19 7.2a2.37 2.37 0 1 1 4.74 0 2.37 2.37 0 0 1-4.74 0zm0-14.4a2.37 2.37 0 1 1 4.74.02 2.37 2.37 0 0 1-4.74-.01zm-15.36 7.2a2.56 2.56 0 1 1 5.12 0 2.56 2.56 0 0 1-5.12 0zm.19 7.2a2.37 2.37 0 1 1 4.74 0 2.37 2.37 0 0 1-4.74 0zm0-14.4a2.37 2.37 0 1 1 4.74.01 2.37 2.37 0 0 1-4.74 0zm22 7.2a2 2 0 1 1 3.98 0 2 2 0 0 1-3.98 0zm.38-7.2a1.61 1.61 0 1 1 3.23 0 1.61 1.61 0 1 1-3.23 0zm.57-6.9a1.14 1.14 0 1 1 2.28 0 1.14 1.14 0 0 1-2.28 0zm0 28.2a1.14 1.14 0 1 1 2.28.01 1.14 1.14 0 0 1-2.28 0zm-.57-6.9a1.61 1.61 0 1 1 3.23 0 1.61 1.61 0 1 1-3.23 0zM256 5191a1.99 1.99 0 1 1 3.98 0 1.99 1.99 0 0 1-3.98 0zm.38-7.2a1.6 1.6 0 1 1 3.22.01 1.6 1.6 0 0 1-3.22 0zm.57-6.9a1.14 1.14 0 1 1 2.27 0 1.14 1.14 0 0 1-2.27 0zm0 28.2a1.14 1.14 0 1 1 2.27 0 1.14 1.14 0 0 1-2.27 0zm-.57-6.9a1.6 1.6 0 1 1 3.22 0 1.6 1.6 0 0 1-3.22 0zm13.66-21.21a1.99 1.99 0 1 1 3.98 0 1.99 1.99 0 0 1-3.98 0zm7.96 0a1.61 1.61 0 1 1 3.23 0 1.61 1.61 0 0 1-3.23 0zm-15.17 0a1.61 1.61 0 1 1 3.22 0 1.61 1.61 0 0 1-3.22 0zm7.21 28.02a1.99 1.99 0 1 1 3.98 0 1.99 1.99 0 0 1-3.98 0zm7.96 0a1.61 1.61 0 1 1 3.23 0 1.61 1.61 0 0 1-3.23 0zm-15.17 0a1.61 1.61 0 1 1 3.22 0 1.61 1.61 0 0 1-3.22 0zm69.53-23.66H351v4.25h-12.03v3.47h11.18v4.12h-11.2v7.54h-6.6zm-10.25-.1h6.48v19.62h-6.48zm-19.42 4.3c-.1.24-.15.31-.15.38 0 3.36 0 6.71-.02 10.07 0 .44.24.51.6.51 1.71 0 3.42.03 5.13-.02a3.9 3.9 0 0 0 3.75-2.84c.53-1.66.54-3.34.06-5.03-.44-1.53-1.49-2.58-3.01-2.77-2.12-.26-4.27-.22-6.36-.3"/></defs><g clip-path="url(#clip-7743F152-37F2-4E2A-8982-BEF65931F968)" transform="translate(-256 -5175)"><use fill="#b3b8c2" xlink:href="#qip6a"/></g></svg>