<svg xmlns="http://www.w3.org/2000/svg" xmlns:xlink="http://www.w3.org/1999/xlink" width="62" height="56"><defs><path id="7x4ra" d="M1394.33 1628.96a4.91 4.91 0 0 1-7.23-4.36 4.93 4.93 0 1 1 9.05 2.7l11.95 13.13a8.17 8.17 0 0 1 4.54-1.37l.23.01a8.21 8.21 0 0 1 5.66 2.48l8.4-6a6.57 6.57 0 1 1 1.43 2l-8.4 6a8.16 8.16 0 0 1-1.93 9.9 8.18 8.18 0 0 1-13.4-4.4l-16.86 1.17a4.92 4.92 0 1 1-.17-2.46l16.87-1.16c.13-1.7.79-3.26 1.8-4.5v-.01zm13.82 25.18c.69.45 1.44.8 2.24 1.03l-4.03 8.82a5.74 5.74 0 0 1-3.44 10.34 5.75 5.75 0 1 1 1.2-11.37zm30.5 10.33a5.75 5.75 0 1 1-10.83-2.7l-9.79-8.3a8.29 8.29 0 0 0 1.6-1.89l9.79 8.32a5.75 5.75 0 0 1 9.23 4.57zm-23.35-24.98a8.21 8.21 0 0 0-2.43-.43l1.22-6.74a4.08 4.08 0 0 1 1.9-7.72 4.09 4.09 0 1 1 .52 8.15z"/><linearGradient id="7x4rb" x1="1385.31" x2="1408.73" y1="1625.57" y2="1664.34" gradientUnits="userSpaceOnUse"><stop offset="0" stop-color="#189aff"/><stop offset="1" stop-color="#2d62fd"/></linearGradient></defs><use fill="url(#7x4rb)" xlink:href="#7x4ra" transform="translate(-1378 -1619)"/></svg>