<svg xmlns="http://www.w3.org/2000/svg" xmlns:xlink="http://www.w3.org/1999/xlink" width="56" height="56"><defs><path id="xafqa" d="M1095.28 1628.48l-2.43 2.56.63 3.55a.93.93 0 0 1-1.35 1l-3.04-1.62-2.99 1.7a.93.93 0 0 1-1.38-.94l.53-3.58-2.5-2.47a.93.93 0 0 1 .5-1.59l3.37-.56 1.47-3.25a.93.93 0 0 1 1.69-.02l1.56 3.19 3.39.46a.93.93 0 0 1 .55 1.57zm2.12-3.88v-1.87h1.87v1.87zm0 3.73v-1.86h1.87v1.86zm0 3.74v-1.87h1.87v1.87zm0 3.73v-1.87h1.87v1.87zm-18.66-11.2v-1.87h1.86v1.87zm0 3.73v-1.86h1.86v1.86zm0 3.74v-1.87h1.86v1.87zm0 3.73v-1.87h1.86v1.87zm18.66 3.73v-1.86h1.87v1.86zm3.74-14.93v-1.87h1.86v1.87zm0 3.73v-1.86h1.86v1.86zm0 3.74v-1.87h1.86v1.87zm0 3.73v-1.87h1.86v1.87zm0 3.73v-1.86h1.86v1.86zm-7.47 0v-1.86h1.87v1.86zm-3.73 0v-1.86h1.86v1.86zm-3.74 0v-1.86h1.87v1.86zm-3.73 0v-1.86h1.87v1.86zm-3.73 0v-1.86h1.86v1.86zm-3.74-14.93v-1.87h1.87v1.87zm0 3.73v-1.86h1.87v1.86zm0 3.74v-1.87h1.87v1.87zm0 3.73v-1.87h1.87v1.87zm0 3.73v-1.86h1.87v1.86zm22.4 3.74v-1.87h1.87v1.87zm3.74 0v-1.87h1.86v1.87zm-7.47 0v-1.87h1.87v1.87zm-3.73 0v-1.87h1.86v1.87zm-3.74 0v-1.87h1.87v1.87zm-3.73 0v-1.87h1.87v1.87zm-3.73 0v-1.87h1.86v1.87zm-3.74 0v-1.87h1.87v1.87zm-2.8-15.86c0 .51-.41.93-.93.93a2.8 2.8 0 0 0-2.8 2.8.93.93 0 1 1-1.87 0 2.8 2.8 0 0 0-2.8-2.8.93.93 0 0 1 0-1.87 2.8 2.8 0 0 0 2.8-2.8.93.93 0 1 1 1.87 0 2.8 2.8 0 0 0 2.8 2.8c.52 0 .93.42.93.94zm43.87 7.46c0 .51-.42.93-.93.93a2.8 2.8 0 0 0-2.8 2.8.93.93 0 0 1-1.87 0 2.8 2.8 0 0 0-2.8-2.8.93.93 0 0 1 0-1.87 2.8 2.8 0 0 0 2.8-2.8.93.93 0 0 1 1.87 0 2.8 2.8 0 0 0 2.8 2.8c.51 0 .93.42.93.94zm-8.4-14.94v12.14h-1.87v-11.2h-33.6v3.73h-1.86v-4.67c0-.51.41-.93.93-.93h35.47c.51 0 .93.42.93.93z"/><path id="xafqc" d="M1115.13 1673.13h-15.86v-10.6c0-.58-.12-1.16-.34-1.71 1.19-1.62 4.1-2.62 7.8-2.62 4.05 0 8.4 1.36 8.4 4.34zm-13.06-21.46a4.67 4.67 0 1 1 9.33 0 4.67 4.67 0 0 1-9.33 0zm-4.67 21.46h-16.8v-10.6c0-2.97 4.35-4.33 8.4-4.33 4.05 0 8.4 1.36 8.4 4.34zm-13.07-21.46a4.67 4.67 0 1 1 9.34 0 4.67 4.67 0 0 1-9.34 0zm-5.6 10.87v10.6h-15.86v-10.6c0-2.98 4.35-4.34 8.4-4.34 3.7 0 6.61 1 7.8 2.62a4.63 4.63 0 0 0-.34 1.72zm-12.13-10.87a4.67 4.67 0 1 1 9.33 0 4.67 4.67 0 0 1-9.33 0zm44.22 5.09a6.52 6.52 0 0 0-3.15-11.55v-7.54h-1.87v7.54a6.52 6.52 0 0 0-3.15 11.54 9.37 9.37 0 0 0-4.8 2.43 9.4 9.4 0 0 0-4.77-2.42 6.53 6.53 0 1 0-8.16 0 9.4 9.4 0 0 0-4.78 2.42 9.37 9.37 0 0 0-4.79-2.43 6.52 6.52 0 0 0-3.15-11.54v-15.01h-1.87v15a6.52 6.52 0 0 0-3.15 11.56c-3.81.86-6.18 2.97-6.18 5.78v11.53c0 .51.42.93.93.93h54.14c.51 0 .93-.42.93-.93v-11.53c0-2.81-2.37-4.92-6.18-5.78z"/><linearGradient id="xafqb" x1="1069.19" x2="1089.47" y1="1621.62" y2="1638.83" gradientUnits="userSpaceOnUse"><stop offset="0" stop-color="#189aff"/><stop offset="1" stop-color="#2d62fd"/></linearGradient><linearGradient id="xafqd" x1="1067.66" x2="1089" y1="1635.04" y2="1666.81" gradientUnits="userSpaceOnUse"><stop offset="0" stop-color="#189aff"/><stop offset="1" stop-color="#2d62fd"/></linearGradient></defs><use fill="url(#xafqb)" xlink:href="#xafqa" transform="translate(-1061 -1619)"/><use fill="url(#xafqd)" xlink:href="#xafqc" transform="translate(-1061 -1619)"/></svg>