<svg xmlns="http://www.w3.org/2000/svg" xmlns:xlink="http://www.w3.org/1999/xlink" width="24" height="18"><defs><path id="y5gqa" d="M1450.38 5936.66c0-.28-.11-.53-.33-.75l-2.1-2.53v-.38h6.6l5.06 11.16 4.46-11.16h6.28v.38l-1.83 1.73c-.16.12-.22.3-.19.52v12.74c-.03.22.03.4.19.52l1.78 1.73v.38h-8.9v-.38l1.82-1.78c.1-.09.15-.16.17-.2l.02-.31v-10.31l-5.06 12.93h-.7l-5.96-12.93v8.67c-.03.37.08.7.33.98l2.39 2.9v.38h-6.75v-.37l2.4-2.9c.27-.29.38-.62.32-1z"/></defs><use fill="#fff" xlink:href="#y5gqa" transform="translate(-1447 -5933)"/></svg>