<svg xmlns="http://www.w3.org/2000/svg" xmlns:xlink="http://www.w3.org/1999/xlink" width="60" height="56"><defs><path id="xskua" d="M780.9 1662.1l-.73-5.47a2.95 2.95 0 0 0-2.91-2.55h-4.5a2.95 2.95 0 0 0-2.92 2.55l-.73 5.48-.11-.01h-9.02a2.07 2.07 0 0 1-2.06-2.07V1642c0-1.14.92-2.07 2.06-2.07h30.05c1.14 0 2.06.93 2.06 2.07v18.04c0 1.14-.92 2.07-2.06 2.07h-9.13zm-10.83 7l1.63-12.22c.07-.53.53-.93 1.06-.93h4.5c.54 0 .99.4 1.06.93l1.63 12.22zm-4.14 0v-5.13h2.93l-.68 5.13h-2.25zm-8.89-1.06v1.06h-4.13v-3.13h2.07c1.13 0 2.06.93 2.06 2.07zm-18.16-13.67c0-1 .65-1.87 1.6-2.16l3.95-1.21a12.18 12.18 0 0 0 11.62 5.04v3.98a3.95 3.95 0 0 0 3.94 3.95h4.07v5.13h-5.13v-1.06a3.95 3.95 0 0 0-3.95-3.95h-10.02a.06.06 0 0 1-.06-.06v-6.01a.94.94 0 0 0-1.88 0v6c0 1.08.87 1.95 1.94 1.95h6.08v3.13h-9.09a3.07 3.07 0 0 1-3.07-3.07zm8.63-4.32a2.53 2.53 0 0 0 1.8-2.43v-1.09l.99.83c.6.5 1.36.78 2.14.78h3.07c.18 0 .35-.02.53-.05v6.05a10.3 10.3 0 0 1-9.7-3.73zm-.8-13.13h.12c.86 0 1.58-.61 1.72-1.46l.44-2.6c.5-.1.97-.31 1.38-.62a3.33 3.33 0 0 0 4 0 3.33 3.33 0 0 0 4.01 0c.4.3.88.52 1.38.61l.44 2.61c.1.62.51 1.1 1.06 1.33l-.2 1.25h-1.08a3.95 3.95 0 0 0-3.94 3.95v4.17c-.17.06-.35.1-.53.1h-3.07c-.34 0-.68-.12-.94-.34l-3.22-2.68c-.42-.35-.7-.84-.78-1.38zm16.74.66v.46h-.49l.17-1.03c.2.12.32.33.32.57zm-18.15-3.18v-.08a.94.94 0 0 0-.62-.97 1.44 1.44 0 0 1-.6-2.35.94.94 0 0 0 0-1.26 1.44 1.44 0 0 1 .7-2.38.94.94 0 0 0 .62-1.26 1.45 1.45 0 0 1 1.45-2c.42.03.8-.22.94-.62a1.46 1.46 0 0 1 1.4-.99c.26 0 .5-.09.68-.26a1.86 1.86 0 0 1 1.71-.49c.3.07.62-.02.85-.23a2.26 2.26 0 0 1 3.1 0c.22.21.54.3.84.23a1.84 1.84 0 0 1 1.79.57c.25.28.64.38 1 .26.15-.05.3-.08.43-.08.62 0 1.17.4 1.38.99a.94.94 0 0 0 1.06.61 1.47 1.47 0 0 1 1.32 2.01.94.94 0 0 0 .63 1.26c.64.17 1.09.75 1.09 1.4 0 .46-.21.79-.39.98a.94.94 0 0 0 0 1.26 1.44 1.44 0 0 1-.6 2.35.94.94 0 0 0-.62 1.05.66.66 0 0 1-.5.61l-.92.03-.54-3.24a.94.94 0 0 0-1.13-.77c-.48 0-.93-.25-1.2-.66a.94.94 0 0 0-1.56 0 1.46 1.46 0 0 1-2.45 0 .94.94 0 0 0-1.56 0 1.46 1.46 0 0 1-2.45 0 .94.94 0 0 0-1.56 0c-.27.4-.72.65-1.2.66l-.13-.01a.94.94 0 0 0-1 .78l-.54 3.24-.93-.03a.66.66 0 0 1-.5-.6zm-.14 5.45a.66.66 0 0 1-.67-.67v-1.6c0-.24.14-.45.33-.57l.45 2.84zm48.82 20.17V1642a3.95 3.95 0 0 0-3.94-3.95h-24.7v-.46c0-.6-.22-1.17-.58-1.6.26-.33.45-.72.53-1.14a3.34 3.34 0 0 0 1.23-4.47 3.3 3.3 0 0 0-1.2-4.46l.01-.35a3.35 3.35 0 0 0-2.88-3.31 3.34 3.34 0 0 0-3.33-1.6 3.73 3.73 0 0 0-2.69-.82 4.11 4.11 0 0 0-4.92 0 3.71 3.71 0 0 0-2.68.8c-1.05.1-1.99.71-2.53 1.62a3.35 3.35 0 0 0-2.86 3.66 3.34 3.34 0 0 0-1.2 4.46 3.3 3.3 0 0 0 1.22 4.47c.04.24.12.46.23.67a2.54 2.54 0 0 0-1.07 2.07v1.6c0 1.4 1.14 2.55 2.54 2.55h.42l.06.42c.16 1 .67 1.9 1.44 2.53l.34.29v2.65c0 .3-.18.55-.46.63l-7.03 2.16a4.12 4.12 0 0 0-2.92 3.96v11.66c0 1.16.4 2.23 1.07 3.07h-2.14c-1.07 0-1.94.87-1.94 1.94v2c0 1.08.87 1.95 1.94 1.95h56.1c1.07 0 1.94-.87 1.94-1.94v-2c0-1.08-.87-1.95-1.94-1.95h-10.2l-.68-5.13h8.88a3.95 3.95 0 0 0 3.94-3.95z"/><linearGradient id="xskub" x1="741.13" x2="763.99" y1="1625.05" y2="1664.76" gradientUnits="userSpaceOnUse"><stop offset="0" stop-color="#189aff"/><stop offset="1" stop-color="#2d62fd"/></linearGradient></defs><use fill="url(#xskub)" xlink:href="#xskua" transform="translate(-734 -1619)"/></svg>