<svg width="62" height="56" viewBox="0 0 62 56" fill="none" xmlns="http://www.w3.org/2000/svg">
<g clip-path="url(#clip0_2_21)">
<path d="M16.33 9.96001C15.5794 10.3624 14.7373 10.5627 13.886 10.5412C13.0347 10.5197 12.2036 10.2772 11.4744 9.83745C10.7451 9.39769 10.1427 8.77578 9.72643 8.03288C9.31017 7.28998 9.09429 6.45158 9.09997 5.60002C9.0988 4.83148 9.27735 4.07331 9.62133 3.38603C9.96531 2.69876 10.4653 2.10148 11.0812 1.64177C11.6971 1.18206 12.4118 0.872735 13.1686 0.73845C13.9253 0.604165 14.703 0.648612 15.4394 0.868333C16.1759 1.08805 16.8508 1.47688 17.4103 2.00383C17.9697 2.53079 18.3982 3.18122 18.6615 3.90324C18.9248 4.62527 19.0158 5.39888 18.927 6.16228C18.8382 6.92568 18.5721 7.65782 18.15 8.3001L30.1 21.4301C31.4446 20.5346 33.0245 20.0579 34.64 20.0601L34.87 20.07C37.0076 20.128 39.0383 21.0179 40.53 22.5501L48.93 16.5501C48.2445 15.0651 48.1374 13.3777 48.6299 11.818C49.1223 10.2584 50.1789 8.93844 51.5929 8.11638C53.0069 7.29432 54.6767 7.02925 56.2757 7.37297C57.8748 7.71669 59.2882 8.64454 60.2395 9.97502C61.1908 11.3055 61.6116 12.943 61.4197 14.5673C61.2277 16.1916 60.4369 17.6859 59.2017 18.758C57.9665 19.8301 56.3757 20.4029 54.7406 20.3644C53.1055 20.326 51.5434 19.6791 50.36 18.5501L41.96 24.5501C42.7944 26.1778 43.0578 28.0386 42.7078 29.8339C42.3578 31.6292 41.4148 33.2549 40.03 34.45C38.9606 35.3919 37.6637 36.0382 36.2677 36.3248C34.8717 36.6113 33.4252 36.5281 32.0713 36.0835C30.7173 35.639 29.503 34.8484 28.5486 33.7901C27.5942 32.7318 26.9328 31.4426 26.63 30.0501L9.77001 31.22C9.55061 32.397 8.90959 33.4536 7.96704 34.1918C7.02448 34.93 5.84502 35.2993 4.64977 35.2303C3.45453 35.1613 2.32548 34.6588 1.47412 33.8171C0.622755 32.9753 0.107558 31.852 0.0250186 30.6576C-0.0575202 29.4633 0.298271 28.2798 1.02575 27.3289C1.75323 26.378 2.80253 25.725 3.97692 25.4922C5.15132 25.2595 6.37025 25.463 7.40539 26.0645C8.44053 26.6661 9.22076 27.6245 9.59997 28.7601L26.47 27.6C26.6 25.9 27.26 24.34 28.27 23.1V23.09L16.33 9.96001ZM30.15 35.1401C30.84 35.5901 31.59 35.9401 32.39 36.1701L28.36 44.99C29.3268 45.7117 30.0417 46.7196 30.4031 47.8707C30.7645 49.0217 30.754 50.2573 30.3732 51.402C29.9923 52.5468 29.2605 53.5425 28.2816 54.2476C27.3027 54.9527 26.1265 55.3314 24.92 55.33C24.1127 55.3322 23.314 55.1644 22.5758 54.8374C21.8376 54.5105 21.1765 54.0318 20.6356 53.4324C20.0947 52.8331 19.6861 52.1265 19.4364 51.3588C19.1866 50.5911 19.1013 49.7795 19.186 48.9766C19.2708 48.1737 19.5237 47.3977 19.9282 46.699C20.3327 46.0003 20.8798 45.3947 21.5339 44.9214C22.188 44.4482 22.9344 44.1181 23.7246 43.9524C24.5148 43.7868 25.3309 43.7893 26.12 43.96L30.15 35.1401ZM60.65 45.47C60.6491 46.343 60.4494 47.2043 60.066 47.9886C59.6827 48.7729 59.1258 49.4597 58.4376 49.9967C57.7494 50.5338 56.9479 50.9071 56.094 51.0884C55.2401 51.2697 54.3561 51.2542 53.509 51.043C52.662 50.8318 51.8742 50.4305 51.2053 49.8696C50.5364 49.3086 50.004 48.6028 49.6484 47.8055C49.2929 47.0082 49.1236 46.1404 49.1533 45.268C49.183 44.3955 49.411 43.5413 49.8199 42.7701L40.03 34.47C40.655 33.9237 41.1943 33.2866 41.63 32.58L51.42 40.9001C52.2721 40.2522 53.2882 39.855 54.3538 39.7533C55.4193 39.6516 56.4921 39.8494 57.4514 40.3244C58.4107 40.7993 59.2183 41.5327 59.7834 42.4418C60.3485 43.3509 60.6486 44.3996 60.65 45.47V45.47ZM37.3 20.49C36.5163 20.2251 35.697 20.0802 34.87 20.0601L36.09 13.32C35.267 12.9035 34.6094 12.2206 34.2245 11.3824C33.8396 10.5442 33.75 9.60027 33.9705 8.70464C34.1909 7.809 34.7082 7.01442 35.4382 6.45061C36.1682 5.8868 37.0677 5.58696 37.99 5.60002C38.5427 5.5328 39.1035 5.57916 39.6377 5.73625C40.1719 5.89335 40.6684 6.15785 41.0968 6.5136C41.5252 6.86934 41.8763 7.30883 42.1289 7.8051C42.3815 8.30137 42.53 8.844 42.5654 9.3997C42.6009 9.95541 42.5225 10.5124 42.3351 11.0368C42.1476 11.5611 41.8552 12.0417 41.4755 12.449C41.0958 12.8563 40.6369 13.1819 40.1269 13.4056C39.617 13.6293 39.0668 13.7465 38.51 13.75L37.3 20.49Z" fill="url(#paint0_linear_2_21)"/>
</g>
<defs>
<linearGradient id="paint0_linear_2_21" x1="7.31" y1="6.57007" x2="30.7299" y2="45.3401" gradientUnits="userSpaceOnUse">
<stop stop-color="#43E11C"/>
<stop offset="1" stop-color="#283CEE"/>
</linearGradient>
<clipPath id="clip0_2_21">
<rect width="62" height="56" fill="white"/>
</clipPath>
</defs>
</svg>
