<svg xmlns="http://www.w3.org/2000/svg" xmlns:xlink="http://www.w3.org/1999/xlink" width="24" height="20"><defs><path id="jfnfa" d="M1255.52 5937.13c.03.12.04.32.04.6 0 2.25-.54 4.43-1.64 6.52a13.52 13.52 0 0 1-12.38 7.5c-2.74 0-5.26-.73-7.54-2.2.34.03.73.04 1.17.04 2.28 0 4.33-.7 6.14-2.1a4.9 4.9 0 0 1-4.6-3.38 6.25 6.25 0 0 0 2.2-.1 4.96 4.96 0 0 1-2.8-1.73 4.72 4.72 0 0 1-1.13-3.1v-.09c.7.41 1.43.63 2.2.66a5.46 5.46 0 0 1-1.59-1.78 4.73 4.73 0 0 1 .1-4.83 13.57 13.57 0 0 0 4.47 3.66c1.77.9 3.65 1.4 5.65 1.5-.06-.38-.1-.75-.1-1.13a4.88 4.88 0 0 1 2.45-4.26 4.75 4.75 0 0 1 2.43-.66c.72 0 1.39.14 2 .42.6.28 1.14.66 1.61 1.13 1.13-.22 2.17-.61 3.14-1.18a4.88 4.88 0 0 1-2.15 2.72c.93-.12 1.87-.39 2.81-.8-.69 1-1.52 1.87-2.48 2.58z"/></defs><use fill="#fff" xlink:href="#jfnfa" transform="translate(-1234 -5932)"/></svg>