<svg xmlns="http://www.w3.org/2000/svg" xmlns:xlink="http://www.w3.org/1999/xlink" width="47" height="56"><defs><path id="ywqga" d="M440.25 1672.7a1.88 1.88 0 1 1 0-3.75 1.88 1.88 0 0 1 0 3.76zm-3.97-51h7.93a.45.45 0 1 1 0 .91h-7.93a.45.45 0 0 1 0-.9zm19.08 42.45c-.53 0-1.06-.04-1.58-.08v3.57H426.7v-42.69h27.07v3.73c.52-.05 1.04-.08 1.58-.08.35 0 .69.03 1.03.05v-5.9a3.76 3.76 0 0 0-3.76-3.75h-24.77a3.76 3.76 0 0 0-3.76 3.75v48.08a3.77 3.77 0 0 0 3.76 3.75h24.77a3.77 3.77 0 0 0 3.76-3.75v-6.74c-.34.02-.68.06-1.03.06zm3.17-4.45c1.24-1.76 2.1-4.5 2.58-7.58 3.07-.48 5.82-1.35 7.58-2.58a13.73 13.73 0 0 1-10.16 10.16zm-16.5-10.16c1.76 1.24 4.51 2.1 7.58 2.58.48 3.08 1.34 5.83 2.57 7.6-5-1.2-8.95-5.16-10.14-10.18zm10.15-16.5c-1.23 1.77-2.1 4.52-2.57 7.6-3.07.47-5.82 1.34-7.57 2.58a13.76 13.76 0 0 1 10.14-10.18zm16.5 10.16c-1.75-1.23-4.5-2.1-7.57-2.57-.48-3.08-1.35-5.83-2.58-7.59a13.75 13.75 0 0 1 10.16 10.16zm-7.35-.9c4.73.8 7.72 2.5 7.72 4.07 0 1.58-2.99 3.28-7.72 4.08a38.76 38.76 0 0 0 0-8.15zm-5.97-9.63c1.57 0 3.26 3 4.07 7.74a38.73 38.73 0 0 0-8.14 0c.8-4.75 2.5-7.74 4.07-7.74zm-5.96 9.63a39.2 39.2 0 0 0 0 8.15c-4.75-.8-7.74-2.5-7.74-4.08 0-1.57 3-3.27 7.74-4.07zm5.96 8.64c-1.53 0-2.97-.09-4.31-.25a37.65 37.65 0 0 1 0-8.63 37.21 37.21 0 0 1 8.63 0 37.3 37.3 0 0 1 0 8.63c-1.34.16-2.78.25-4.32.25zm0 9.12c-1.57 0-3.27-2.98-4.07-7.72a38.78 38.78 0 0 0 8.14 0c-.8 4.74-2.5 7.72-4.07 7.72zm15.34-13.68v-.01c0-8.45-6.88-15.32-15.33-15.32a15.35 15.35 0 0 0-15.34 15.32c0 8.45 6.88 15.33 15.34 15.33 8.45 0 15.32-6.88 15.33-15.32z"/><linearGradient id="ywqgb" x1="429.64" x2="447.4" y1="1625" y2="1664.42" gradientUnits="userSpaceOnUse"><stop offset="0" stop-color="#189aff"/><stop offset="1" stop-color="#2d62fd"/></linearGradient></defs><use fill="url(#ywqgb)" xlink:href="#ywqga" transform="translate(-424 -1619)"/></svg>