<svg width="56" height="56" viewBox="0 0 56 56" fill="none" xmlns="http://www.w3.org/2000/svg">
<g clip-path="url(#clip0_2_17)">
<path d="M34.28 9.47998L31.85 12.04L32.48 15.59C32.5139 15.7626 32.4982 15.9412 32.4347 16.1052C32.3712 16.2692 32.2623 16.4119 32.121 16.5166C31.9796 16.6213 31.8115 16.6838 31.6361 16.6968C31.4607 16.7098 31.2852 16.6727 31.13 16.59L28.09 14.97L25.1 16.67C24.9488 16.7559 24.7765 16.7976 24.6028 16.7905C24.429 16.7835 24.2608 16.7279 24.1171 16.63C23.9734 16.5321 23.86 16.3959 23.7898 16.2368C23.7196 16.0777 23.6954 15.9021 23.72 15.73L24.25 12.15L21.75 9.68005C21.6249 9.56009 21.5358 9.40751 21.4928 9.23962C21.4498 9.07174 21.4546 8.89519 21.5066 8.72986C21.5586 8.56453 21.6558 8.41701 21.7871 8.30396C21.9185 8.1909 22.0788 8.11676 22.25 8.08997L25.62 7.53003L27.09 4.28003C27.1623 4.11749 27.2798 3.97913 27.4285 3.88135C27.5771 3.78357 27.7507 3.7305 27.9286 3.72839C28.1065 3.72629 28.2812 3.77515 28.4321 3.86938C28.583 3.96362 28.7038 4.09923 28.78 4.26001L30.34 7.44995L33.73 7.91003C33.9013 7.93187 34.0631 8.00099 34.1974 8.10962C34.3316 8.21825 34.433 8.36204 34.4901 8.52502C34.5472 8.68801 34.5577 8.86369 34.5206 9.03235C34.4835 9.20101 34.4003 9.35601 34.28 9.47998V9.47998ZM36.4 5.59998V3.72998H38.27V5.59998H36.4ZM36.4 9.32996V7.46997H38.27V9.32996H36.4ZM36.4 13.0699V11.2H38.27V13.0699H36.4ZM36.4 16.8V14.9301H38.27V16.8H36.4ZM17.74 5.59998V3.72998H19.6V5.59998H17.74ZM17.74 9.32996V7.46997H19.6V9.32996H17.74ZM17.74 13.0699V11.2H19.6V13.0699H17.74ZM17.74 16.8V14.9301H19.6V16.8H17.74ZM36.4 20.53V18.67H38.27V20.53H36.4ZM40.14 5.59998V3.72998H42V5.59998H40.14ZM40.14 9.32996V7.46997H42V9.32996H40.14ZM40.14 13.0699V11.2H42V13.0699H40.14ZM40.14 16.8V14.9301H42V16.8H40.14ZM40.14 20.53V18.67H42V20.53H40.14ZM32.67 20.53V18.67H34.54V20.53H32.67ZM28.9399 20.53V18.67H30.8V20.53H28.9399ZM25.2 20.53V18.67H27.0699V20.53H25.2ZM21.47 20.53V18.67H23.34V20.53H21.47ZM17.74 20.53V18.67H19.6V20.53H17.74ZM14 5.59998V3.72998H15.87V5.59998H14ZM14 9.32996V7.46997H15.87V9.32996H14ZM14 13.0699V11.2H15.87V13.0699H14ZM14 16.8V14.9301H15.87V16.8H14ZM14 20.53V18.67H15.87V20.53H14ZM36.4 24.27V22.4H38.27V24.27H36.4ZM40.14 24.27V22.4H42V24.27H40.14ZM32.67 24.27V22.4H34.54V24.27H32.67ZM28.9399 24.27V22.4H30.8V24.27H28.9399ZM25.2 24.27V22.4H27.0699V24.27H25.2ZM21.47 24.27V22.4H23.34V24.27H21.47ZM17.74 24.27V22.4H19.6V24.27H17.74ZM14 24.27V22.4H15.87V24.27H14ZM11.2 8.41003C11.2 8.92003 10.79 9.33997 10.27 9.33997C9.52741 9.33997 8.81526 9.63505 8.29016 10.1602C7.76506 10.6853 7.46997 11.3974 7.46997 12.14C7.46997 12.388 7.37151 12.6258 7.19617 12.8011C7.02082 12.9765 6.78301 13.075 6.53503 13.075C6.28706 13.075 6.04925 12.9765 5.8739 12.8011C5.69855 12.6258 5.59998 12.388 5.59998 12.14C5.59998 11.3974 5.30501 10.6853 4.77991 10.1602C4.25481 9.63505 3.54265 9.33997 2.80005 9.33997C2.55207 9.33997 2.31426 9.24151 2.13892 9.06616C1.96357 8.89082 1.86499 8.65301 1.86499 8.40503C1.86499 8.15705 1.96357 7.91924 2.13892 7.7439C2.31426 7.56855 2.55207 7.46997 2.80005 7.46997C3.54265 7.46997 4.25481 7.175 4.77991 6.6499C5.30501 6.1248 5.59998 5.41265 5.59998 4.67004C5.59998 4.42207 5.69855 4.18426 5.8739 4.00891C6.04925 3.83356 6.28706 3.73499 6.53503 3.73499C6.78301 3.73499 7.02082 3.83356 7.19617 4.00891C7.37151 4.18426 7.46997 4.42207 7.46997 4.67004C7.46997 5.41265 7.76506 6.1248 8.29016 6.6499C8.81526 7.175 9.52741 7.46997 10.27 7.46997C10.79 7.46997 11.2 7.89003 11.2 8.41003V8.41003ZM55.0699 15.87C55.0699 16.38 54.65 16.8 54.14 16.8C53.3974 16.8 52.6853 17.095 52.1602 17.6201C51.6351 18.1452 51.34 18.8574 51.34 19.6C51.34 19.848 51.2415 20.0858 51.0662 20.2611C50.8908 20.4365 50.653 20.535 50.405 20.535C50.1571 20.535 49.9192 20.4365 49.7439 20.2611C49.5685 20.0858 49.47 19.848 49.47 19.6C49.47 18.8574 49.175 18.1452 48.6499 17.6201C48.1248 17.095 47.4127 16.8 46.67 16.8C46.4221 16.8 46.1843 16.7015 46.0089 16.5261C45.8336 16.3508 45.735 16.113 45.735 15.865C45.735 15.617 45.8336 15.3792 46.0089 15.2039C46.1843 15.0285 46.4221 14.9301 46.67 14.9301C47.4127 14.9301 48.1248 14.635 48.6499 14.1099C49.175 13.5848 49.47 12.8726 49.47 12.13C49.47 11.882 49.5685 11.6442 49.7439 11.4689C49.9192 11.2935 50.1571 11.1949 50.405 11.1949C50.653 11.1949 50.8908 11.2935 51.0662 11.4689C51.2415 11.6442 51.34 11.882 51.34 12.13C51.34 12.8726 51.6351 13.5848 52.1602 14.1099C52.6853 14.635 53.3974 14.9301 54.14 14.9301C54.65 14.9301 55.0699 15.35 55.0699 15.87V15.87ZM46.67 0.930054V13.0699H44.8V1.87H11.2V5.59998H9.33997V0.930054C9.33997 0.420054 9.75002 0 10.27 0H45.74C46.25 0 46.67 0.420054 46.67 0.930054V0.930054Z" fill="url(#paint0_linear_2_17)"/>
<path d="M54.13 54.13H38.27V43.53C38.27 42.95 38.1501 42.3699 37.9301 41.8199C39.1201 40.1999 42.03 39.2 45.73 39.2C49.78 39.2 54.13 40.56 54.13 43.54V54.13ZM41.0699 32.67C41.0407 32.0393 41.1398 31.4091 41.3611 30.8176C41.5823 30.2262 41.9212 29.6857 42.3573 29.229C42.7934 28.7723 43.3175 28.4088 43.8981 28.1604C44.4786 27.912 45.1035 27.7839 45.735 27.7839C46.3664 27.7839 46.9913 27.912 47.5719 28.1604C48.1525 28.4088 48.6766 28.7723 49.1127 29.229C49.5487 29.6857 49.8876 30.2262 50.1089 30.8176C50.3301 31.4091 50.4292 32.0393 50.4 32.67C50.3445 33.8699 49.8287 35.0022 48.96 35.8317C48.0912 36.6611 46.9361 37.1239 45.735 37.1239C44.5338 37.1239 43.3789 36.6611 42.5101 35.8317C41.6414 35.0022 41.1255 33.8699 41.0699 32.67V32.67ZM36.4 54.13H19.6V43.53C19.6 40.56 23.95 39.2 28 39.2C32.05 39.2 36.4 40.56 36.4 43.54V54.13ZM23.33 32.67C23.33 32.0568 23.4507 31.4494 23.6854 30.8828C23.9201 30.3162 24.2641 29.8014 24.6978 29.3678C25.1314 28.9341 25.6463 28.5902 26.2129 28.3555C26.7795 28.1208 27.3867 28 28 28C28.6133 28 29.2205 28.1208 29.7871 28.3555C30.3537 28.5902 30.8686 28.9341 31.3022 29.3678C31.7359 29.8014 32.0799 30.3162 32.3146 30.8828C32.5493 31.4494 32.67 32.0568 32.67 32.67C32.67 33.9086 32.178 35.0964 31.3022 35.9722C30.4265 36.848 29.2386 37.34 28 37.34C26.7614 37.34 25.5735 36.848 24.6978 35.9722C23.822 35.0964 23.33 33.9086 23.33 32.67V32.67ZM17.73 43.54V54.14H1.87V43.54C1.87 40.56 6.22002 39.2 10.27 39.2C13.97 39.2 16.8799 40.1999 18.0699 41.8199C17.8481 42.3664 17.7327 42.9503 17.73 43.54V43.54ZM5.59998 32.67C5.57076 32.0393 5.66985 31.4091 5.89111 30.8176C6.11237 30.2262 6.45127 29.6857 6.88733 29.229C7.32339 28.7723 7.84754 28.4088 8.4281 28.1604C9.00866 27.912 9.63355 27.7839 10.265 27.7839C10.8965 27.7839 11.5214 27.912 12.1019 28.1604C12.6825 28.4088 13.2066 28.7723 13.6427 29.229C14.0788 29.6857 14.4177 30.2262 14.6389 30.8176C14.8602 31.4091 14.9593 32.0393 14.9301 32.67C14.8745 33.8699 14.3586 35.0022 13.4899 35.8317C12.6211 36.6611 11.4662 37.1239 10.265 37.1239C9.06386 37.1239 7.90881 36.6611 7.04004 35.8317C6.17127 35.0022 5.65554 33.8699 5.59998 32.67V32.67ZM49.8199 37.76C50.8147 36.9657 51.5552 35.8975 51.9501 34.6873C52.3449 33.477 52.3768 32.1776 52.0419 30.9495C51.7069 29.7213 51.0198 28.6181 50.0652 27.7759C49.1106 26.9337 47.9304 26.3893 46.67 26.21V18.67H44.8V26.21C43.5421 26.391 42.3643 26.9359 41.4119 27.7775C40.4594 28.619 39.7738 29.7204 39.4391 30.9465C39.1044 32.1726 39.1354 33.4699 39.5282 34.6786C39.921 35.8873 40.6585 36.9549 41.65 37.75C39.8469 38.0734 38.178 38.9183 36.85 40.1801C35.5279 38.9285 33.8708 38.0877 32.08 37.76C33.1364 36.9146 33.9042 35.7619 34.2771 34.4613C34.65 33.1607 34.6097 31.7764 34.1617 30.4996C33.7138 29.2229 32.8803 28.1168 31.7765 27.3344C30.6727 26.5519 29.353 26.1315 28 26.1315C26.647 26.1315 25.3273 26.5519 24.2235 27.3344C23.1197 28.1168 22.2862 29.2229 21.8383 30.4996C21.3903 31.7764 21.35 33.1607 21.7229 34.4613C22.0958 35.7619 22.8636 36.9146 23.92 37.76C22.1257 38.0859 20.4649 38.9268 19.14 40.1801C17.8147 38.92 16.1496 38.0752 14.35 37.75C15.3415 36.9549 16.079 35.8873 16.4718 34.6786C16.8646 33.4699 16.8956 32.1726 16.5609 30.9465C16.2262 29.7204 15.5406 28.619 14.5881 27.7775C13.6357 26.9359 12.4579 26.391 11.2 26.21V11.2H9.32996V26.2C8.06727 26.3775 6.88437 26.9214 5.92761 27.7643C4.97085 28.6072 4.28225 29.7121 3.94702 30.9424C3.61179 32.1726 3.64462 33.4742 4.0415 34.6859C4.43839 35.8977 5.18198 36.9665 6.18005 37.76C2.37005 38.62 0 40.73 0 43.54V55.0699C0 55.5799 0.420054 56 0.930054 56H55.0699C55.5799 56 56 55.5799 56 55.0699V43.54C56 40.73 53.6299 38.62 49.8199 37.76Z" fill="url(#paint1_linear_2_17)"/>
</g>
<defs>
<linearGradient id="paint0_linear_2_17" x1="8.18998" y1="2.62" x2="28.47" y2="19.83" gradientUnits="userSpaceOnUse">
<stop stop-color="#43E11C"/>
<stop offset="1" stop-color="#2D62FD"/>
</linearGradient>
<linearGradient id="paint1_linear_2_17" x1="6.66" y1="16.04" x2="28" y2="47.81" gradientUnits="userSpaceOnUse">
<stop stop-color="#43E11C"/>
<stop offset="1" stop-color="#283CEE"/>
</linearGradient>
<clipPath id="clip0_2_17">
<rect width="56" height="56" fill="white"/>
</clipPath>
</defs>
</svg>
