<svg width="236" height="216" viewBox="0 0 236 216" fill="none" xmlns="http://www.w3.org/2000/svg">
<g filter="url(#filter0_i_17_247)">
<ellipse cx="117.902" cy="108.072" rx="117.448" ry="107.307" fill="#2086FE"/>
</g>
<path d="M232.85 108.072C232.85 165.748 181.603 212.879 117.902 212.879C54.2003 212.879 2.95355 165.748 2.95355 108.072C2.95355 50.3962 54.2003 3.26477 117.902 3.26477C181.603 3.26477 232.85 50.3962 232.85 108.072Z" stroke="#43E11C" stroke-width="5"/>
<path d="M161.114 75.6673L142.278 57.0745V75.6673H161.114Z" fill="white"/>
<path d="M131.401 83.1045V52.8247H72.4736V162.257H165.546V85.2294H148.372H135.63L131.401 83.1045Z" fill="#FFFEFE"/>
<path d="M89.6477 74.6048L89.0937 72.4799C89.2784 71.2404 89.5369 69.0801 89.0937 70.355V69.8238L89.6477 68.7614L90.7557 67.6989L92.4177 66.6365H93.5257H96.2957H99.6197H104.052H106.268H108.484H111.254H115.132L116.24 67.1677L118.456 69.2926L119.01 70.355V73.5424L117.902 75.1361L115.686 76.1985H92.4177L89.6477 74.6048Z" fill="#2086FE"/>
<path d="M145.602 95.3226L148.372 99.0411V100.104L147.264 101.697L146.71 103.291L143.386 104.353L96.2956 103.822H90.7556L88.5396 103.291L87.4316 101.697L86.8776 100.104V99.0411L87.4316 96.9163L88.5396 95.3226L90.2016 94.2601H140.616L145.602 95.3226Z" fill="#2086FE"/>
<path d="M90.7556 114.978L88.5396 116.572C88.2583 116.706 87.6983 117.191 87.2516 118.165L86.8776 120.29V120.821L87.4316 122.415L88.5396 123.477L90.2016 124.54H143.386L145.602 123.477L147.264 122.415L148.372 120.29L147.264 118.165L146.71 116.572L144.494 114.978H90.7556Z" fill="#2086FE"/>
<path d="M145.602 116.571L148.372 120.29V121.352L147.264 122.946L146.71 124.54L143.386 125.602L96.2956 125.071H90.7556L88.5396 124.54L87.4316 122.946L86.8776 121.352V120.29L87.4316 118.165L88.5396 116.571L90.2016 115.509H140.616L145.602 116.571Z" fill="#2086FE"/>
<path d="M90.7556 136.227L88.5396 137.82C88.2583 137.955 87.6983 138.44 87.2516 139.414L86.8776 141.539V142.07L87.4316 143.664L88.5396 144.726L90.2016 145.789H143.386L145.602 144.726L147.264 143.664L148.372 141.539L147.264 139.414L146.71 137.82L144.494 136.227H90.7556Z" fill="#2086FE"/>
<defs>
<filter id="filter0_i_17_247" x="0.453552" y="0.764771" width="234.896" height="218.614" filterUnits="userSpaceOnUse" color-interpolation-filters="sRGB">
<feFlood flood-opacity="0" result="BackgroundImageFix"/>
<feBlend mode="normal" in="SourceGraphic" in2="BackgroundImageFix" result="shape"/>
<feColorMatrix in="SourceAlpha" type="matrix" values="0 0 0 0 0 0 0 0 0 0 0 0 0 0 0 0 0 0 127 0" result="hardAlpha"/>
<feOffset dy="4"/>
<feGaussianBlur stdDeviation="2"/>
<feComposite in2="hardAlpha" operator="arithmetic" k2="-1" k3="1"/>
<feColorMatrix type="matrix" values="0 0 0 0 0 0 0 0 0 0 0 0 0 0 0 0 0 0 0.25 0"/>
<feBlend mode="normal" in2="shape" result="effect1_innerShadow_17_247"/>
</filter>
</defs>
</svg>
