<svg width="235" height="215" viewBox="0 0 235 215" fill="none" xmlns="http://www.w3.org/2000/svg">
<path d="M232.396 107.307C232.396 164.983 181.15 212.114 117.448 212.114C53.7468 212.114 2.5 164.983 2.5 107.307C2.5 49.6315 53.7468 2.5 117.448 2.5C181.15 2.5 232.396 49.6315 232.396 107.307Z" fill="#2086FE" stroke="#43E11C" stroke-width="5"/>
<path d="M67.716 56.5051H46.3592V54.8844V49.4822H78.1206L83.0491 77.5739H144.381V79.1945V81.8957L145.477 86.2175L146.572 90.5393L148.762 95.4013L152.596 100.263L156.429 105.125L161.357 108.367L170.119 111.608V113.769L165.738 129.976H91.8108L96.7393 145.102H161.357V153.746H85.2395L67.716 56.5051Z" fill="#FFFEFE"/>
<g style="mix-blend-mode:lighten">
<ellipse cx="179.976" cy="78.6545" rx="25.7377" ry="25.3906" fill="#FFFDFD"/>
</g>
<path d="M194.762 67.3097H189.833L177.786 81.8958H177.238L167.381 73.7924L163.548 77.574L175.595 89.4589H179.976L194.214 72.1717L194.762 71.0913V67.3097Z" fill="#2086FE"/>
</svg>
