<svg width="235" height="215" viewBox="0 0 235 215" fill="none" xmlns="http://www.w3.org/2000/svg">
<g filter="url(#filter0_i_17_228)">
<ellipse cx="117.448" cy="107.307" rx="117.448" ry="107.307" fill="#2086FE"/>
</g>
<path d="M232.396 107.307C232.396 164.983 181.15 212.114 117.448 212.114C53.7468 212.114 2.5 164.983 2.5 107.307C2.5 49.6315 53.7468 2.5 117.448 2.5C181.15 2.5 232.396 49.6315 232.396 107.307Z" stroke="#43E11C" stroke-width="5"/>
<path d="M153.826 127.546L152.673 131.354V136.793V139.513L153.826 142.233L156.707 144.953L159.589 147.128L163.623 148.76H168.81L173.42 147.672L176.878 144.953L179.184 143.321L180.913 140.057L182.065 137.881V133.53L180.913 129.722L179.184 126.458L176.878 124.282L173.42 122.107L169.963 121.019H164.776L160.742 122.107L157.284 124.282L153.826 127.546Z" fill="white" stroke="white"/>
<path d="M75.8239 129.175L74.6713 132.543V137.424V140.253L75.8239 143.081L78.7055 145.91L81.587 148.173L85.6212 149.87H90.808L95.4186 148.739L98.8764 145.91L101.182 144.213L102.911 140.819L104.063 138.556V134.03L102.911 130.07L101.182 126.676L98.8764 124.413L95.4186 122.15L91.9607 121.019H86.7739L82.7397 122.15L79.2818 124.413L75.8239 129.175Z" fill="white"/>
<path d="M74.6713 132.543L75.8239 129.175L79.2818 124.413L82.7397 122.15L86.7739 121.019H91.9607L95.4186 122.15L98.8764 124.413L101.182 126.676L102.911 130.07L104.063 134.03V138.556L102.911 140.819L101.182 144.213L98.8764 145.91L95.4186 148.739L90.808 149.87H85.6212L81.587 148.173L78.7055 145.91L75.8239 143.081L74.6713 140.253V137.424V131.767" stroke="#FFFAFA"/>
<path d="M82.5845 132.26V134.576V137.471L83.7688 139.208L85.5453 141.524L88.506 142.103L92.0589 140.945L93.8353 139.208L95.0196 136.892V133.418L93.8353 131.681L92.651 129.944L90.8746 128.786H86.7296L84.361 130.523L82.5845 132.26Z" fill="#2086FE" stroke="white"/>
<path d="M87.6419 94.3867H38.5204L36.2357 97.9115V101.436L39.6627 104.374H87.6419L90.4978 101.436V96.1491L87.6419 94.3867Z" fill="white"/>
<g style="mix-blend-mode:lighten">
<path d="M55.4535 53.9089V66.7524H104.253L105.009 68.4276L109.043 71.7781L109.619 73.4534V75.1286L109.043 79.5959L107.89 81.8296L105.009 84.0632L102.128 84.6216H56.6059L55.4535 85.7384V89.6473L57.1821 91.3226H91.1796L94.6369 94.6731L95.2132 96.3483L94.6369 100.816L94.0607 104.166L92.332 106.4L88.8746 107.517H83.1124H55.4535V129.853L56.6059 132.645L59.4871 135.437L62.3682 136.554L70.4354 135.996V132.645V129.853L71.5878 126.503L73.8927 124.269L76.1976 121.477L79.655 119.243L82.5361 117.568L85.4173 117.01H92.332L94.6369 117.568L98.0943 119.243L102.128 122.035L105.009 124.269L106.738 128.178L107.89 130.97V133.762V135.996L108.466 136.554H147.65V133.762L148.802 129.853L149.955 126.503L151.683 123.152L153.988 121.477L156.869 119.243L160.327 117.568L163.208 117.01H169.546L173.58 117.568L175.885 119.243L179.919 122.035L182.8 124.269L183.952 126.503L186.257 129.853V136.554H187.41H196.053L199.51 135.437L202.391 133.762L203.544 130.97V112.542V107.517V104.724V103.049L201.239 100.816L198.934 99.1404L196.053 98.582L193.172 98.0235L190.867 97.4651L188.562 96.3483L187.41 94.6731L186.257 94.1146L185.105 91.881L183.952 89.6473L182.8 87.4137L181.647 84.6216L179.919 81.8296L178.766 79.5959L175.885 75.687L173.58 73.4534L171.275 71.7781H169.546L167.242 71.2197H155.141V70.1029L154.565 55.0257L151.683 51.1168L148.802 50L64.6731 50.5584H59.4871L57.1821 52.2337L55.4535 53.9089Z" fill="#FFFCFC"/>
<path d="M55.4535 53.9089V66.7524H104.253L105.009 68.4276L109.043 71.7781L109.619 73.4534V75.1286L109.043 79.5959L107.89 81.8296L105.009 84.0632L102.128 84.6216H56.6059L55.4535 85.7384V89.6473L57.1821 91.3226H91.1796L94.6369 94.6731L95.2132 96.3483L94.6369 100.816L94.0607 104.166L92.332 106.4L88.8746 107.517H83.1124H55.4535V129.853L56.6059 132.645L59.4871 135.437L62.3682 136.554L70.4354 135.996V132.645V129.853L71.5878 126.503L73.8927 124.269L76.1976 121.477L79.655 119.243L82.5361 117.568L85.4173 117.01H92.332L94.6369 117.568L98.0943 119.243L102.128 122.035L105.009 124.269L106.738 128.178L107.89 130.97V133.762V135.996L108.466 136.554H147.65V133.762L148.802 129.853L149.955 126.503L151.683 123.152L153.988 121.477L156.869 119.243L160.327 117.568L163.208 117.01H169.546L173.58 117.568L175.885 119.243L179.919 122.035L182.8 124.269L183.952 126.503L186.257 129.853V136.554H187.41H196.053L199.51 135.437L202.391 133.762L203.544 130.97V112.542V107.517V104.724V103.049L201.239 100.816L198.934 99.1404L196.053 98.582L193.172 98.0235L190.867 97.4651L188.562 96.3483L187.41 94.6731L186.257 94.1146L185.105 91.881L183.952 89.6473L182.8 87.4137L181.647 84.6216L179.919 81.8296L178.766 79.5959L175.885 75.687L173.58 73.4534L171.275 71.7781H169.546L167.242 71.2197H155.141V70.1029L154.565 55.0257L151.683 51.1168L148.802 50L64.6731 50.5584H59.4871L57.1821 52.2337L55.4535 53.9089Z" stroke="black"/>
</g>
<path d="M154.934 96.6062V77.7418H165.571L167.934 78.8198L170.889 80.4367L173.253 82.5927L175.025 85.2876L180.935 96.0672L180.344 96.6062H154.934Z" fill="#2086FE"/>
<path d="M102.04 71.0837H47.8021L45.2794 74.6086V78.1334L49.0634 81.0707H102.04L105.194 78.1334V72.8462L102.04 71.0837Z" fill="white"/>
<path d="M161.717 132.26V134.576V137.471L162.901 139.208L164.678 141.524L167.638 142.103L171.191 140.945L172.968 139.208L174.152 136.892V133.418L172.968 131.681L171.783 129.944L170.007 128.786H165.862L163.493 130.523L161.717 132.26Z" fill="#2086FE" stroke="white"/>
<defs>
<filter id="filter0_i_17_228" x="0" y="0" width="234.896" height="218.614" filterUnits="userSpaceOnUse" color-interpolation-filters="sRGB">
<feFlood flood-opacity="0" result="BackgroundImageFix"/>
<feBlend mode="normal" in="SourceGraphic" in2="BackgroundImageFix" result="shape"/>
<feColorMatrix in="SourceAlpha" type="matrix" values="0 0 0 0 0 0 0 0 0 0 0 0 0 0 0 0 0 0 127 0" result="hardAlpha"/>
<feOffset dy="4"/>
<feGaussianBlur stdDeviation="2"/>
<feComposite in2="hardAlpha" operator="arithmetic" k2="-1" k3="1"/>
<feColorMatrix type="matrix" values="0 0 0 0 0 0 0 0 0 0 0 0 0 0 0 0 0 0 0.25 0"/>
<feBlend mode="normal" in2="shape" result="effect1_innerShadow_17_228"/>
</filter>
</defs>
</svg>
