<svg width="24" height="29" viewBox="0 0 24 29" fill="none" xmlns="http://www.w3.org/2000/svg">
<path d="M4.97872 3.31349L3.80851 4.36508L2.17021 5.8373L1 8.57143V10.8849L1.23404 12.9881L2.17021 15.5119L3.10638 17.8254L4.97872 20.3492L11.5319 27.5L12.234 27.0794L13.4043 26.2381L14.5745 24.9762L18.7872 20.3492L19.7234 18.877L20.6596 17.1944L21.8298 15.5119L22.5319 12.9881L23 10.6746V9.83333V8.57143L22.5319 7.30952L21.8298 5.8373L20.6596 4.36508L18.7872 2.89286L16.6809 1.63095L15.0426 1H13.4043H11.0638H9.65957L7.78723 1.63095L6.14894 2.47222L4.97872 3.31349Z" stroke="#FFFEFE" stroke-width="2"/>
<path d="M9.89365 7.09935L8.48939 8.15093L7.55322 9.83347V11.3057L8.25535 12.7779L9.19152 13.6192L10.5958 14.2501H12.4681L14.1064 13.6192L15.5107 12.7779L16.2128 11.9366V10.4644V8.9922L15.5107 7.94062L14.1064 7.09935L12.7022 6.67871H11.0639L9.89365 7.09935Z" stroke="#FFFEFE" stroke-width="2"/>
</svg>
