<svg width="198" height="106" viewBox="0 0 198 106" fill="none" xmlns="http://www.w3.org/2000/svg">
<path d="M15.9703 15.31H35.9903C43.5436 15.31 49.704 17.1433 54.47 20.81C59.237 24.4033 61.62 30.16 61.62 38.08C61.62 45.9267 59.237 51.72 54.47 55.46C49.704 59.127 43.5436 60.96 35.9903 60.96H21.2503V85.82C21.2503 88.607 19.8203 90 16.9603 90H15.9703C13.1103 90 11.6803 88.607 11.6803 85.82V19.6C11.6803 16.74 13.1103 15.31 15.9703 15.31ZM21.2503 23.45V52.71H36.1003C46.88 52.71 52.27 47.8333 52.27 38.08C52.27 28.3267 46.88 23.45 36.1003 23.45H21.2503Z" fill="#262020"/>
<path d="M140.15 15.31H160.17C167.723 15.31 173.883 17.1433 178.65 20.81C183.417 24.4033 185.8 30.16 185.8 38.08C185.8 45.9267 183.417 51.72 178.65 55.46C173.883 59.127 167.723 60.96 160.17 60.96H145.43V85.82C145.43 88.607 144 90 141.14 90H140.15C137.29 90 135.86 88.607 135.86 85.82V19.6C135.86 16.74 137.29 15.31 140.15 15.31ZM145.43 23.45V52.71H160.28C171.06 52.71 176.45 47.8333 176.45 38.08C176.45 28.3267 171.06 23.45 160.28 23.45H145.43Z" fill="#283CEE"/>
<path d="M50.85 90.3C49.85 90.3 48.95 90 48.15 89.4C47.25 88.9 46.8 87.85 46.8 86.25C46.8 84.35 47.65 82.9 49.35 81.9C51.05 80.8 52.6 80.1 54 79.8C55.1 79.6 56.2 79.45 57.3 79.35C58.4 79.25 59.5 79.2 60.6 79.2C61.6 79.2 62.55 79.25 63.45 79.35C64.45 79.35 65.4 79.4 66.3 79.5C70 76.6 73.55 73.65 76.95 70.65C80.45 67.55 83.9 64.45 87.3 61.35C88.8 59.85 90.3 58.4 91.8 57C93.4 55.5 94.9 53.95 96.3 52.35C98.3 50.15 100.4 47.5 102.6 44.4C104.8 41.2 106.7 37.9 108.3 34.5C109.9 31 110.7 27.75 110.7 24.75C110.7 22.05 109.9 20.1 108.3 18.9C106.7 17.6 104.75 16.95 102.45 16.95C101.95 16.95 101.4 16.95 100.8 16.95C100.3 16.95 99.8 17.05 99.3 17.25C94.7 18.35 90.3 20.25 86.1 22.95C82 25.65 78.7 28.75 76.2 32.25C73.8 35.75 72.8 39.3 73.2 42.9C73.3 43.2 73.55 43.95 73.95 45.15C74.35 46.35 74.35 47 73.95 47.1C73.45 47.2 72.95 46.9 72.45 46.2C72.05 45.4 71.7 44.5 71.4 43.5C71.1 42.5 70.9 41.8 70.8 41.4C70.5 38.2 71.3 35.15 73.2 32.25C75.2 29.35 77.75 26.75 80.85 24.45C84.05 22.05 87.35 20.05 90.75 18.45C94.15 16.85 97.05 15.8 99.45 15.3C101.05 14.9 102.9 14.7 105 14.7C108.2 14.7 111.05 15.55 113.55 17.25C116.15 18.85 117.45 21.75 117.45 25.95C117.45 29.65 116.3 33.6 114 37.8C111.7 41.9 108.7 46.05 105 50.25C101.3 54.45 97.3 58.5 93 62.4C88.8 66.2 84.7 69.7 80.7 72.9C76.8 76 73.45 78.55 70.65 80.55C75.15 80.65 79.85 80.85 84.75 81.15C89.75 81.35 94.5 81.45 99 81.45C102.1 81.45 104.95 81.35 107.55 81.15C110.15 80.85 112.35 80.4 114.15 79.8C117.85 78.6 120.45 77.3 121.95 75.9C123.55 74.4 124.35 72.9 124.35 71.4C124.35 69.7 123.55 68.15 121.95 66.75C120.45 65.25 118.55 64.05 116.25 63.15C114.05 62.25 111.8 61.8 109.5 61.8C109 61.8 108.75 61.7 108.75 61.5C108.75 61 109.2 60.75 110.1 60.75C115.1 60.55 119 61.65 121.8 64.05C124.6 66.45 126 69.2 126 72.3C126 75.2 124.6 78.05 121.8 80.85C119.1 83.65 114.7 85.7 108.6 87C105.2 87.7 101.8 88.05 98.4 88.05C92.5 88.05 86.95 87.4 81.75 86.1C76.65 84.7 71.8 83.65 67.2 82.95C65.3 84.25 63.05 85.6 60.45 87C57.85 88.5 55.4 89.5 53.1 90C52.7 90.1 52.35 90.15 52.05 90.15C51.65 90.25 51.25 90.3 50.85 90.3ZM51.6 88.65C52.4 88.65 53.3 88.45 54.3 88.05C55.4 87.65 56.6 86.95 57.9 85.95C58.7 85.45 59.4 84.9 60 84.3C60.6 83.6 61.25 83.05 61.95 82.65H58.95C58.25 82.65 57.5 82.65 56.7 82.65C56 82.65 55.25 82.75 54.45 82.95C52.75 83.35 51.5 83.95 50.7 84.75C49.8 85.45 49.35 86.15 49.35 86.85C49.35 88.05 50.1 88.65 51.6 88.65Z" fill="#43E11C"/>
<path d="M48.15 89.4L49.65 87.4L49.513 87.298L49.364 87.215L48.15 89.4ZM49.35 81.9L50.618 84.055L50.663 84.028L50.708 83.999L49.35 81.9ZM54 79.8L53.553 77.34L53.514 77.347L53.476 77.355L54 79.8ZM63.45 79.35L63.174 81.835L63.312 81.85H63.45V79.35ZM66.3 79.5L66.024 81.985L67.039 82.097L67.842 81.468L66.3 79.5ZM76.95 70.65L78.604 72.525L78.608 72.521L76.95 70.65ZM87.3 61.35L88.984 63.197L89.027 63.159L89.068 63.118L87.3 61.35ZM91.8 57L93.506 58.828L93.51 58.824L91.8 57ZM96.3 52.35L94.45 50.6683L94.434 50.6859L94.419 50.7037L96.3 52.35ZM102.6 44.4L104.639 45.8469L104.65 45.8317L104.66 45.8163L102.6 44.4ZM108.3 34.5L110.562 35.5645L110.568 35.552L110.574 35.5394L108.3 34.5ZM108.3 18.9L106.724 20.8403L106.761 20.8709L106.8 20.9L108.3 18.9ZM99.3 17.25L99.881 19.6814L100.059 19.639L100.228 19.5712L99.3 17.25ZM86.1 22.95L84.748 20.8471L84.737 20.8545L84.725 20.8621L86.1 22.95ZM76.2 32.25L74.166 30.7969L74.152 30.8164L74.138 30.8362L76.2 32.25ZM73.2 42.9L70.715 43.1761L70.745 43.4393L70.828 43.6906L73.2 42.9ZM73.95 47.1L74.44 49.5515L74.499 49.5398L74.556 49.5254L73.95 47.1ZM72.45 46.2L70.214 47.318L70.302 47.4935L70.416 47.6531L72.45 46.2ZM70.8 41.4L68.311 41.6333L68.329 41.8223L68.375 42.0063L70.8 41.4ZM73.2 32.25L71.142 30.8307L71.125 30.8551L71.109 30.8799L73.2 32.25ZM80.85 24.45L82.34 26.4578L82.35 26.45L80.85 24.45ZM99.45 15.3L99.96 17.7474L100.008 17.7374L100.056 17.7254L99.45 15.3ZM113.55 17.25L112.144 19.3173L112.191 19.3493L112.24 19.3791L113.55 17.25ZM114 37.8L116.18 39.0231L116.187 39.012L116.193 39.0008L114 37.8ZM93 62.4L94.677 64.254L94.68 64.252L93 62.4ZM80.7 72.9L82.256 74.857L82.262 74.852L80.7 72.9ZM70.65 80.55L69.197 78.516L63.083 82.882L70.594 83.049L70.65 80.55ZM84.75 81.15L84.597 83.645L84.624 83.647L84.65 83.648L84.75 81.15ZM107.55 81.15L107.742 83.643L107.789 83.639L107.837 83.634L107.55 81.15ZM114.15 79.8L113.379 77.422L113.369 77.425L113.359 77.428L114.15 79.8ZM121.95 75.9L123.656 77.728L123.66 77.724L121.95 75.9ZM121.95 66.75L120.182 68.518L120.241 68.577L120.304 68.631L121.95 66.75ZM116.25 63.15L115.303 65.464L115.321 65.471L115.339 65.478L116.25 63.15ZM110.1 60.75V63.25H110.15L110.2 63.248L110.1 60.75ZM121.8 80.85L120.032 79.082L120.016 79.098L120 79.115L121.8 80.85ZM108.6 87L109.104 89.449L109.113 89.447L109.121 89.445L108.6 87ZM81.75 86.1L81.088 88.511L81.116 88.518L81.144 88.525L81.75 86.1ZM67.2 82.95L67.576 80.478L66.602 80.33L65.788 80.887L67.2 82.95ZM60.45 87L59.265 84.799L59.232 84.816L59.201 84.835L60.45 87ZM53.1 90L52.569 87.557L52.531 87.565L52.494 87.575L53.1 90ZM52.05 90.15V87.65H51.742L51.444 87.725L52.05 90.15ZM54.3 88.05L53.446 85.701L53.408 85.714L53.372 85.729L54.3 88.05ZM57.9 85.95L56.575 83.83L56.472 83.894L56.376 83.968L57.9 85.95ZM60 84.3L61.768 86.068L61.836 86L61.898 85.927L60 84.3ZM61.95 82.65L63.19 84.821L71.364 80.15H61.95V82.65ZM54.45 82.95L55.023 85.384L55.039 85.38L55.056 85.375L54.45 82.95ZM50.7 84.75L52.235 86.723L52.358 86.628L52.468 86.518L50.7 84.75ZM50.85 87.8C50.391 87.8 50.017 87.675 49.65 87.4L46.65 91.4C47.883 92.325 49.309 92.8 50.85 92.8V87.8ZM49.364 87.215C49.392 87.23 49.423 87.255 49.445 87.28C49.465 87.303 49.457 87.302 49.435 87.253C49.386 87.137 49.3 86.838 49.3 86.25H44.3C44.3 88.215 44.8604 90.432 46.936 91.585L49.364 87.215ZM49.3 86.25C49.3 85.277 49.645 84.627 50.618 84.055L48.082 79.745C45.6545 81.173 44.3 83.423 44.3 86.25H49.3ZM50.708 83.999C52.251 83.001 53.516 82.46 54.524 82.245L53.476 77.355C51.684 77.74 49.849 78.599 47.992 79.801L50.708 83.999ZM54.447 82.26C55.475 82.073 56.501 81.933 57.526 81.84L57.074 76.86C55.899 76.967 54.725 77.127 53.553 77.34L54.447 82.26ZM57.526 81.84C58.551 81.747 59.576 81.7 60.6 81.7V76.7C59.424 76.7 58.249 76.753 57.074 76.86L57.526 81.84ZM60.6 81.7C61.517 81.7 62.374 81.746 63.174 81.835L63.726 76.865C62.726 76.754 61.683 76.7 60.6 76.7V81.7ZM63.45 81.85C64.367 81.85 65.224 81.896 66.024 81.985L66.576 77.015C65.576 76.904 64.533 76.85 63.45 76.85V81.85ZM67.842 81.468C71.579 78.539 75.166 75.558 78.604 72.525L75.296 68.775C71.934 71.742 68.421 74.661 64.758 77.532L67.842 81.468ZM78.608 72.521C82.116 69.414 85.575 66.306 88.984 63.197L85.616 59.503C82.225 62.594 78.784 65.686 75.292 68.779L78.608 72.521ZM89.068 63.118C90.548 61.637 92.027 60.207 93.506 58.828L90.094 55.1724C88.573 56.593 87.052 58.063 85.532 59.582L89.068 63.118ZM93.51 58.824C95.168 57.269 96.726 55.6602 98.181 53.9963L94.419 50.7037C93.074 52.2398 91.632 53.7307 90.09 55.1762L93.51 58.824ZM98.15 54.0317C100.233 51.7402 102.396 49.0075 104.639 45.8469L100.561 42.9531C98.404 45.9925 96.367 48.5598 94.45 50.6683L98.15 54.0317ZM104.66 45.8163C106.934 42.5084 108.902 39.0911 110.562 35.5645L106.038 33.4355C104.498 36.7089 102.666 39.8916 100.54 42.9837L104.66 45.8163ZM110.574 35.5394C112.282 31.802 113.2 28.195 113.2 24.75H108.2C108.2 27.305 107.518 30.198 106.026 33.4606L110.574 35.5394ZM113.2 24.75C113.2 21.5604 112.234 18.7258 109.8 16.9L106.8 20.9C107.566 21.4742 108.2 22.5396 108.2 24.75H113.2ZM109.876 16.9597C107.779 15.2555 105.254 14.45 102.45 14.45V19.45C104.246 19.45 105.621 19.9445 106.724 20.8403L109.876 16.9597ZM102.45 14.45C102.449 14.45 102.448 14.45 102.447 14.45C102.446 14.45 102.445 14.45 102.444 14.45C102.443 14.45 102.442 14.45 102.441 14.45C102.44 14.45 102.439 14.45 102.438 14.45C102.437 14.45 102.436 14.45 102.435 14.45C102.434 14.45 102.433 14.45 102.432 14.45C102.431 14.45 102.43 14.45 102.429 14.45C102.428 14.45 102.428 14.45 102.427 14.45C102.426 14.45 102.425 14.45 102.424 14.45C102.423 14.45 102.422 14.45 102.421 14.45C102.42 14.45 102.419 14.45 102.418 14.45C102.417 14.45 102.416 14.45 102.415 14.45C102.414 14.45 102.413 14.45 102.412 14.45C102.411 14.45 102.41 14.45 102.409 14.45C102.408 14.45 102.407 14.45 102.406 14.45C102.405 14.45 102.404 14.45 102.403 14.45C102.402 14.45 102.401 14.45 102.4 14.45C102.399 14.45 102.398 14.45 102.397 14.45C102.396 14.45 102.395 14.45 102.394 14.45C102.393 14.45 102.392 14.45 102.391 14.45C102.39 14.45 102.389 14.45 102.388 14.45C102.387 14.45 102.386 14.45 102.385 14.45C102.384 14.45 102.383 14.45 102.382 14.45C102.381 14.45 102.38 14.45 102.379 14.45C102.378 14.45 102.377 14.45 102.376 14.45C102.375 14.45 102.374 14.45 102.373 14.45C102.372 14.45 102.371 14.45 102.37 14.45C102.369 14.45 102.369 14.45 102.368 14.45C102.367 14.45 102.366 14.45 102.365 14.45C102.364 14.45 102.363 14.45 102.362 14.45C102.361 14.45 102.36 14.45 102.359 14.45C102.358 14.45 102.357 14.45 102.356 14.45C102.355 14.45 102.354 14.45 102.353 14.45C102.352 14.45 102.351 14.45 102.35 14.45C102.349 14.45 102.348 14.45 102.347 14.45C102.346 14.45 102.345 14.45 102.344 14.45C102.343 14.45 102.342 14.45 102.341 14.45C102.34 14.45 102.339 14.45 102.338 14.45C102.337 14.45 102.336 14.45 102.335 14.45C102.334 14.45 102.333 14.45 102.332 14.45C102.331 14.45 102.33 14.45 102.329 14.45C102.328 14.45 102.327 14.45 102.326 14.45C102.325 14.45 102.324 14.45 102.323 14.45C102.322 14.45 102.321 14.45 102.32 14.45C102.319 14.45 102.318 14.45 102.317 14.45C102.316 14.45 102.315 14.45 102.314 14.45C102.313 14.45 102.312 14.45 102.311 14.45C102.31 14.45 102.309 14.45 102.308 14.45C102.307 14.45 102.306 14.45 102.305 14.45C102.304 14.45 102.303 14.45 102.302 14.45C102.301 14.45 102.3 14.45 102.299 14.45C102.298 14.45 102.297 14.45 102.296 14.45C102.295 14.45 102.294 14.45 102.293 14.45C102.292 14.45 102.291 14.45 102.29 14.45C102.289 14.45 102.288 14.45 102.287 14.45C102.286 14.45 102.285 14.45 102.284 14.45C102.283 14.45 102.282 14.45 102.281 14.45C102.28 14.45 102.279 14.45 102.278 14.45C102.277 14.45 102.276 14.45 102.275 14.45C102.274 14.45 102.273 14.45 102.272 14.45C102.271 14.45 102.27 14.45 102.269 14.45C102.268 14.45 102.267 14.45 102.266 14.45C102.265 14.45 102.264 14.45 102.263 14.45C102.262 14.45 102.261 14.45 102.26 14.45C102.259 14.45 102.258 14.45 102.257 14.45C102.256 14.45 102.255 14.45 102.254 14.45C102.253 14.45 102.252 14.45 102.251 14.45C102.25 14.45 102.249 14.45 102.248 14.45C102.247 14.45 102.246 14.45 102.245 14.45C102.244 14.45 102.243 14.45 102.242 14.45C102.241 14.45 102.24 14.45 102.239 14.45C102.238 14.45 102.237 14.45 102.236 14.45C102.235 14.45 102.234 14.45 102.233 14.45C102.232 14.45 102.231 14.45 102.23 14.45C102.229 14.45 102.228 14.45 102.227 14.45C102.226 14.45 102.225 14.45 102.224 14.45C102.223 14.45 102.222 14.45 102.221 14.45C102.22 14.45 102.219 14.45 102.218 14.45C102.217 14.45 102.216 14.45 102.215 14.45C102.214 14.45 102.213 14.45 102.212 14.45C102.211 14.45 102.21 14.45 102.209 14.45C102.208 14.45 102.207 14.45 102.206 14.45C102.205 14.45 102.204 14.45 102.203 14.45C102.202 14.45 102.201 14.45 102.2 14.45C102.199 14.45 102.198 14.45 102.197 14.45C102.196 14.45 102.195 14.45 102.194 14.45C102.193 14.45 102.192 14.45 102.191 14.45C102.19 14.45 102.189 14.45 102.188 14.45C102.187 14.45 102.186 14.45 102.185 14.45C102.184 14.45 102.183 14.45 102.182 14.45C102.181 14.45 102.18 14.45 102.179 14.45C102.178 14.45 102.177 14.45 102.176 14.45C102.175 14.45 102.174 14.45 102.173 14.45C102.172 14.45 102.171 14.45 102.17 14.45C102.169 14.45 102.168 14.45 102.167 14.45C102.166 14.45 102.164 14.45 102.163 14.45C102.162 14.45 102.161 14.45 102.16 14.45C102.159 14.45 102.158 14.45 102.157 14.45C102.156 14.45 102.155 14.45 102.154 14.45C102.153 14.45 102.152 14.45 102.151 14.45C102.15 14.45 102.149 14.45 102.148 14.45C102.147 14.45 102.146 14.45 102.145 14.45C102.144 14.45 102.143 14.45 102.142 14.45C102.141 14.45 102.14 14.45 102.139 14.45C102.138 14.45 102.137 14.45 102.136 14.45C102.135 14.45 102.134 14.45 102.133 14.45C102.132 14.45 102.131 14.45 102.13 14.45C102.129 14.45 102.128 14.45 102.127 14.45C102.126 14.45 102.125 14.45 102.124 14.45C102.123 14.45 102.122 14.45 102.121 14.45C102.12 14.45 102.119 14.45 102.118 14.45C102.117 14.45 102.116 14.45 102.115 14.45C102.114 14.45 102.113 14.45 102.112 14.45C102.111 14.45 102.11 14.45 102.109 14.45C102.108 14.45 102.107 14.45 102.106 14.45C102.104 14.45 102.103 14.45 102.102 14.45C102.101 14.45 102.1 14.45 102.099 14.45C102.098 14.45 102.097 14.45 102.096 14.45C102.095 14.45 102.094 14.45 102.093 14.45C102.092 14.45 102.091 14.45 102.09 14.45C102.089 14.45 102.088 14.45 102.087 14.45C102.086 14.45 102.085 14.45 102.084 14.45C102.083 14.45 102.082 14.45 102.081 14.45C102.08 14.45 102.079 14.45 102.078 14.45C102.077 14.45 102.076 14.45 102.075 14.45C102.074 14.45 102.073 14.45 102.072 14.45C102.071 14.45 102.07 14.45 102.069 14.45C102.068 14.45 102.067 14.45 102.066 14.45C102.065 14.45 102.064 14.45 102.063 14.45C102.062 14.45 102.06 14.45 102.059 14.45C102.058 14.45 102.057 14.45 102.056 14.45C102.055 14.45 102.054 14.45 102.053 14.45C102.052 14.45 102.051 14.45 102.05 14.45C102.049 14.45 102.048 14.45 102.047 14.45C102.046 14.45 102.045 14.45 102.044 14.45C102.043 14.45 102.042 14.45 102.041 14.45C102.04 14.45 102.039 14.45 102.038 14.45C102.037 14.45 102.036 14.45 102.035 14.45C102.034 14.45 102.033 14.45 102.032 14.45C102.031 14.45 102.03 14.45 102.029 14.45C102.028 14.45 102.027 14.45 102.026 14.45C102.025 14.45 102.023 14.45 102.022 14.45C102.021 14.45 102.02 14.45 102.019 14.45C102.018 14.45 102.017 14.45 102.016 14.45C102.015 14.45 102.014 14.45 102.013 14.45C102.012 14.45 102.011 14.45 102.01 14.45C102.009 14.45 102.008 14.45 102.007 14.45C102.006 14.45 102.005 14.45 102.004 14.45C102.003 14.45 102.002 14.45 102.001 14.45C102 14.45 101.999 14.45 101.998 14.45C101.997 14.45 101.996 14.45 101.995 14.45C101.994 14.45 101.993 14.45 101.991 14.45C101.99 14.45 101.989 14.45 101.988 14.45C101.987 14.45 101.986 14.45 101.985 14.45C101.984 14.45 101.983 14.45 101.982 14.45C101.981 14.45 101.98 14.45 101.979 14.45C101.978 14.45 101.977 14.45 101.976 14.45C101.975 14.45 101.974 14.45 101.973 14.45C101.972 14.45 101.971 14.45 101.97 14.45C101.969 14.45 101.968 14.45 101.967 14.45C101.966 14.45 101.965 14.45 101.963 14.45C101.962 14.45 101.961 14.45 101.96 14.45C101.959 14.45 101.958 14.45 101.957 14.45C101.956 14.45 101.955 14.45 101.954 14.45C101.953 14.45 101.952 14.45 101.951 14.45C101.95 14.45 101.949 14.45 101.948 14.45C101.947 14.45 101.946 14.45 101.945 14.45C101.944 14.45 101.943 14.45 101.942 14.45C101.941 14.45 101.94 14.45 101.939 14.45C101.938 14.45 101.936 14.45 101.935 14.45C101.934 14.45 101.933 14.45 101.932 14.45C101.931 14.45 101.93 14.45 101.929 14.45C101.928 14.45 101.927 14.45 101.926 14.45C101.925 14.45 101.924 14.45 101.923 14.45C101.922 14.45 101.921 14.45 101.92 14.45C101.919 14.45 101.918 14.45 101.917 14.45C101.916 14.45 101.915 14.45 101.914 14.45C101.912 14.45 101.911 14.45 101.91 14.45C101.909 14.45 101.908 14.45 101.907 14.45C101.906 14.45 101.905 14.45 101.904 14.45C101.903 14.45 101.902 14.45 101.901 14.45C101.9 14.45 101.899 14.45 101.898 14.45C101.897 14.45 101.896 14.45 101.895 14.45C101.894 14.45 101.893 14.45 101.892 14.45C101.891 14.45 101.889 14.45 101.888 14.45C101.887 14.45 101.886 14.45 101.885 14.45C101.884 14.45 101.883 14.45 101.882 14.45C101.881 14.45 101.88 14.45 101.879 14.45C101.878 14.45 101.877 14.45 101.876 14.45C101.875 14.45 101.874 14.45 101.873 14.45C101.872 14.45 101.871 14.45 101.87 14.45C101.869 14.45 101.867 14.45 101.866 14.45C101.865 14.45 101.864 14.45 101.863 14.45C101.862 14.45 101.861 14.45 101.86 14.45C101.859 14.45 101.858 14.45 101.857 14.45C101.856 14.45 101.855 14.45 101.854 14.45C101.853 14.45 101.852 14.45 101.851 14.45C101.85 14.45 101.849 14.45 101.847 14.45C101.846 14.45 101.845 14.45 101.844 14.45C101.843 14.45 101.842 14.45 101.841 14.45C101.84 14.45 101.839 14.45 101.838 14.45C101.837 14.45 101.836 14.45 101.835 14.45C101.834 14.45 101.833 14.45 101.832 14.45C101.831 14.45 101.83 14.45 101.829 14.45C101.827 14.45 101.826 14.45 101.825 14.45C101.824 14.45 101.823 14.45 101.822 14.45C101.821 14.45 101.82 14.45 101.819 14.45C101.818 14.45 101.817 14.45 101.816 14.45C101.815 14.45 101.814 14.45 101.813 14.45C101.812 14.45 101.811 14.45 101.81 14.45C101.808 14.45 101.807 14.45 101.806 14.45C101.805 14.45 101.804 14.45 101.803 14.45C101.802 14.45 101.801 14.45 101.8 14.45C101.799 14.45 101.798 14.45 101.797 14.45C101.796 14.45 101.795 14.45 101.794 14.45C101.793 14.45 101.792 14.45 101.79 14.45C101.789 14.45 101.788 14.45 101.787 14.45C101.786 14.45 101.785 14.45 101.784 14.45C101.783 14.45 101.782 14.45 101.781 14.45C101.78 14.45 101.779 14.45 101.778 14.45C101.777 14.45 101.776 14.45 101.775 14.45C101.774 14.45 101.772 14.45 101.771 14.45C101.77 14.45 101.769 14.45 101.768 14.45C101.767 14.45 101.766 14.45 101.765 14.45C101.764 14.45 101.763 14.45 101.762 14.45C101.761 14.45 101.76 14.45 101.759 14.45C101.758 14.45 101.757 14.45 101.755 14.45C101.754 14.45 101.753 14.45 101.752 14.45C101.751 14.45 101.75 14.45 101.749 14.45C101.748 14.45 101.747 14.45 101.746 14.45C101.745 14.45 101.744 14.45 101.743 14.45C101.742 14.45 101.741 14.45 101.74 14.45C101.738 14.45 101.737 14.45 101.736 14.45C101.735 14.45 101.734 14.45 101.733 14.45C101.732 14.45 101.731 14.45 101.73 14.45C101.729 14.45 101.728 14.45 101.727 14.45C101.726 14.45 101.725 14.45 101.724 14.45C101.722 14.45 101.721 14.45 101.72 14.45C101.719 14.45 101.718 14.45 101.717 14.45C101.716 14.45 101.715 14.45 101.714 14.45C101.713 14.45 101.712 14.45 101.711 14.45C101.71 14.45 101.709 14.45 101.708 14.45C101.706 14.45 101.705 14.45 101.704 14.45C101.703 14.45 101.702 14.45 101.701 14.45C101.7 14.45 101.699 14.45 101.698 14.45C101.697 14.45 101.696 14.45 101.695 14.45C101.694 14.45 101.693 14.45 101.691 14.45C101.69 14.45 101.689 14.45 101.688 14.45C101.687 14.45 101.686 14.45 101.685 14.45C101.684 14.45 101.683 14.45 101.682 14.45C101.681 14.45 101.68 14.45 101.679 14.45C101.678 14.45 101.676 14.45 101.675 14.45C101.674 14.45 101.673 14.45 101.672 14.45C101.671 14.45 101.67 14.45 101.669 14.45C101.668 14.45 101.667 14.45 101.666 14.45C101.665 14.45 101.664 14.45 101.663 14.45C101.661 14.45 101.66 14.45 101.659 14.45C101.658 14.45 101.657 14.45 101.656 14.45C101.655 14.45 101.654 14.45 101.653 14.45C101.652 14.45 101.651 14.45 101.65 14.45C101.649 14.45 101.647 14.45 101.646 14.45C101.645 14.45 101.644 14.45 101.643 14.45C101.642 14.45 101.641 14.45 101.64 14.45C101.639 14.45 101.638 14.45 101.637 14.45C101.636 14.45 101.635 14.45 101.633 14.45C101.632 14.45 101.631 14.45 101.63 14.45C101.629 14.45 101.628 14.45 101.627 14.45C101.626 14.45 101.625 14.45 101.624 14.45C101.623 14.45 101.622 14.45 101.621 14.45C101.619 14.45 101.618 14.45 101.617 14.45C101.616 14.45 101.615 14.45 101.614 14.45C101.613 14.45 101.612 14.45 101.611 14.45C101.61 14.45 101.609 14.45 101.608 14.45C101.606 14.45 101.605 14.45 101.604 14.45C101.603 14.45 101.602 14.45 101.601 14.45C101.6 14.45 101.599 14.45 101.598 14.45C101.597 14.45 101.596 14.45 101.595 14.45C101.593 14.45 101.592 14.45 101.591 14.45C101.59 14.45 101.589 14.45 101.588 14.45C101.587 14.45 101.586 14.45 101.585 14.45C101.584 14.45 101.583 14.45 101.582 14.45C101.58 14.45 101.579 14.45 101.578 14.45C101.577 14.45 101.576 14.45 101.575 14.45C101.574 14.45 101.573 14.45 101.572 14.45C101.571 14.45 101.57 14.45 101.569 14.45C101.567 14.45 101.566 14.45 101.565 14.45C101.564 14.45 101.563 14.45 101.562 14.45C101.561 14.45 101.56 14.45 101.559 14.45C101.558 14.45 101.557 14.45 101.556 14.45C101.554 14.45 101.553 14.45 101.552 14.45C101.551 14.45 101.55 14.45 101.549 14.45C101.548 14.45 101.547 14.45 101.546 14.45C101.545 14.45 101.544 14.45 101.542 14.45C101.541 14.45 101.54 14.45 101.539 14.45C101.538 14.45 101.537 14.45 101.536 14.45C101.535 14.45 101.534 14.45 101.533 14.45C101.532 14.45 101.531 14.45 101.529 14.45C101.528 14.45 101.527 14.45 101.526 14.45C101.525 14.45 101.524 14.45 101.523 14.45C101.522 14.45 101.521 14.45 101.52 14.45C101.519 14.45 101.517 14.45 101.516 14.45C101.515 14.45 101.514 14.45 101.513 14.45C101.512 14.45 101.511 14.45 101.51 14.45C101.509 14.45 101.508 14.45 101.506 14.45C101.505 14.45 101.504 14.45 101.503 14.45C101.502 14.45 101.501 14.45 101.5 14.45C101.499 14.45 101.498 14.45 101.497 14.45C101.496 14.45 101.494 14.45 101.493 14.45C101.492 14.45 101.491 14.45 101.49 14.45C101.489 14.45 101.488 14.45 101.487 14.45C101.486 14.45 101.485 14.45 101.484 14.45C101.482 14.45 101.481 14.45 101.48 14.45C101.479 14.45 101.478 14.45 101.477 14.45C101.476 14.45 101.475 14.45 101.474 14.45C101.473 14.45 101.471 14.45 101.47 14.45C101.469 14.45 101.468 14.45 101.467 14.45C101.466 14.45 101.465 14.45 101.464 14.45C101.463 14.45 101.462 14.45 101.46 14.45C101.459 14.45 101.458 14.45 101.457 14.45C101.456 14.45 101.455 14.45 101.454 14.45C101.453 14.45 101.452 14.45 101.451 14.45C101.45 14.45 101.448 14.45 101.447 14.45C101.446 14.45 101.445 14.45 101.444 14.45C101.443 14.45 101.442 14.45 101.441 14.45C101.44 14.45 101.439 14.45 101.437 14.45C101.436 14.45 101.435 14.45 101.434 14.45C101.433 14.45 101.432 14.45 101.431 14.45C101.43 14.45 101.429 14.45 101.428 14.45C101.426 14.45 101.425 14.45 101.424 14.45C101.423 14.45 101.422 14.45 101.421 14.45C101.42 14.45 101.419 14.45 101.418 14.45C101.416 14.45 101.415 14.45 101.414 14.45C101.413 14.45 101.412 14.45 101.411 14.45C101.41 14.45 101.409 14.45 101.408 14.45C101.407 14.45 101.405 14.45 101.404 14.45C101.403 14.45 101.402 14.45 101.401 14.45C101.4 14.45 101.399 14.45 101.398 14.45C101.397 14.45 101.396 14.45 101.394 14.45C101.393 14.45 101.392 14.45 101.391 14.45C101.39 14.45 101.389 14.45 101.388 14.45C101.387 14.45 101.386 14.45 101.384 14.45C101.383 14.45 101.382 14.45 101.381 14.45C101.38 14.45 101.379 14.45 101.378 14.45C101.377 14.45 101.376 14.45 101.374 14.45C101.373 14.45 101.372 14.45 101.371 14.45C101.37 14.45 101.369 14.45 101.368 14.45C101.367 14.45 101.366 14.45 101.365 14.45C101.363 14.45 101.362 14.45 101.361 14.45C101.36 14.45 101.359 14.45 101.358 14.45C101.357 14.45 101.356 14.45 101.355 14.45C101.353 14.45 101.352 14.45 101.351 14.45C101.35 14.45 101.349 14.45 101.348 14.45C101.347 14.45 101.346 14.45 101.345 14.45C101.343 14.45 101.342 14.45 101.341 14.45C101.34 14.45 101.339 14.45 101.338 14.45C101.337 14.45 101.336 14.45 101.335 14.45C101.333 14.45 101.332 14.45 101.331 14.45C101.33 14.45 101.329 14.45 101.328 14.45C101.327 14.45 101.326 14.45 101.324 14.45C101.323 14.45 101.322 14.45 101.321 14.45C101.32 14.45 101.319 14.45 101.318 14.45C101.317 14.45 101.316 14.45 101.314 14.45C101.313 14.45 101.312 14.45 101.311 14.45C101.31 14.45 101.309 14.45 101.308 14.45C101.307 14.45 101.306 14.45 101.304 14.45C101.303 14.45 101.302 14.45 101.301 14.45C101.3 14.45 101.299 14.45 101.298 14.45C101.297 14.45 101.296 14.45 101.294 14.45C101.293 14.45 101.292 14.45 101.291 14.45C101.29 14.45 101.289 14.45 101.288 14.45C101.287 14.45 101.285 14.45 101.284 14.45C101.283 14.45 101.282 14.45 101.281 14.45C101.28 14.45 101.279 14.45 101.278 14.45C101.277 14.45 101.275 14.45 101.274 14.45C101.273 14.45 101.272 14.45 101.271 14.45C101.27 14.45 101.269 14.45 101.268 14.45C101.266 14.45 101.265 14.45 101.264 14.45C101.263 14.45 101.262 14.45 101.261 14.45C101.26 14.45 101.259 14.45 101.257 14.45C101.256 14.45 101.255 14.45 101.254 14.45C101.253 14.45 101.252 14.45 101.251 14.45C101.25 14.45 101.248 14.45 101.247 14.45C101.246 14.45 101.245 14.45 101.244 14.45C101.243 14.45 101.242 14.45 101.241 14.45C101.24 14.45 101.238 14.45 101.237 14.45C101.236 14.45 101.235 14.45 101.234 14.45C101.233 14.45 101.232 14.45 101.231 14.45C101.229 14.45 101.228 14.45 101.227 14.45C101.226 14.45 101.225 14.45 101.224 14.45C101.223 14.45 101.222 14.45 101.22 14.45C101.219 14.45 101.218 14.45 101.217 14.45C101.216 14.45 101.215 14.45 101.214 14.45C101.213 14.45 101.211 14.45 101.21 14.45C101.209 14.45 101.208 14.45 101.207 14.45C101.206 14.45 101.205 14.45 101.203 14.45C101.202 14.45 101.201 14.45 101.2 14.45C101.199 14.45 101.198 14.45 101.197 14.45C101.196 14.45 101.194 14.45 101.193 14.45C101.192 14.45 101.191 14.45 101.19 14.45C101.189 14.45 101.188 14.45 101.187 14.45C101.185 14.45 101.184 14.45 101.183 14.45C101.182 14.45 101.181 14.45 101.18 14.45C101.179 14.45 101.178 14.45 101.176 14.45C101.175 14.45 101.174 14.45 101.173 14.45C101.172 14.45 101.171 14.45 101.17 14.45C101.168 14.45 101.167 14.45 101.166 14.45C101.165 14.45 101.164 14.45 101.163 14.45C101.162 14.45 101.161 14.45 101.159 14.45C101.158 14.45 101.157 14.45 101.156 14.45C101.155 14.45 101.154 14.45 101.153 14.45C101.152 14.45 101.15 14.45 101.149 14.45C101.148 14.45 101.147 14.45 101.146 14.45C101.145 14.45 101.144 14.45 101.142 14.45C101.141 14.45 101.14 14.45 101.139 14.45C101.138 14.45 101.137 14.45 101.136 14.45C101.134 14.45 101.133 14.45 101.132 14.45C101.131 14.45 101.13 14.45 101.129 14.45C101.128 14.45 101.127 14.45 101.125 14.45C101.124 14.45 101.123 14.45 101.122 14.45C101.121 14.45 101.12 14.45 101.119 14.45C101.117 14.45 101.116 14.45 101.115 14.45C101.114 14.45 101.113 14.45 101.112 14.45C101.111 14.45 101.109 14.45 101.108 14.45C101.107 14.45 101.106 14.45 101.105 14.45C101.104 14.45 101.103 14.45 101.102 14.45C101.1 14.45 101.099 14.45 101.098 14.45C101.097 14.45 101.096 14.45 101.095 14.45C101.094 14.45 101.092 14.45 101.091 14.45C101.09 14.45 101.089 14.45 101.088 14.45C101.087 14.45 101.086 14.45 101.084 14.45C101.083 14.45 101.082 14.45 101.081 14.45C101.08 14.45 101.079 14.45 101.078 14.45C101.076 14.45 101.075 14.45 101.074 14.45C101.073 14.45 101.072 14.45 101.071 14.45C101.07 14.45 101.068 14.45 101.067 14.45C101.066 14.45 101.065 14.45 101.064 14.45C101.063 14.45 101.062 14.45 101.06 14.45C101.059 14.45 101.058 14.45 101.057 14.45C101.056 14.45 101.055 14.45 101.054 14.45C101.052 14.45 101.051 14.45 101.05 14.45C101.049 14.45 101.048 14.45 101.047 14.45C101.046 14.45 101.044 14.45 101.043 14.45C101.042 14.45 101.041 14.45 101.04 14.45C101.039 14.45 101.038 14.45 101.036 14.45C101.035 14.45 101.034 14.45 101.033 14.45C101.032 14.45 101.031 14.45 101.03 14.45C101.028 14.45 101.027 14.45 101.026 14.45C101.025 14.45 101.024 14.45 101.023 14.45C101.022 14.45 101.02 14.45 101.019 14.45C101.018 14.45 101.017 14.45 101.016 14.45C101.015 14.45 101.013 14.45 101.012 14.45C101.011 14.45 101.01 14.45 101.009 14.45C101.008 14.45 101.007 14.45 101.005 14.45C101.004 14.45 101.003 14.45 101.002 14.45C101.001 14.45 101 14.45 100.999 14.45C100.997 14.45 100.996 14.45 100.995 14.45C100.994 14.45 100.993 14.45 100.992 14.45C100.99 14.45 100.989 14.45 100.988 14.45C100.987 14.45 100.986 14.45 100.985 14.45C100.984 14.45 100.982 14.45 100.981 14.45C100.98 14.45 100.979 14.45 100.978 14.45C100.977 14.45 100.976 14.45 100.974 14.45C100.973 14.45 100.972 14.45 100.971 14.45C100.97 14.45 100.969 14.45 100.967 14.45C100.966 14.45 100.965 14.45 100.964 14.45C100.963 14.45 100.962 14.45 100.961 14.45C100.959 14.45 100.958 14.45 100.957 14.45C100.956 14.45 100.955 14.45 100.954 14.45C100.952 14.45 100.951 14.45 100.95 14.45C100.949 14.45 100.948 14.45 100.947 14.45C100.945 14.45 100.944 14.45 100.943 14.45C100.942 14.45 100.941 14.45 100.94 14.45C100.939 14.45 100.937 14.45 100.936 14.45C100.935 14.45 100.934 14.45 100.933 14.45C100.932 14.45 100.93 14.45 100.929 14.45C100.928 14.45 100.927 14.45 100.926 14.45C100.925 14.45 100.924 14.45 100.922 14.45C100.921 14.45 100.92 14.45 100.919 14.45C100.918 14.45 100.917 14.45 100.915 14.45C100.914 14.45 100.913 14.45 100.912 14.45C100.911 14.45 100.91 14.45 100.908 14.45C100.907 14.45 100.906 14.45 100.905 14.45C100.904 14.45 100.903 14.45 100.901 14.45C100.9 14.45 100.899 14.45 100.898 14.45C100.897 14.45 100.896 14.45 100.895 14.45C100.893 14.45 100.892 14.45 100.891 14.45C100.89 14.45 100.889 14.45 100.888 14.45C100.886 14.45 100.885 14.45 100.884 14.45C100.883 14.45 100.882 14.45 100.881 14.45C100.879 14.45 100.878 14.45 100.877 14.45C100.876 14.45 100.875 14.45 100.874 14.45C100.872 14.45 100.871 14.45 100.87 14.45C100.869 14.45 100.868 14.45 100.867 14.45C100.865 14.45 100.864 14.45 100.863 14.45C100.862 14.45 100.861 14.45 100.86 14.45C100.858 14.45 100.857 14.45 100.856 14.45C100.855 14.45 100.854 14.45 100.853 14.45C100.851 14.45 100.85 14.45 100.849 14.45C100.848 14.45 100.847 14.45 100.846 14.45C100.844 14.45 100.843 14.45 100.842 14.45C100.841 14.45 100.84 14.45 100.839 14.45C100.837 14.45 100.836 14.45 100.835 14.45C100.834 14.45 100.833 14.45 100.832 14.45C100.83 14.45 100.829 14.45 100.828 14.45C100.827 14.45 100.826 14.45 100.825 14.45C100.823 14.45 100.822 14.45 100.821 14.45C100.82 14.45 100.819 14.45 100.818 14.45C100.816 14.45 100.815 14.45 100.814 14.45C100.813 14.45 100.812 14.45 100.811 14.45C100.809 14.45 100.808 14.45 100.807 14.45C100.806 14.45 100.805 14.45 100.804 14.45C100.802 14.45 100.801 14.45 100.8 14.45V19.45C100.801 19.45 100.802 19.45 100.804 19.45C100.805 19.45 100.806 19.45 100.807 19.45C100.808 19.45 100.809 19.45 100.811 19.45C100.812 19.45 100.813 19.45 100.814 19.45C100.815 19.45 100.816 19.45 100.818 19.45C100.819 19.45 100.82 19.45 100.821 19.45C100.822 19.45 100.823 19.45 100.825 19.45C100.826 19.45 100.827 19.45 100.828 19.45C100.829 19.45 100.83 19.45 100.832 19.45C100.833 19.45 100.834 19.45 100.835 19.45C100.836 19.45 100.837 19.45 100.839 19.45C100.84 19.45 100.841 19.45 100.842 19.45C100.843 19.45 100.844 19.45 100.846 19.45C100.847 19.45 100.848 19.45 100.849 19.45C100.85 19.45 100.851 19.45 100.853 19.45C100.854 19.45 100.855 19.45 100.856 19.45C100.857 19.45 100.858 19.45 100.86 19.45C100.861 19.45 100.862 19.45 100.863 19.45C100.864 19.45 100.865 19.45 100.867 19.45C100.868 19.45 100.869 19.45 100.87 19.45C100.871 19.45 100.872 19.45 100.874 19.45C100.875 19.45 100.876 19.45 100.877 19.45C100.878 19.45 100.879 19.45 100.881 19.45C100.882 19.45 100.883 19.45 100.884 19.45C100.885 19.45 100.886 19.45 100.888 19.45C100.889 19.45 100.89 19.45 100.891 19.45C100.892 19.45 100.893 19.45 100.895 19.45C100.896 19.45 100.897 19.45 100.898 19.45C100.899 19.45 100.9 19.45 100.901 19.45C100.903 19.45 100.904 19.45 100.905 19.45C100.906 19.45 100.907 19.45 100.908 19.45C100.91 19.45 100.911 19.45 100.912 19.45C100.913 19.45 100.914 19.45 100.915 19.45C100.917 19.45 100.918 19.45 100.919 19.45C100.92 19.45 100.921 19.45 100.922 19.45C100.924 19.45 100.925 19.45 100.926 19.45C100.927 19.45 100.928 19.45 100.929 19.45C100.93 19.45 100.932 19.45 100.933 19.45C100.934 19.45 100.935 19.45 100.936 19.45C100.937 19.45 100.939 19.45 100.94 19.45C100.941 19.45 100.942 19.45 100.943 19.45C100.944 19.45 100.945 19.45 100.947 19.45C100.948 19.45 100.949 19.45 100.95 19.45C100.951 19.45 100.952 19.45 100.954 19.45C100.955 19.45 100.956 19.45 100.957 19.45C100.958 19.45 100.959 19.45 100.961 19.45C100.962 19.45 100.963 19.45 100.964 19.45C100.965 19.45 100.966 19.45 100.967 19.45C100.969 19.45 100.97 19.45 100.971 19.45C100.972 19.45 100.973 19.45 100.974 19.45C100.976 19.45 100.977 19.45 100.978 19.45C100.979 19.45 100.98 19.45 100.981 19.45C100.982 19.45 100.984 19.45 100.985 19.45C100.986 19.45 100.987 19.45 100.988 19.45C100.989 19.45 100.99 19.45 100.992 19.45C100.993 19.45 100.994 19.45 100.995 19.45C100.996 19.45 100.997 19.45 100.999 19.45C101 19.45 101.001 19.45 101.002 19.45C101.003 19.45 101.004 19.45 101.005 19.45C101.007 19.45 101.008 19.45 101.009 19.45C101.01 19.45 101.011 19.45 101.012 19.45C101.013 19.45 101.015 19.45 101.016 19.45C101.017 19.45 101.018 19.45 101.019 19.45C101.02 19.45 101.022 19.45 101.023 19.45C101.024 19.45 101.025 19.45 101.026 19.45C101.027 19.45 101.028 19.45 101.03 19.45C101.031 19.45 101.032 19.45 101.033 19.45C101.034 19.45 101.035 19.45 101.036 19.45C101.038 19.45 101.039 19.45 101.04 19.45C101.041 19.45 101.042 19.45 101.043 19.45C101.044 19.45 101.046 19.45 101.047 19.45C101.048 19.45 101.049 19.45 101.05 19.45C101.051 19.45 101.052 19.45 101.054 19.45C101.055 19.45 101.056 19.45 101.057 19.45C101.058 19.45 101.059 19.45 101.06 19.45C101.062 19.45 101.063 19.45 101.064 19.45C101.065 19.45 101.066 19.45 101.067 19.45C101.068 19.45 101.07 19.45 101.071 19.45C101.072 19.45 101.073 19.45 101.074 19.45C101.075 19.45 101.076 19.45 101.078 19.45C101.079 19.45 101.08 19.45 101.081 19.45C101.082 19.45 101.083 19.45 101.084 19.45C101.086 19.45 101.087 19.45 101.088 19.45C101.089 19.45 101.09 19.45 101.091 19.45C101.092 19.45 101.094 19.45 101.095 19.45C101.096 19.45 101.097 19.45 101.098 19.45C101.099 19.45 101.1 19.45 101.102 19.45C101.103 19.45 101.104 19.45 101.105 19.45C101.106 19.45 101.107 19.45 101.108 19.45C101.109 19.45 101.111 19.45 101.112 19.45C101.113 19.45 101.114 19.45 101.115 19.45C101.116 19.45 101.117 19.45 101.119 19.45C101.12 19.45 101.121 19.45 101.122 19.45C101.123 19.45 101.124 19.45 101.125 19.45C101.127 19.45 101.128 19.45 101.129 19.45C101.13 19.45 101.131 19.45 101.132 19.45C101.133 19.45 101.134 19.45 101.136 19.45C101.137 19.45 101.138 19.45 101.139 19.45C101.14 19.45 101.141 19.45 101.142 19.45C101.144 19.45 101.145 19.45 101.146 19.45C101.147 19.45 101.148 19.45 101.149 19.45C101.15 19.45 101.152 19.45 101.153 19.45C101.154 19.45 101.155 19.45 101.156 19.45C101.157 19.45 101.158 19.45 101.159 19.45C101.161 19.45 101.162 19.45 101.163 19.45C101.164 19.45 101.165 19.45 101.166 19.45C101.167 19.45 101.168 19.45 101.17 19.45C101.171 19.45 101.172 19.45 101.173 19.45C101.174 19.45 101.175 19.45 101.176 19.45C101.178 19.45 101.179 19.45 101.18 19.45C101.181 19.45 101.182 19.45 101.183 19.45C101.184 19.45 101.185 19.45 101.187 19.45C101.188 19.45 101.189 19.45 101.19 19.45C101.191 19.45 101.192 19.45 101.193 19.45C101.194 19.45 101.196 19.45 101.197 19.45C101.198 19.45 101.199 19.45 101.2 19.45C101.201 19.45 101.202 19.45 101.203 19.45C101.205 19.45 101.206 19.45 101.207 19.45C101.208 19.45 101.209 19.45 101.21 19.45C101.211 19.45 101.213 19.45 101.214 19.45C101.215 19.45 101.216 19.45 101.217 19.45C101.218 19.45 101.219 19.45 101.22 19.45C101.222 19.45 101.223 19.45 101.224 19.45C101.225 19.45 101.226 19.45 101.227 19.45C101.228 19.45 101.229 19.45 101.231 19.45C101.232 19.45 101.233 19.45 101.234 19.45C101.235 19.45 101.236 19.45 101.237 19.45C101.238 19.45 101.24 19.45 101.241 19.45C101.242 19.45 101.243 19.45 101.244 19.45C101.245 19.45 101.246 19.45 101.247 19.45C101.248 19.45 101.25 19.45 101.251 19.45C101.252 19.45 101.253 19.45 101.254 19.45C101.255 19.45 101.256 19.45 101.257 19.45C101.259 19.45 101.26 19.45 101.261 19.45C101.262 19.45 101.263 19.45 101.264 19.45C101.265 19.45 101.266 19.45 101.268 19.45C101.269 19.45 101.27 19.45 101.271 19.45C101.272 19.45 101.273 19.45 101.274 19.45C101.275 19.45 101.277 19.45 101.278 19.45C101.279 19.45 101.28 19.45 101.281 19.45C101.282 19.45 101.283 19.45 101.284 19.45C101.285 19.45 101.287 19.45 101.288 19.45C101.289 19.45 101.29 19.45 101.291 19.45C101.292 19.45 101.293 19.45 101.294 19.45C101.296 19.45 101.297 19.45 101.298 19.45C101.299 19.45 101.3 19.45 101.301 19.45C101.302 19.45 101.303 19.45 101.304 19.45C101.306 19.45 101.307 19.45 101.308 19.45C101.309 19.45 101.31 19.45 101.311 19.45C101.312 19.45 101.313 19.45 101.314 19.45C101.316 19.45 101.317 19.45 101.318 19.45C101.319 19.45 101.32 19.45 101.321 19.45C101.322 19.45 101.323 19.45 101.324 19.45C101.326 19.45 101.327 19.45 101.328 19.45C101.329 19.45 101.33 19.45 101.331 19.45C101.332 19.45 101.333 19.45 101.335 19.45C101.336 19.45 101.337 19.45 101.338 19.45C101.339 19.45 101.34 19.45 101.341 19.45C101.342 19.45 101.343 19.45 101.345 19.45C101.346 19.45 101.347 19.45 101.348 19.45C101.349 19.45 101.35 19.45 101.351 19.45C101.352 19.45 101.353 19.45 101.355 19.45C101.356 19.45 101.357 19.45 101.358 19.45C101.359 19.45 101.36 19.45 101.361 19.45C101.362 19.45 101.363 19.45 101.365 19.45C101.366 19.45 101.367 19.45 101.368 19.45C101.369 19.45 101.37 19.45 101.371 19.45C101.372 19.45 101.373 19.45 101.374 19.45C101.376 19.45 101.377 19.45 101.378 19.45C101.379 19.45 101.38 19.45 101.381 19.45C101.382 19.45 101.383 19.45 101.384 19.45C101.386 19.45 101.387 19.45 101.388 19.45C101.389 19.45 101.39 19.45 101.391 19.45C101.392 19.45 101.393 19.45 101.394 19.45C101.396 19.45 101.397 19.45 101.398 19.45C101.399 19.45 101.4 19.45 101.401 19.45C101.402 19.45 101.403 19.45 101.404 19.45C101.405 19.45 101.407 19.45 101.408 19.45C101.409 19.45 101.41 19.45 101.411 19.45C101.412 19.45 101.413 19.45 101.414 19.45C101.415 19.45 101.416 19.45 101.418 19.45C101.419 19.45 101.42 19.45 101.421 19.45C101.422 19.45 101.423 19.45 101.424 19.45C101.425 19.45 101.426 19.45 101.428 19.45C101.429 19.45 101.43 19.45 101.431 19.45C101.432 19.45 101.433 19.45 101.434 19.45C101.435 19.45 101.436 19.45 101.437 19.45C101.439 19.45 101.44 19.45 101.441 19.45C101.442 19.45 101.443 19.45 101.444 19.45C101.445 19.45 101.446 19.45 101.447 19.45C101.448 19.45 101.45 19.45 101.451 19.45C101.452 19.45 101.453 19.45 101.454 19.45C101.455 19.45 101.456 19.45 101.457 19.45C101.458 19.45 101.459 19.45 101.46 19.45C101.462 19.45 101.463 19.45 101.464 19.45C101.465 19.45 101.466 19.45 101.467 19.45C101.468 19.45 101.469 19.45 101.47 19.45C101.471 19.45 101.473 19.45 101.474 19.45C101.475 19.45 101.476 19.45 101.477 19.45C101.478 19.45 101.479 19.45 101.48 19.45C101.481 19.45 101.482 19.45 101.484 19.45C101.485 19.45 101.486 19.45 101.487 19.45C101.488 19.45 101.489 19.45 101.49 19.45C101.491 19.45 101.492 19.45 101.493 19.45C101.494 19.45 101.496 19.45 101.497 19.45C101.498 19.45 101.499 19.45 101.5 19.45C101.501 19.45 101.502 19.45 101.503 19.45C101.504 19.45 101.505 19.45 101.506 19.45C101.508 19.45 101.509 19.45 101.51 19.45C101.511 19.45 101.512 19.45 101.513 19.45C101.514 19.45 101.515 19.45 101.516 19.45C101.517 19.45 101.519 19.45 101.52 19.45C101.521 19.45 101.522 19.45 101.523 19.45C101.524 19.45 101.525 19.45 101.526 19.45C101.527 19.45 101.528 19.45 101.529 19.45C101.531 19.45 101.532 19.45 101.533 19.45C101.534 19.45 101.535 19.45 101.536 19.45C101.537 19.45 101.538 19.45 101.539 19.45C101.54 19.45 101.541 19.45 101.542 19.45C101.544 19.45 101.545 19.45 101.546 19.45C101.547 19.45 101.548 19.45 101.549 19.45C101.55 19.45 101.551 19.45 101.552 19.45C101.553 19.45 101.554 19.45 101.556 19.45C101.557 19.45 101.558 19.45 101.559 19.45C101.56 19.45 101.561 19.45 101.562 19.45C101.563 19.45 101.564 19.45 101.565 19.45C101.566 19.45 101.567 19.45 101.569 19.45C101.57 19.45 101.571 19.45 101.572 19.45C101.573 19.45 101.574 19.45 101.575 19.45C101.576 19.45 101.577 19.45 101.578 19.45C101.579 19.45 101.58 19.45 101.582 19.45C101.583 19.45 101.584 19.45 101.585 19.45C101.586 19.45 101.587 19.45 101.588 19.45C101.589 19.45 101.59 19.45 101.591 19.45C101.592 19.45 101.593 19.45 101.595 19.45C101.596 19.45 101.597 19.45 101.598 19.45C101.599 19.45 101.6 19.45 101.601 19.45C101.602 19.45 101.603 19.45 101.604 19.45C101.605 19.45 101.606 19.45 101.608 19.45C101.609 19.45 101.61 19.45 101.611 19.45C101.612 19.45 101.613 19.45 101.614 19.45C101.615 19.45 101.616 19.45 101.617 19.45C101.618 19.45 101.619 19.45 101.621 19.45C101.622 19.45 101.623 19.45 101.624 19.45C101.625 19.45 101.626 19.45 101.627 19.45C101.628 19.45 101.629 19.45 101.63 19.45C101.631 19.45 101.632 19.45 101.633 19.45C101.635 19.45 101.636 19.45 101.637 19.45C101.638 19.45 101.639 19.45 101.64 19.45C101.641 19.45 101.642 19.45 101.643 19.45C101.644 19.45 101.645 19.45 101.646 19.45C101.647 19.45 101.649 19.45 101.65 19.45C101.651 19.45 101.652 19.45 101.653 19.45C101.654 19.45 101.655 19.45 101.656 19.45C101.657 19.45 101.658 19.45 101.659 19.45C101.66 19.45 101.661 19.45 101.663 19.45C101.664 19.45 101.665 19.45 101.666 19.45C101.667 19.45 101.668 19.45 101.669 19.45C101.67 19.45 101.671 19.45 101.672 19.45C101.673 19.45 101.674 19.45 101.675 19.45C101.676 19.45 101.678 19.45 101.679 19.45C101.68 19.45 101.681 19.45 101.682 19.45C101.683 19.45 101.684 19.45 101.685 19.45C101.686 19.45 101.687 19.45 101.688 19.45C101.689 19.45 101.69 19.45 101.691 19.45C101.693 19.45 101.694 19.45 101.695 19.45C101.696 19.45 101.697 19.45 101.698 19.45C101.699 19.45 101.7 19.45 101.701 19.45C101.702 19.45 101.703 19.45 101.704 19.45C101.705 19.45 101.706 19.45 101.708 19.45C101.709 19.45 101.71 19.45 101.711 19.45C101.712 19.45 101.713 19.45 101.714 19.45C101.715 19.45 101.716 19.45 101.717 19.45C101.718 19.45 101.719 19.45 101.72 19.45C101.721 19.45 101.722 19.45 101.724 19.45C101.725 19.45 101.726 19.45 101.727 19.45C101.728 19.45 101.729 19.45 101.73 19.45C101.731 19.45 101.732 19.45 101.733 19.45C101.734 19.45 101.735 19.45 101.736 19.45C101.737 19.45 101.738 19.45 101.74 19.45C101.741 19.45 101.742 19.45 101.743 19.45C101.744 19.45 101.745 19.45 101.746 19.45C101.747 19.45 101.748 19.45 101.749 19.45C101.75 19.45 101.751 19.45 101.752 19.45C101.753 19.45 101.754 19.45 101.755 19.45C101.757 19.45 101.758 19.45 101.759 19.45C101.76 19.45 101.761 19.45 101.762 19.45C101.763 19.45 101.764 19.45 101.765 19.45C101.766 19.45 101.767 19.45 101.768 19.45C101.769 19.45 101.77 19.45 101.771 19.45C101.772 19.45 101.774 19.45 101.775 19.45C101.776 19.45 101.777 19.45 101.778 19.45C101.779 19.45 101.78 19.45 101.781 19.45C101.782 19.45 101.783 19.45 101.784 19.45C101.785 19.45 101.786 19.45 101.787 19.45C101.788 19.45 101.789 19.45 101.79 19.45C101.792 19.45 101.793 19.45 101.794 19.45C101.795 19.45 101.796 19.45 101.797 19.45C101.798 19.45 101.799 19.45 101.8 19.45C101.801 19.45 101.802 19.45 101.803 19.45C101.804 19.45 101.805 19.45 101.806 19.45C101.807 19.45 101.808 19.45 101.81 19.45C101.811 19.45 101.812 19.45 101.813 19.45C101.814 19.45 101.815 19.45 101.816 19.45C101.817 19.45 101.818 19.45 101.819 19.45C101.82 19.45 101.821 19.45 101.822 19.45C101.823 19.45 101.824 19.45 101.825 19.45C101.826 19.45 101.827 19.45 101.829 19.45C101.83 19.45 101.831 19.45 101.832 19.45C101.833 19.45 101.834 19.45 101.835 19.45C101.836 19.45 101.837 19.45 101.838 19.45C101.839 19.45 101.84 19.45 101.841 19.45C101.842 19.45 101.843 19.45 101.844 19.45C101.845 19.45 101.846 19.45 101.847 19.45C101.849 19.45 101.85 19.45 101.851 19.45C101.852 19.45 101.853 19.45 101.854 19.45C101.855 19.45 101.856 19.45 101.857 19.45C101.858 19.45 101.859 19.45 101.86 19.45C101.861 19.45 101.862 19.45 101.863 19.45C101.864 19.45 101.865 19.45 101.866 19.45C101.867 19.45 101.869 19.45 101.87 19.45C101.871 19.45 101.872 19.45 101.873 19.45C101.874 19.45 101.875 19.45 101.876 19.45C101.877 19.45 101.878 19.45 101.879 19.45C101.88 19.45 101.881 19.45 101.882 19.45C101.883 19.45 101.884 19.45 101.885 19.45C101.886 19.45 101.887 19.45 101.888 19.45C101.889 19.45 101.891 19.45 101.892 19.45C101.893 19.45 101.894 19.45 101.895 19.45C101.896 19.45 101.897 19.45 101.898 19.45C101.899 19.45 101.9 19.45 101.901 19.45C101.902 19.45 101.903 19.45 101.904 19.45C101.905 19.45 101.906 19.45 101.907 19.45C101.908 19.45 101.909 19.45 101.91 19.45C101.911 19.45 101.912 19.45 101.914 19.45C101.915 19.45 101.916 19.45 101.917 19.45C101.918 19.45 101.919 19.45 101.92 19.45C101.921 19.45 101.922 19.45 101.923 19.45C101.924 19.45 101.925 19.45 101.926 19.45C101.927 19.45 101.928 19.45 101.929 19.45C101.93 19.45 101.931 19.45 101.932 19.45C101.933 19.45 101.934 19.45 101.935 19.45C101.936 19.45 101.938 19.45 101.939 19.45C101.94 19.45 101.941 19.45 101.942 19.45C101.943 19.45 101.944 19.45 101.945 19.45C101.946 19.45 101.947 19.45 101.948 19.45C101.949 19.45 101.95 19.45 101.951 19.45C101.952 19.45 101.953 19.45 101.954 19.45C101.955 19.45 101.956 19.45 101.957 19.45C101.958 19.45 101.959 19.45 101.96 19.45C101.961 19.45 101.962 19.45 101.963 19.45C101.965 19.45 101.966 19.45 101.967 19.45C101.968 19.45 101.969 19.45 101.97 19.45C101.971 19.45 101.972 19.45 101.973 19.45C101.974 19.45 101.975 19.45 101.976 19.45C101.977 19.45 101.978 19.45 101.979 19.45C101.98 19.45 101.981 19.45 101.982 19.45C101.983 19.45 101.984 19.45 101.985 19.45C101.986 19.45 101.987 19.45 101.988 19.45C101.989 19.45 101.99 19.45 101.991 19.45C101.993 19.45 101.994 19.45 101.995 19.45C101.996 19.45 101.997 19.45 101.998 19.45C101.999 19.45 102 19.45 102.001 19.45C102.002 19.45 102.003 19.45 102.004 19.45C102.005 19.45 102.006 19.45 102.007 19.45C102.008 19.45 102.009 19.45 102.01 19.45C102.011 19.45 102.012 19.45 102.013 19.45C102.014 19.45 102.015 19.45 102.016 19.45C102.017 19.45 102.018 19.45 102.019 19.45C102.02 19.45 102.021 19.45 102.022 19.45C102.023 19.45 102.025 19.45 102.026 19.45C102.027 19.45 102.028 19.45 102.029 19.45C102.03 19.45 102.031 19.45 102.032 19.45C102.033 19.45 102.034 19.45 102.035 19.45C102.036 19.45 102.037 19.45 102.038 19.45C102.039 19.45 102.04 19.45 102.041 19.45C102.042 19.45 102.043 19.45 102.044 19.45C102.045 19.45 102.046 19.45 102.047 19.45C102.048 19.45 102.049 19.45 102.05 19.45C102.051 19.45 102.052 19.45 102.053 19.45C102.054 19.45 102.055 19.45 102.056 19.45C102.057 19.45 102.058 19.45 102.059 19.45C102.06 19.45 102.062 19.45 102.063 19.45C102.064 19.45 102.065 19.45 102.066 19.45C102.067 19.45 102.068 19.45 102.069 19.45C102.07 19.45 102.071 19.45 102.072 19.45C102.073 19.45 102.074 19.45 102.075 19.45C102.076 19.45 102.077 19.45 102.078 19.45C102.079 19.45 102.08 19.45 102.081 19.45C102.082 19.45 102.083 19.45 102.084 19.45C102.085 19.45 102.086 19.45 102.087 19.45C102.088 19.45 102.089 19.45 102.09 19.45C102.091 19.45 102.092 19.45 102.093 19.45C102.094 19.45 102.095 19.45 102.096 19.45C102.097 19.45 102.098 19.45 102.099 19.45C102.1 19.45 102.101 19.45 102.102 19.45C102.103 19.45 102.104 19.45 102.106 19.45C102.107 19.45 102.108 19.45 102.109 19.45C102.11 19.45 102.111 19.45 102.112 19.45C102.113 19.45 102.114 19.45 102.115 19.45C102.116 19.45 102.117 19.45 102.118 19.45C102.119 19.45 102.12 19.45 102.121 19.45C102.122 19.45 102.123 19.45 102.124 19.45C102.125 19.45 102.126 19.45 102.127 19.45C102.128 19.45 102.129 19.45 102.13 19.45C102.131 19.45 102.132 19.45 102.133 19.45C102.134 19.45 102.135 19.45 102.136 19.45C102.137 19.45 102.138 19.45 102.139 19.45C102.14 19.45 102.141 19.45 102.142 19.45C102.143 19.45 102.144 19.45 102.145 19.45C102.146 19.45 102.147 19.45 102.148 19.45C102.149 19.45 102.15 19.45 102.151 19.45C102.152 19.45 102.153 19.45 102.154 19.45C102.155 19.45 102.156 19.45 102.157 19.45C102.158 19.45 102.159 19.45 102.16 19.45C102.161 19.45 102.162 19.45 102.163 19.45C102.164 19.45 102.166 19.45 102.167 19.45C102.168 19.45 102.169 19.45 102.17 19.45C102.171 19.45 102.172 19.45 102.173 19.45C102.174 19.45 102.175 19.45 102.176 19.45C102.177 19.45 102.178 19.45 102.179 19.45C102.18 19.45 102.181 19.45 102.182 19.45C102.183 19.45 102.184 19.45 102.185 19.45C102.186 19.45 102.187 19.45 102.188 19.45C102.189 19.45 102.19 19.45 102.191 19.45C102.192 19.45 102.193 19.45 102.194 19.45C102.195 19.45 102.196 19.45 102.197 19.45C102.198 19.45 102.199 19.45 102.2 19.45C102.201 19.45 102.202 19.45 102.203 19.45C102.204 19.45 102.205 19.45 102.206 19.45C102.207 19.45 102.208 19.45 102.209 19.45C102.21 19.45 102.211 19.45 102.212 19.45C102.213 19.45 102.214 19.45 102.215 19.45C102.216 19.45 102.217 19.45 102.218 19.45C102.219 19.45 102.22 19.45 102.221 19.45C102.222 19.45 102.223 19.45 102.224 19.45C102.225 19.45 102.226 19.45 102.227 19.45C102.228 19.45 102.229 19.45 102.23 19.45C102.231 19.45 102.232 19.45 102.233 19.45C102.234 19.45 102.235 19.45 102.236 19.45C102.237 19.45 102.238 19.45 102.239 19.45C102.24 19.45 102.241 19.45 102.242 19.45C102.243 19.45 102.244 19.45 102.245 19.45C102.246 19.45 102.247 19.45 102.248 19.45C102.249 19.45 102.25 19.45 102.251 19.45C102.252 19.45 102.253 19.45 102.254 19.45C102.255 19.45 102.256 19.45 102.257 19.45C102.258 19.45 102.259 19.45 102.26 19.45C102.261 19.45 102.262 19.45 102.263 19.45C102.264 19.45 102.265 19.45 102.266 19.45C102.267 19.45 102.268 19.45 102.269 19.45C102.27 19.45 102.271 19.45 102.272 19.45C102.273 19.45 102.274 19.45 102.275 19.45C102.276 19.45 102.277 19.45 102.278 19.45C102.279 19.45 102.28 19.45 102.281 19.45C102.282 19.45 102.283 19.45 102.284 19.45C102.285 19.45 102.286 19.45 102.287 19.45C102.288 19.45 102.289 19.45 102.29 19.45C102.291 19.45 102.292 19.45 102.293 19.45C102.294 19.45 102.295 19.45 102.296 19.45C102.297 19.45 102.298 19.45 102.299 19.45C102.3 19.45 102.301 19.45 102.302 19.45C102.303 19.45 102.304 19.45 102.305 19.45C102.306 19.45 102.307 19.45 102.308 19.45C102.309 19.45 102.31 19.45 102.311 19.45C102.312 19.45 102.313 19.45 102.314 19.45C102.315 19.45 102.316 19.45 102.317 19.45C102.318 19.45 102.319 19.45 102.32 19.45C102.321 19.45 102.322 19.45 102.323 19.45C102.324 19.45 102.325 19.45 102.326 19.45C102.327 19.45 102.328 19.45 102.329 19.45C102.33 19.45 102.331 19.45 102.332 19.45C102.333 19.45 102.334 19.45 102.335 19.45C102.336 19.45 102.337 19.45 102.338 19.45C102.339 19.45 102.34 19.45 102.341 19.45C102.342 19.45 102.343 19.45 102.344 19.45C102.345 19.45 102.346 19.45 102.347 19.45C102.348 19.45 102.349 19.45 102.35 19.45C102.351 19.45 102.352 19.45 102.353 19.45C102.354 19.45 102.355 19.45 102.356 19.45C102.357 19.45 102.358 19.45 102.359 19.45C102.36 19.45 102.361 19.45 102.362 19.45C102.363 19.45 102.364 19.45 102.365 19.45C102.366 19.45 102.367 19.45 102.368 19.45C102.369 19.45 102.369 19.45 102.37 19.45C102.371 19.45 102.372 19.45 102.373 19.45C102.374 19.45 102.375 19.45 102.376 19.45C102.377 19.45 102.378 19.45 102.379 19.45C102.38 19.45 102.381 19.45 102.382 19.45C102.383 19.45 102.384 19.45 102.385 19.45C102.386 19.45 102.387 19.45 102.388 19.45C102.389 19.45 102.39 19.45 102.391 19.45C102.392 19.45 102.393 19.45 102.394 19.45C102.395 19.45 102.396 19.45 102.397 19.45C102.398 19.45 102.399 19.45 102.4 19.45C102.401 19.45 102.402 19.45 102.403 19.45C102.404 19.45 102.405 19.45 102.406 19.45C102.407 19.45 102.408 19.45 102.409 19.45C102.41 19.45 102.411 19.45 102.412 19.45C102.413 19.45 102.414 19.45 102.415 19.45C102.416 19.45 102.417 19.45 102.418 19.45C102.419 19.45 102.42 19.45 102.421 19.45C102.422 19.45 102.423 19.45 102.424 19.45C102.425 19.45 102.426 19.45 102.427 19.45C102.428 19.45 102.428 19.45 102.429 19.45C102.43 19.45 102.431 19.45 102.432 19.45C102.433 19.45 102.434 19.45 102.435 19.45C102.436 19.45 102.437 19.45 102.438 19.45C102.439 19.45 102.44 19.45 102.441 19.45C102.442 19.45 102.443 19.45 102.444 19.45C102.445 19.45 102.446 19.45 102.447 19.45C102.448 19.45 102.449 19.45 102.45 19.45V14.45ZM100.8 14.45C99.958 14.45 99.144 14.6199 98.372 14.9288L100.228 19.5712C100.456 19.4801 100.642 19.45 100.8 19.45V14.45ZM98.719 14.8185C93.83 15.9875 89.171 18.0035 84.748 20.8471L87.452 25.0529C91.429 22.4965 95.57 20.7125 99.881 19.6814L98.719 14.8185ZM84.725 20.8621C80.404 23.7076 76.868 27.0137 74.166 30.7969L78.234 33.7031C80.532 30.4863 83.596 27.5924 87.475 25.0379L84.725 20.8621ZM74.138 30.8362C71.461 34.741 70.238 38.8806 70.715 43.1761L75.685 42.6239C75.362 39.7194 76.139 36.759 78.262 33.6638L74.138 30.8362ZM70.828 43.6906C70.928 43.9906 71.178 44.7406 71.578 45.9406L76.322 44.3594C75.922 43.1594 75.672 42.4094 75.572 42.1094L70.828 43.6906ZM71.578 45.9406C71.758 46.4791 71.75 46.6287 71.75 46.5375C71.75 46.488 71.75 46.1556 71.969 45.7454C72.088 45.5226 72.269 45.2829 72.529 45.0766C72.792 44.8691 73.076 44.7415 73.344 44.6746L74.556 49.5254C75.366 49.323 76.01 48.794 76.381 48.0983C76.7 47.5007 76.75 46.912 76.75 46.5375C76.75 45.7963 76.542 45.0209 76.322 44.3594L71.578 45.9406ZM73.46 44.6485C73.658 44.6088 73.867 44.6088 74.065 44.6485C74.258 44.6872 74.4 44.7547 74.486 44.8063C74.636 44.8959 74.622 44.939 74.484 44.7469L70.416 47.6531C71.063 48.5599 72.421 49.9552 74.44 49.5515L73.46 44.6485ZM74.686 45.082C74.36 44.4296 74.06 43.6663 73.795 42.7816L69.005 44.2184C69.34 45.3337 69.74 46.3704 70.214 47.318L74.686 45.082ZM73.795 42.7816C73.494 41.7795 73.31 41.1305 73.225 40.7937L68.375 42.0063C68.49 42.4695 68.706 43.2205 69.005 44.2184L73.795 42.7816ZM73.289 41.1666C73.046 38.5765 73.676 36.086 75.291 33.6201L71.109 30.8799C68.924 34.214 67.954 37.8235 68.311 41.6333L73.289 41.1666ZM75.258 33.6693C77.088 31.0159 79.439 28.6098 82.34 26.4578L79.36 22.4423C76.061 24.8902 73.312 27.6841 71.142 30.8307L75.258 33.6693ZM82.35 26.45C85.423 24.1454 88.578 22.2352 91.814 20.712L89.686 16.188C86.122 17.8648 82.677 19.9546 79.35 22.45L82.35 26.45ZM91.814 20.712C95.121 19.1562 97.824 18.1924 99.96 17.7474L98.94 12.8525C96.276 13.4076 93.179 14.5438 89.686 16.188L91.814 20.712ZM100.056 17.7254C101.413 17.3863 103.052 17.2 105 17.2V12.2C102.748 12.2 100.687 12.4137 98.844 12.8746L100.056 17.7254ZM105 17.2C107.73 17.2 110.084 17.9161 112.144 19.3173L114.956 15.1827C112.016 13.1838 108.67 12.2 105 12.2V17.2ZM112.24 19.3791C113.837 20.3619 114.95 22.2554 114.95 25.95H119.95C119.95 21.2445 118.463 17.3381 114.86 15.1208L112.24 19.3791ZM114.95 25.95C114.95 29.1247 113.963 32.662 111.807 36.5992L116.193 39.0008C118.637 34.538 119.95 30.1753 119.95 25.95H114.95ZM111.82 36.5769C109.62 40.4976 106.729 44.5053 103.124 48.5974L106.876 51.9026C110.671 47.5947 113.78 43.3024 116.18 39.0231L111.82 36.5769ZM103.124 48.5974C99.488 52.7249 95.554 56.709 91.32 60.548L94.68 64.252C99.046 60.291 103.112 56.175 106.876 51.9026L103.124 48.5974ZM91.323 60.546C87.156 64.316 83.095 67.783 79.138 70.948L82.262 74.852C86.305 71.617 90.444 68.084 94.677 64.254L91.323 60.546ZM79.144 70.943C75.265 74.027 71.95 76.549 69.197 78.516L72.103 82.584C74.95 80.551 78.335 77.973 82.256 74.857L79.144 70.943ZM70.594 83.049C75.059 83.149 79.727 83.347 84.597 83.645L84.903 78.655C79.973 78.353 75.241 78.151 70.706 78.051L70.594 83.049ZM84.65 83.648C89.68 83.849 94.463 83.95 99 83.95V78.95C94.537 78.95 89.82 78.851 84.85 78.652L84.65 83.648ZM99 83.95C102.152 83.95 105.067 83.848 107.742 83.643L107.358 78.657C104.833 78.852 102.048 78.95 99 78.95V83.95ZM107.837 83.634C110.548 83.321 112.928 82.842 114.941 82.172L113.359 77.428C111.772 77.958 109.752 78.379 107.263 78.666L107.837 83.634ZM114.921 82.178C118.712 80.949 121.744 79.512 123.656 77.728L120.244 74.072C119.156 75.088 116.988 76.251 113.379 77.422L114.921 82.178ZM123.66 77.724C125.529 75.971 126.85 73.858 126.85 71.4H121.85C121.85 71.942 121.571 72.829 120.24 74.076L123.66 77.724ZM126.85 71.4C126.85 68.805 125.592 66.615 123.596 64.869L120.304 68.631C121.508 69.685 121.85 70.595 121.85 71.4H126.85ZM123.718 64.982C121.937 63.202 119.73 61.827 117.161 60.822L115.339 65.478C117.37 66.273 118.963 67.298 120.182 68.518L123.718 64.982ZM117.197 60.836C114.706 59.817 112.136 59.3 109.5 59.3V64.3C111.464 64.3 113.394 64.683 115.303 65.464L117.197 60.836ZM109.5 59.3C109.343 59.3 109.541 59.274 109.866 59.404C110.05 59.477 110.401 59.652 110.717 60.031C111.07 60.454 111.25 60.981 111.25 61.5H106.25C106.25 62.119 106.461 62.733 106.876 63.232C107.255 63.686 107.7 63.923 108.009 64.046C108.584 64.276 109.157 64.3 109.5 64.3V59.3ZM111.25 61.5C111.25 61.762 111.187 62.11 110.978 62.458C110.772 62.802 110.504 63.01 110.302 63.123C109.972 63.306 109.8 63.25 110.1 63.25V58.25C109.5 58.25 108.653 58.319 107.873 58.752C107.446 58.99 107.01 59.354 106.691 59.886C106.369 60.421 106.25 60.988 106.25 61.5H111.25ZM110.2 63.248C114.798 63.064 118.002 64.087 120.173 65.948L123.427 62.152C119.998 59.213 115.402 58.036 110 58.252L110.2 63.248ZM120.173 65.948C122.535 67.972 123.5 70.07 123.5 72.3H128.5C128.5 68.33 126.665 64.928 123.427 62.152L120.173 65.948ZM123.5 72.3C123.5 74.324 122.539 76.576 120.032 79.082L123.568 82.618C126.661 79.524 128.5 76.076 128.5 72.3H123.5ZM120 79.115C117.798 81.399 113.961 83.301 108.079 84.555L109.121 89.445C115.44 88.099 120.402 85.901 123.6 82.585L120 79.115ZM108.096 84.551C104.858 85.218 101.627 85.55 98.4 85.55V90.55C101.973 90.55 105.542 90.182 109.104 89.449L108.096 84.551ZM98.4 85.55C92.684 85.55 87.339 84.92 82.356 83.675L81.144 88.525C86.561 89.88 92.316 90.55 98.4 90.55V85.55ZM82.412 83.689C77.23 82.267 72.284 81.195 67.576 80.478L66.824 85.422C71.316 86.105 76.07 87.133 81.088 88.511L82.412 83.689ZM65.788 80.887C63.978 82.125 61.807 83.43 59.265 84.799L61.635 89.201C64.293 87.77 66.622 86.375 68.612 85.013L65.788 80.887ZM59.201 84.835C56.766 86.239 54.558 87.125 52.569 87.557L53.631 92.443C56.242 91.875 58.934 90.761 61.699 89.165L59.201 84.835ZM52.494 87.575C52.224 87.642 52.086 87.65 52.05 87.65V92.65C52.614 92.65 53.176 92.558 53.706 92.425L52.494 87.575ZM51.444 87.725C51.236 87.777 51.039 87.8 50.85 87.8V92.8C51.461 92.8 52.064 92.723 52.656 92.575L51.444 87.725ZM51.6 91.15C52.807 91.15 54.029 90.851 55.228 90.371L53.372 85.729C52.571 86.049 51.993 86.15 51.6 86.15V91.15ZM55.154 90.399C56.57 89.885 57.996 89.03 59.424 87.932L56.376 83.968C55.204 84.87 54.23 85.415 53.446 85.701L55.154 90.399ZM59.225 88.07C60.168 87.481 61.02 86.815 61.768 86.068L58.232 82.532C57.78 82.985 57.232 83.419 56.575 83.83L59.225 88.07ZM61.898 85.927C62.338 85.414 62.772 85.06 63.19 84.821L60.71 80.479C59.728 81.04 58.862 81.786 58.102 82.673L61.898 85.927ZM61.95 80.15H58.95V85.15H61.95V80.15ZM58.95 80.15C58.949 80.15 58.947 80.15 58.946 80.15C58.945 80.15 58.943 80.15 58.942 80.15C58.94 80.15 58.939 80.15 58.938 80.15C58.936 80.15 58.935 80.15 58.934 80.15C58.932 80.15 58.931 80.15 58.929 80.15C58.928 80.15 58.927 80.15 58.925 80.15C58.924 80.15 58.923 80.15 58.921 80.15C58.92 80.15 58.919 80.15 58.917 80.15C58.916 80.15 58.914 80.15 58.913 80.15C58.912 80.15 58.91 80.15 58.909 80.15C58.908 80.15 58.906 80.15 58.905 80.15C58.903 80.15 58.902 80.15 58.901 80.15C58.899 80.15 58.898 80.15 58.897 80.15C58.895 80.15 58.894 80.15 58.892 80.15C58.891 80.15 58.89 80.15 58.888 80.15C58.887 80.15 58.886 80.15 58.884 80.15C58.883 80.15 58.881 80.15 58.88 80.15C58.879 80.15 58.877 80.15 58.876 80.15C58.875 80.15 58.873 80.15 58.872 80.15C58.87 80.15 58.869 80.15 58.868 80.15C58.866 80.15 58.865 80.15 58.864 80.15C58.862 80.15 58.861 80.15 58.859 80.15C58.858 80.15 58.857 80.15 58.855 80.15C58.854 80.15 58.853 80.15 58.851 80.15C58.85 80.15 58.848 80.15 58.847 80.15C58.846 80.15 58.844 80.15 58.843 80.15C58.842 80.15 58.84 80.15 58.839 80.15C58.837 80.15 58.836 80.15 58.835 80.15C58.833 80.15 58.832 80.15 58.831 80.15C58.829 80.15 58.828 80.15 58.826 80.15C58.825 80.15 58.824 80.15 58.822 80.15C58.821 80.15 58.82 80.15 58.818 80.15C58.817 80.15 58.815 80.15 58.814 80.15C58.813 80.15 58.811 80.15 58.81 80.15C58.809 80.15 58.807 80.15 58.806 80.15C58.804 80.15 58.803 80.15 58.802 80.15C58.8 80.15 58.799 80.15 58.797 80.15C58.796 80.15 58.795 80.15 58.793 80.15C58.792 80.15 58.791 80.15 58.789 80.15C58.788 80.15 58.786 80.15 58.785 80.15C58.784 80.15 58.782 80.15 58.781 80.15C58.779 80.15 58.778 80.15 58.777 80.15C58.775 80.15 58.774 80.15 58.773 80.15C58.771 80.15 58.77 80.15 58.768 80.15C58.767 80.15 58.766 80.15 58.764 80.15C58.763 80.15 58.762 80.15 58.76 80.15C58.759 80.15 58.757 80.15 58.756 80.15C58.755 80.15 58.753 80.15 58.752 80.15C58.75 80.15 58.749 80.15 58.748 80.15C58.746 80.15 58.745 80.15 58.743 80.15C58.742 80.15 58.741 80.15 58.739 80.15C58.738 80.15 58.737 80.15 58.735 80.15C58.734 80.15 58.732 80.15 58.731 80.15C58.73 80.15 58.728 80.15 58.727 80.15C58.725 80.15 58.724 80.15 58.723 80.15C58.721 80.15 58.72 80.15 58.719 80.15C58.717 80.15 58.716 80.15 58.714 80.15C58.713 80.15 58.712 80.15 58.71 80.15C58.709 80.15 58.707 80.15 58.706 80.15C58.705 80.15 58.703 80.15 58.702 80.15C58.7 80.15 58.699 80.15 58.698 80.15C58.696 80.15 58.695 80.15 58.694 80.15C58.692 80.15 58.691 80.15 58.689 80.15C58.688 80.15 58.687 80.15 58.685 80.15C58.684 80.15 58.682 80.15 58.681 80.15C58.68 80.15 58.678 80.15 58.677 80.15C58.675 80.15 58.674 80.15 58.673 80.15C58.671 80.15 58.67 80.15 58.668 80.15C58.667 80.15 58.666 80.15 58.664 80.15C58.663 80.15 58.661 80.15 58.66 80.15C58.659 80.15 58.657 80.15 58.656 80.15C58.655 80.15 58.653 80.15 58.652 80.15C58.65 80.15 58.649 80.15 58.648 80.15C58.646 80.15 58.645 80.15 58.643 80.15C58.642 80.15 58.641 80.15 58.639 80.15C58.638 80.15 58.636 80.15 58.635 80.15C58.634 80.15 58.632 80.15 58.631 80.15C58.629 80.15 58.628 80.15 58.627 80.15C58.625 80.15 58.624 80.15 58.622 80.15C58.621 80.15 58.62 80.15 58.618 80.15C58.617 80.15 58.615 80.15 58.614 80.15C58.613 80.15 58.611 80.15 58.61 80.15C58.608 80.15 58.607 80.15 58.606 80.15C58.604 80.15 58.603 80.15 58.601 80.15C58.6 80.15 58.599 80.15 58.597 80.15C58.596 80.15 58.594 80.15 58.593 80.15C58.592 80.15 58.59 80.15 58.589 80.15C58.587 80.15 58.586 80.15 58.585 80.15C58.583 80.15 58.582 80.15 58.58 80.15C58.579 80.15 58.578 80.15 58.576 80.15C58.575 80.15 58.573 80.15 58.572 80.15C58.571 80.15 58.569 80.15 58.568 80.15C58.566 80.15 58.565 80.15 58.564 80.15C58.562 80.15 58.561 80.15 58.559 80.15C58.558 80.15 58.557 80.15 58.555 80.15C58.554 80.15 58.552 80.15 58.551 80.15C58.55 80.15 58.548 80.15 58.547 80.15C58.545 80.15 58.544 80.15 58.543 80.15C58.541 80.15 58.54 80.15 58.538 80.15C58.537 80.15 58.536 80.15 58.534 80.15C58.533 80.15 58.531 80.15 58.53 80.15C58.528 80.15 58.527 80.15 58.526 80.15C58.524 80.15 58.523 80.15 58.521 80.15C58.52 80.15 58.519 80.15 58.517 80.15C58.516 80.15 58.514 80.15 58.513 80.15C58.512 80.15 58.51 80.15 58.509 80.15C58.507 80.15 58.506 80.15 58.505 80.15C58.503 80.15 58.502 80.15 58.5 80.15C58.499 80.15 58.498 80.15 58.496 80.15C58.495 80.15 58.493 80.15 58.492 80.15C58.49 80.15 58.489 80.15 58.488 80.15C58.486 80.15 58.485 80.15 58.483 80.15C58.482 80.15 58.481 80.15 58.479 80.15C58.478 80.15 58.476 80.15 58.475 80.15C58.474 80.15 58.472 80.15 58.471 80.15C58.469 80.15 58.468 80.15 58.467 80.15C58.465 80.15 58.464 80.15 58.462 80.15C58.461 80.15 58.459 80.15 58.458 80.15C58.457 80.15 58.455 80.15 58.454 80.15C58.452 80.15 58.451 80.15 58.45 80.15C58.448 80.15 58.447 80.15 58.445 80.15C58.444 80.15 58.443 80.15 58.441 80.15C58.44 80.15 58.438 80.15 58.437 80.15C58.435 80.15 58.434 80.15 58.433 80.15C58.431 80.15 58.43 80.15 58.428 80.15C58.427 80.15 58.426 80.15 58.424 80.15C58.423 80.15 58.421 80.15 58.42 80.15C58.418 80.15 58.417 80.15 58.416 80.15C58.414 80.15 58.413 80.15 58.411 80.15C58.41 80.15 58.409 80.15 58.407 80.15C58.406 80.15 58.404 80.15 58.403 80.15C58.401 80.15 58.4 80.15 58.399 80.15C58.397 80.15 58.396 80.15 58.394 80.15C58.393 80.15 58.392 80.15 58.39 80.15C58.389 80.15 58.387 80.15 58.386 80.15C58.384 80.15 58.383 80.15 58.382 80.15C58.38 80.15 58.379 80.15 58.377 80.15C58.376 80.15 58.375 80.15 58.373 80.15C58.372 80.15 58.37 80.15 58.369 80.15C58.367 80.15 58.366 80.15 58.365 80.15C58.363 80.15 58.362 80.15 58.36 80.15C58.359 80.15 58.357 80.15 58.356 80.15C58.355 80.15 58.353 80.15 58.352 80.15C58.35 80.15 58.349 80.15 58.348 80.15C58.346 80.15 58.345 80.15 58.343 80.15C58.342 80.15 58.34 80.15 58.339 80.15C58.338 80.15 58.336 80.15 58.335 80.15C58.333 80.15 58.332 80.15 58.33 80.15C58.329 80.15 58.328 80.15 58.326 80.15C58.325 80.15 58.323 80.15 58.322 80.15C58.32 80.15 58.319 80.15 58.318 80.15C58.316 80.15 58.315 80.15 58.313 80.15C58.312 80.15 58.31 80.15 58.309 80.15C58.308 80.15 58.306 80.15 58.305 80.15C58.303 80.15 58.302 80.15 58.301 80.15C58.299 80.15 58.298 80.15 58.296 80.15C58.295 80.15 58.293 80.15 58.292 80.15C58.291 80.15 58.289 80.15 58.288 80.15C58.286 80.15 58.285 80.15 58.283 80.15C58.282 80.15 58.281 80.15 58.279 80.15C58.278 80.15 58.276 80.15 58.275 80.15C58.273 80.15 58.272 80.15 58.271 80.15C58.269 80.15 58.268 80.15 58.266 80.15C58.265 80.15 58.263 80.15 58.262 80.15C58.261 80.15 58.259 80.15 58.258 80.15C58.256 80.15 58.255 80.15 58.253 80.15C58.252 80.15 58.251 80.15 58.249 80.15C58.248 80.15 58.246 80.15 58.245 80.15C58.243 80.15 58.242 80.15 58.24 80.15C58.239 80.15 58.238 80.15 58.236 80.15C58.235 80.15 58.233 80.15 58.232 80.15C58.23 80.15 58.229 80.15 58.228 80.15C58.226 80.15 58.225 80.15 58.223 80.15C58.222 80.15 58.22 80.15 58.219 80.15C58.218 80.15 58.216 80.15 58.215 80.15C58.213 80.15 58.212 80.15 58.21 80.15C58.209 80.15 58.208 80.15 58.206 80.15C58.205 80.15 58.203 80.15 58.202 80.15C58.2 80.15 58.199 80.15 58.197 80.15C58.196 80.15 58.195 80.15 58.193 80.15C58.192 80.15 58.19 80.15 58.189 80.15C58.187 80.15 58.186 80.15 58.185 80.15C58.183 80.15 58.182 80.15 58.18 80.15C58.179 80.15 58.177 80.15 58.176 80.15C58.175 80.15 58.173 80.15 58.172 80.15C58.17 80.15 58.169 80.15 58.167 80.15C58.166 80.15 58.164 80.15 58.163 80.15C58.162 80.15 58.16 80.15 58.159 80.15C58.157 80.15 58.156 80.15 58.154 80.15C58.153 80.15 58.151 80.15 58.15 80.15C58.149 80.15 58.147 80.15 58.146 80.15C58.144 80.15 58.143 80.15 58.141 80.15C58.14 80.15 58.139 80.15 58.137 80.15C58.136 80.15 58.134 80.15 58.133 80.15C58.131 80.15 58.13 80.15 58.128 80.15C58.127 80.15 58.126 80.15 58.124 80.15C58.123 80.15 58.121 80.15 58.12 80.15C58.118 80.15 58.117 80.15 58.115 80.15C58.114 80.15 58.113 80.15 58.111 80.15C58.11 80.15 58.108 80.15 58.107 80.15C58.105 80.15 58.104 80.15 58.102 80.15C58.101 80.15 58.1 80.15 58.098 80.15C58.097 80.15 58.095 80.15 58.094 80.15C58.092 80.15 58.091 80.15 58.089 80.15C58.088 80.15 58.087 80.15 58.085 80.15C58.084 80.15 58.082 80.15 58.081 80.15C58.079 80.15 58.078 80.15 58.076 80.15C58.075 80.15 58.074 80.15 58.072 80.15C58.071 80.15 58.069 80.15 58.068 80.15C58.066 80.15 58.065 80.15 58.063 80.15C58.062 80.15 58.061 80.15 58.059 80.15C58.058 80.15 58.056 80.15 58.055 80.15C58.053 80.15 58.052 80.15 58.05 80.15C58.049 80.15 58.048 80.15 58.046 80.15C58.045 80.15 58.043 80.15 58.042 80.15C58.04 80.15 58.039 80.15 58.037 80.15C58.036 80.15 58.034 80.15 58.033 80.15C58.032 80.15 58.03 80.15 58.029 80.15C58.027 80.15 58.026 80.15 58.024 80.15C58.023 80.15 58.021 80.15 58.02 80.15C58.019 80.15 58.017 80.15 58.016 80.15C58.014 80.15 58.013 80.15 58.011 80.15C58.01 80.15 58.008 80.15 58.007 80.15C58.005 80.15 58.004 80.15 58.003 80.15C58.001 80.15 58 80.15 57.998 80.15C57.997 80.15 57.995 80.15 57.994 80.15C57.992 80.15 57.991 80.15 57.989 80.15C57.988 80.15 57.987 80.15 57.985 80.15C57.984 80.15 57.982 80.15 57.981 80.15C57.979 80.15 57.978 80.15 57.976 80.15C57.975 80.15 57.973 80.15 57.972 80.15C57.971 80.15 57.969 80.15 57.968 80.15C57.966 80.15 57.965 80.15 57.963 80.15C57.962 80.15 57.96 80.15 57.959 80.15C57.957 80.15 57.956 80.15 57.955 80.15C57.953 80.15 57.952 80.15 57.95 80.15C57.949 80.15 57.947 80.15 57.946 80.15C57.944 80.15 57.943 80.15 57.941 80.15C57.94 80.15 57.939 80.15 57.937 80.15C57.936 80.15 57.934 80.15 57.933 80.15C57.931 80.15 57.93 80.15 57.928 80.15C57.927 80.15 57.925 80.15 57.924 80.15C57.922 80.15 57.921 80.15 57.92 80.15C57.918 80.15 57.917 80.15 57.915 80.15C57.914 80.15 57.912 80.15 57.911 80.15C57.909 80.15 57.908 80.15 57.906 80.15C57.905 80.15 57.903 80.15 57.902 80.15C57.901 80.15 57.899 80.15 57.898 80.15C57.896 80.15 57.895 80.15 57.893 80.15C57.892 80.15 57.89 80.15 57.889 80.15C57.887 80.15 57.886 80.15 57.884 80.15C57.883 80.15 57.882 80.15 57.88 80.15C57.879 80.15 57.877 80.15 57.876 80.15C57.874 80.15 57.873 80.15 57.871 80.15C57.87 80.15 57.868 80.15 57.867 80.15C57.865 80.15 57.864 80.15 57.863 80.15C57.861 80.15 57.86 80.15 57.858 80.15C57.857 80.15 57.855 80.15 57.854 80.15C57.852 80.15 57.851 80.15 57.849 80.15C57.848 80.15 57.846 80.15 57.845 80.15C57.843 80.15 57.842 80.15 57.841 80.15C57.839 80.15 57.838 80.15 57.836 80.15C57.835 80.15 57.833 80.15 57.832 80.15C57.83 80.15 57.829 80.15 57.827 80.15C57.826 80.15 57.824 80.15 57.823 80.15C57.821 80.15 57.82 80.15 57.818 80.15C57.817 80.15 57.816 80.15 57.814 80.15C57.813 80.15 57.811 80.15 57.81 80.15C57.808 80.15 57.807 80.15 57.805 80.15C57.804 80.15 57.802 80.15 57.801 80.15C57.799 80.15 57.798 80.15 57.796 80.15C57.795 80.15 57.794 80.15 57.792 80.15C57.791 80.15 57.789 80.15 57.788 80.15C57.786 80.15 57.785 80.15 57.783 80.15C57.782 80.15 57.78 80.15 57.779 80.15C57.777 80.15 57.776 80.15 57.774 80.15C57.773 80.15 57.771 80.15 57.77 80.15C57.768 80.15 57.767 80.15 57.766 80.15C57.764 80.15 57.763 80.15 57.761 80.15C57.76 80.15 57.758 80.15 57.757 80.15C57.755 80.15 57.754 80.15 57.752 80.15C57.751 80.15 57.749 80.15 57.748 80.15C57.746 80.15 57.745 80.15 57.743 80.15C57.742 80.15 57.74 80.15 57.739 80.15C57.738 80.15 57.736 80.15 57.735 80.15C57.733 80.15 57.732 80.15 57.73 80.15C57.729 80.15 57.727 80.15 57.726 80.15C57.724 80.15 57.723 80.15 57.721 80.15C57.72 80.15 57.718 80.15 57.717 80.15C57.715 80.15 57.714 80.15 57.712 80.15C57.711 80.15 57.709 80.15 57.708 80.15C57.707 80.15 57.705 80.15 57.704 80.15C57.702 80.15 57.701 80.15 57.699 80.15C57.698 80.15 57.696 80.15 57.695 80.15C57.693 80.15 57.692 80.15 57.69 80.15C57.689 80.15 57.687 80.15 57.686 80.15C57.684 80.15 57.683 80.15 57.681 80.15C57.68 80.15 57.678 80.15 57.677 80.15C57.675 80.15 57.674 80.15 57.672 80.15C57.671 80.15 57.67 80.15 57.668 80.15C57.667 80.15 57.665 80.15 57.664 80.15C57.662 80.15 57.661 80.15 57.659 80.15C57.658 80.15 57.656 80.15 57.655 80.15C57.653 80.15 57.652 80.15 57.65 80.15C57.649 80.15 57.647 80.15 57.646 80.15C57.644 80.15 57.643 80.15 57.641 80.15C57.64 80.15 57.638 80.15 57.637 80.15C57.635 80.15 57.634 80.15 57.632 80.15C57.631 80.15 57.629 80.15 57.628 80.15C57.626 80.15 57.625 80.15 57.624 80.15C57.622 80.15 57.621 80.15 57.619 80.15C57.618 80.15 57.616 80.15 57.615 80.15C57.613 80.15 57.612 80.15 57.61 80.15C57.609 80.15 57.607 80.15 57.606 80.15C57.604 80.15 57.603 80.15 57.601 80.15C57.6 80.15 57.598 80.15 57.597 80.15C57.595 80.15 57.594 80.15 57.592 80.15C57.591 80.15 57.589 80.15 57.588 80.15C57.586 80.15 57.585 80.15 57.583 80.15C57.582 80.15 57.58 80.15 57.579 80.15C57.577 80.15 57.576 80.15 57.574 80.15C57.573 80.15 57.571 80.15 57.57 80.15C57.568 80.15 57.567 80.15 57.565 80.15C57.564 80.15 57.563 80.15 57.561 80.15C57.56 80.15 57.558 80.15 57.557 80.15C57.555 80.15 57.554 80.15 57.552 80.15C57.551 80.15 57.549 80.15 57.548 80.15C57.546 80.15 57.545 80.15 57.543 80.15C57.542 80.15 57.54 80.15 57.539 80.15C57.537 80.15 57.536 80.15 57.534 80.15C57.533 80.15 57.531 80.15 57.53 80.15C57.528 80.15 57.527 80.15 57.525 80.15C57.524 80.15 57.522 80.15 57.521 80.15C57.519 80.15 57.518 80.15 57.516 80.15C57.515 80.15 57.513 80.15 57.512 80.15C57.51 80.15 57.509 80.15 57.507 80.15C57.506 80.15 57.504 80.15 57.503 80.15C57.501 80.15 57.5 80.15 57.498 80.15C57.497 80.15 57.495 80.15 57.494 80.15C57.492 80.15 57.491 80.15 57.489 80.15C57.488 80.15 57.486 80.15 57.485 80.15C57.483 80.15 57.482 80.15 57.48 80.15C57.479 80.15 57.477 80.15 57.476 80.15C57.474 80.15 57.473 80.15 57.471 80.15C57.47 80.15 57.468 80.15 57.467 80.15C57.465 80.15 57.464 80.15 57.462 80.15C57.461 80.15 57.459 80.15 57.458 80.15C57.456 80.15 57.455 80.15 57.453 80.15C57.452 80.15 57.45 80.15 57.449 80.15C57.447 80.15 57.446 80.15 57.444 80.15C57.443 80.15 57.441 80.15 57.44 80.15C57.438 80.15 57.437 80.15 57.435 80.15C57.434 80.15 57.432 80.15 57.431 80.15C57.429 80.15 57.428 80.15 57.426 80.15C57.425 80.15 57.423 80.15 57.422 80.15C57.42 80.15 57.419 80.15 57.417 80.15C57.416 80.15 57.414 80.15 57.413 80.15C57.411 80.15 57.41 80.15 57.408 80.15C57.407 80.15 57.405 80.15 57.404 80.15C57.402 80.15 57.401 80.15 57.399 80.15C57.398 80.15 57.396 80.15 57.395 80.15C57.393 80.15 57.392 80.15 57.39 80.15C57.389 80.15 57.387 80.15 57.386 80.15C57.384 80.15 57.383 80.15 57.381 80.15C57.38 80.15 57.378 80.15 57.377 80.15C57.375 80.15 57.374 80.15 57.372 80.15C57.371 80.15 57.369 80.15 57.368 80.15C57.366 80.15 57.365 80.15 57.363 80.15C57.362 80.15 57.36 80.15 57.359 80.15C57.357 80.15 57.356 80.15 57.354 80.15C57.353 80.15 57.351 80.15 57.35 80.15C57.348 80.15 57.347 80.15 57.345 80.15C57.344 80.15 57.342 80.15 57.341 80.15C57.339 80.15 57.337 80.15 57.336 80.15C57.334 80.15 57.333 80.15 57.331 80.15C57.33 80.15 57.328 80.15 57.327 80.15C57.325 80.15 57.324 80.15 57.322 80.15C57.321 80.15 57.319 80.15 57.318 80.15C57.316 80.15 57.315 80.15 57.313 80.15C57.312 80.15 57.31 80.15 57.309 80.15C57.307 80.15 57.306 80.15 57.304 80.15C57.303 80.15 57.301 80.15 57.3 80.15C57.298 80.15 57.297 80.15 57.295 80.15C57.294 80.15 57.292 80.15 57.291 80.15C57.289 80.15 57.288 80.15 57.286 80.15C57.285 80.15 57.283 80.15 57.282 80.15C57.28 80.15 57.279 80.15 57.277 80.15C57.275 80.15 57.274 80.15 57.272 80.15C57.271 80.15 57.269 80.15 57.268 80.15C57.266 80.15 57.265 80.15 57.263 80.15C57.262 80.15 57.26 80.15 57.259 80.15C57.257 80.15 57.256 80.15 57.254 80.15C57.253 80.15 57.251 80.15 57.25 80.15C57.248 80.15 57.247 80.15 57.245 80.15C57.244 80.15 57.242 80.15 57.241 80.15C57.239 80.15 57.238 80.15 57.236 80.15C57.235 80.15 57.233 80.15 57.231 80.15C57.23 80.15 57.228 80.15 57.227 80.15C57.225 80.15 57.224 80.15 57.222 80.15C57.221 80.15 57.219 80.15 57.218 80.15C57.216 80.15 57.215 80.15 57.213 80.15C57.212 80.15 57.21 80.15 57.209 80.15C57.207 80.15 57.206 80.15 57.204 80.15C57.203 80.15 57.201 80.15 57.2 80.15C57.198 80.15 57.197 80.15 57.195 80.15C57.193 80.15 57.192 80.15 57.19 80.15C57.189 80.15 57.187 80.15 57.186 80.15C57.184 80.15 57.183 80.15 57.181 80.15C57.18 80.15 57.178 80.15 57.177 80.15C57.175 80.15 57.174 80.15 57.172 80.15C57.171 80.15 57.169 80.15 57.168 80.15C57.166 80.15 57.165 80.15 57.163 80.15C57.162 80.15 57.16 80.15 57.158 80.15C57.157 80.15 57.155 80.15 57.154 80.15C57.152 80.15 57.151 80.15 57.149 80.15C57.148 80.15 57.146 80.15 57.145 80.15C57.143 80.15 57.142 80.15 57.14 80.15C57.139 80.15 57.137 80.15 57.136 80.15C57.134 80.15 57.133 80.15 57.131 80.15C57.129 80.15 57.128 80.15 57.126 80.15C57.125 80.15 57.123 80.15 57.122 80.15C57.12 80.15 57.119 80.15 57.117 80.15C57.116 80.15 57.114 80.15 57.113 80.15C57.111 80.15 57.11 80.15 57.108 80.15C57.107 80.15 57.105 80.15 57.103 80.15C57.102 80.15 57.1 80.15 57.099 80.15C57.097 80.15 57.096 80.15 57.094 80.15C57.093 80.15 57.091 80.15 57.09 80.15C57.088 80.15 57.087 80.15 57.085 80.15C57.084 80.15 57.082 80.15 57.081 80.15C57.079 80.15 57.077 80.15 57.076 80.15C57.074 80.15 57.073 80.15 57.071 80.15C57.07 80.15 57.068 80.15 57.067 80.15C57.065 80.15 57.064 80.15 57.062 80.15C57.061 80.15 57.059 80.15 57.058 80.15C57.056 80.15 57.054 80.15 57.053 80.15C57.051 80.15 57.05 80.15 57.048 80.15C57.047 80.15 57.045 80.15 57.044 80.15C57.042 80.15 57.041 80.15 57.039 80.15C57.038 80.15 57.036 80.15 57.035 80.15C57.033 80.15 57.031 80.15 57.03 80.15C57.028 80.15 57.027 80.15 57.025 80.15C57.024 80.15 57.022 80.15 57.021 80.15C57.019 80.15 57.018 80.15 57.016 80.15C57.015 80.15 57.013 80.15 57.011 80.15C57.01 80.15 57.008 80.15 57.007 80.15C57.005 80.15 57.004 80.15 57.002 80.15C57.001 80.15 56.999 80.15 56.998 80.15C56.996 80.15 56.995 80.15 56.993 80.15C56.992 80.15 56.99 80.15 56.988 80.15C56.987 80.15 56.985 80.15 56.984 80.15C56.982 80.15 56.981 80.15 56.979 80.15C56.978 80.15 56.976 80.15 56.975 80.15C56.973 80.15 56.971 80.15 56.97 80.15C56.968 80.15 56.967 80.15 56.965 80.15C56.964 80.15 56.962 80.15 56.961 80.15C56.959 80.15 56.958 80.15 56.956 80.15C56.955 80.15 56.953 80.15 56.951 80.15C56.95 80.15 56.948 80.15 56.947 80.15C56.945 80.15 56.944 80.15 56.942 80.15C56.941 80.15 56.939 80.15 56.938 80.15C56.936 80.15 56.934 80.15 56.933 80.15C56.931 80.15 56.93 80.15 56.928 80.15C56.927 80.15 56.925 80.15 56.924 80.15C56.922 80.15 56.921 80.15 56.919 80.15C56.918 80.15 56.916 80.15 56.914 80.15C56.913 80.15 56.911 80.15 56.91 80.15C56.908 80.15 56.907 80.15 56.905 80.15C56.904 80.15 56.902 80.15 56.901 80.15C56.899 80.15 56.897 80.15 56.896 80.15C56.894 80.15 56.893 80.15 56.891 80.15C56.89 80.15 56.888 80.15 56.887 80.15C56.885 80.15 56.883 80.15 56.882 80.15C56.88 80.15 56.879 80.15 56.877 80.15C56.876 80.15 56.874 80.15 56.873 80.15C56.871 80.15 56.87 80.15 56.868 80.15C56.866 80.15 56.865 80.15 56.863 80.15C56.862 80.15 56.86 80.15 56.859 80.15C56.857 80.15 56.856 80.15 56.854 80.15C56.853 80.15 56.851 80.15 56.849 80.15C56.848 80.15 56.846 80.15 56.845 80.15C56.843 80.15 56.842 80.15 56.84 80.15C56.839 80.15 56.837 80.15 56.835 80.15C56.834 80.15 56.832 80.15 56.831 80.15C56.829 80.15 56.828 80.15 56.826 80.15C56.825 80.15 56.823 80.15 56.821 80.15C56.82 80.15 56.818 80.15 56.817 80.15C56.815 80.15 56.814 80.15 56.812 80.15C56.811 80.15 56.809 80.15 56.808 80.15C56.806 80.15 56.804 80.15 56.803 80.15C56.801 80.15 56.8 80.15 56.798 80.15C56.797 80.15 56.795 80.15 56.794 80.15C56.792 80.15 56.79 80.15 56.789 80.15C56.787 80.15 56.786 80.15 56.784 80.15C56.783 80.15 56.781 80.15 56.78 80.15C56.778 80.15 56.776 80.15 56.775 80.15C56.773 80.15 56.772 80.15 56.77 80.15C56.769 80.15 56.767 80.15 56.766 80.15C56.764 80.15 56.762 80.15 56.761 80.15C56.759 80.15 56.758 80.15 56.756 80.15C56.755 80.15 56.753 80.15 56.751 80.15C56.75 80.15 56.748 80.15 56.747 80.15C56.745 80.15 56.744 80.15 56.742 80.15C56.741 80.15 56.739 80.15 56.737 80.15C56.736 80.15 56.734 80.15 56.733 80.15C56.731 80.15 56.73 80.15 56.728 80.15C56.727 80.15 56.725 80.15 56.723 80.15C56.722 80.15 56.72 80.15 56.719 80.15C56.717 80.15 56.716 80.15 56.714 80.15C56.712 80.15 56.711 80.15 56.709 80.15C56.708 80.15 56.706 80.15 56.705 80.15C56.703 80.15 56.702 80.15 56.7 80.15V85.15C56.702 85.15 56.703 85.15 56.705 85.15C56.706 85.15 56.708 85.15 56.709 85.15C56.711 85.15 56.712 85.15 56.714 85.15C56.716 85.15 56.717 85.15 56.719 85.15C56.72 85.15 56.722 85.15 56.723 85.15C56.725 85.15 56.727 85.15 56.728 85.15C56.73 85.15 56.731 85.15 56.733 85.15C56.734 85.15 56.736 85.15 56.737 85.15C56.739 85.15 56.741 85.15 56.742 85.15C56.744 85.15 56.745 85.15 56.747 85.15C56.748 85.15 56.75 85.15 56.751 85.15C56.753 85.15 56.755 85.15 56.756 85.15C56.758 85.15 56.759 85.15 56.761 85.15C56.762 85.15 56.764 85.15 56.766 85.15C56.767 85.15 56.769 85.15 56.77 85.15C56.772 85.15 56.773 85.15 56.775 85.15C56.776 85.15 56.778 85.15 56.78 85.15C56.781 85.15 56.783 85.15 56.784 85.15C56.786 85.15 56.787 85.15 56.789 85.15C56.79 85.15 56.792 85.15 56.794 85.15C56.795 85.15 56.797 85.15 56.798 85.15C56.8 85.15 56.801 85.15 56.803 85.15C56.804 85.15 56.806 85.15 56.808 85.15C56.809 85.15 56.811 85.15 56.812 85.15C56.814 85.15 56.815 85.15 56.817 85.15C56.818 85.15 56.82 85.15 56.821 85.15C56.823 85.15 56.825 85.15 56.826 85.15C56.828 85.15 56.829 85.15 56.831 85.15C56.832 85.15 56.834 85.15 56.835 85.15C56.837 85.15 56.839 85.15 56.84 85.15C56.842 85.15 56.843 85.15 56.845 85.15C56.846 85.15 56.848 85.15 56.849 85.15C56.851 85.15 56.853 85.15 56.854 85.15C56.856 85.15 56.857 85.15 56.859 85.15C56.86 85.15 56.862 85.15 56.863 85.15C56.865 85.15 56.866 85.15 56.868 85.15C56.87 85.15 56.871 85.15 56.873 85.15C56.874 85.15 56.876 85.15 56.877 85.15C56.879 85.15 56.88 85.15 56.882 85.15C56.883 85.15 56.885 85.15 56.887 85.15C56.888 85.15 56.89 85.15 56.891 85.15C56.893 85.15 56.894 85.15 56.896 85.15C56.897 85.15 56.899 85.15 56.901 85.15C56.902 85.15 56.904 85.15 56.905 85.15C56.907 85.15 56.908 85.15 56.91 85.15C56.911 85.15 56.913 85.15 56.914 85.15C56.916 85.15 56.918 85.15 56.919 85.15C56.921 85.15 56.922 85.15 56.924 85.15C56.925 85.15 56.927 85.15 56.928 85.15C56.93 85.15 56.931 85.15 56.933 85.15C56.934 85.15 56.936 85.15 56.938 85.15C56.939 85.15 56.941 85.15 56.942 85.15C56.944 85.15 56.945 85.15 56.947 85.15C56.948 85.15 56.95 85.15 56.951 85.15C56.953 85.15 56.955 85.15 56.956 85.15C56.958 85.15 56.959 85.15 56.961 85.15C56.962 85.15 56.964 85.15 56.965 85.15C56.967 85.15 56.968 85.15 56.97 85.15C56.971 85.15 56.973 85.15 56.975 85.15C56.976 85.15 56.978 85.15 56.979 85.15C56.981 85.15 56.982 85.15 56.984 85.15C56.985 85.15 56.987 85.15 56.988 85.15C56.99 85.15 56.992 85.15 56.993 85.15C56.995 85.15 56.996 85.15 56.998 85.15C56.999 85.15 57.001 85.15 57.002 85.15C57.004 85.15 57.005 85.15 57.007 85.15C57.008 85.15 57.01 85.15 57.011 85.15C57.013 85.15 57.015 85.15 57.016 85.15C57.018 85.15 57.019 85.15 57.021 85.15C57.022 85.15 57.024 85.15 57.025 85.15C57.027 85.15 57.028 85.15 57.03 85.15C57.031 85.15 57.033 85.15 57.035 85.15C57.036 85.15 57.038 85.15 57.039 85.15C57.041 85.15 57.042 85.15 57.044 85.15C57.045 85.15 57.047 85.15 57.048 85.15C57.05 85.15 57.051 85.15 57.053 85.15C57.054 85.15 57.056 85.15 57.058 85.15C57.059 85.15 57.061 85.15 57.062 85.15C57.064 85.15 57.065 85.15 57.067 85.15C57.068 85.15 57.07 85.15 57.071 85.15C57.073 85.15 57.074 85.15 57.076 85.15C57.077 85.15 57.079 85.15 57.081 85.15C57.082 85.15 57.084 85.15 57.085 85.15C57.087 85.15 57.088 85.15 57.09 85.15C57.091 85.15 57.093 85.15 57.094 85.15C57.096 85.15 57.097 85.15 57.099 85.15C57.1 85.15 57.102 85.15 57.103 85.15C57.105 85.15 57.107 85.15 57.108 85.15C57.11 85.15 57.111 85.15 57.113 85.15C57.114 85.15 57.116 85.15 57.117 85.15C57.119 85.15 57.12 85.15 57.122 85.15C57.123 85.15 57.125 85.15 57.126 85.15C57.128 85.15 57.129 85.15 57.131 85.15C57.133 85.15 57.134 85.15 57.136 85.15C57.137 85.15 57.139 85.15 57.14 85.15C57.142 85.15 57.143 85.15 57.145 85.15C57.146 85.15 57.148 85.15 57.149 85.15C57.151 85.15 57.152 85.15 57.154 85.15C57.155 85.15 57.157 85.15 57.158 85.15C57.16 85.15 57.162 85.15 57.163 85.15C57.165 85.15 57.166 85.15 57.168 85.15C57.169 85.15 57.171 85.15 57.172 85.15C57.174 85.15 57.175 85.15 57.177 85.15C57.178 85.15 57.18 85.15 57.181 85.15C57.183 85.15 57.184 85.15 57.186 85.15C57.187 85.15 57.189 85.15 57.19 85.15C57.192 85.15 57.193 85.15 57.195 85.15C57.197 85.15 57.198 85.15 57.2 85.15C57.201 85.15 57.203 85.15 57.204 85.15C57.206 85.15 57.207 85.15 57.209 85.15C57.21 85.15 57.212 85.15 57.213 85.15C57.215 85.15 57.216 85.15 57.218 85.15C57.219 85.15 57.221 85.15 57.222 85.15C57.224 85.15 57.225 85.15 57.227 85.15C57.228 85.15 57.23 85.15 57.231 85.15C57.233 85.15 57.235 85.15 57.236 85.15C57.238 85.15 57.239 85.15 57.241 85.15C57.242 85.15 57.244 85.15 57.245 85.15C57.247 85.15 57.248 85.15 57.25 85.15C57.251 85.15 57.253 85.15 57.254 85.15C57.256 85.15 57.257 85.15 57.259 85.15C57.26 85.15 57.262 85.15 57.263 85.15C57.265 85.15 57.266 85.15 57.268 85.15C57.269 85.15 57.271 85.15 57.272 85.15C57.274 85.15 57.275 85.15 57.277 85.15C57.279 85.15 57.28 85.15 57.282 85.15C57.283 85.15 57.285 85.15 57.286 85.15C57.288 85.15 57.289 85.15 57.291 85.15C57.292 85.15 57.294 85.15 57.295 85.15C57.297 85.15 57.298 85.15 57.3 85.15C57.301 85.15 57.303 85.15 57.304 85.15C57.306 85.15 57.307 85.15 57.309 85.15C57.31 85.15 57.312 85.15 57.313 85.15C57.315 85.15 57.316 85.15 57.318 85.15C57.319 85.15 57.321 85.15 57.322 85.15C57.324 85.15 57.325 85.15 57.327 85.15C57.328 85.15 57.33 85.15 57.331 85.15C57.333 85.15 57.334 85.15 57.336 85.15C57.337 85.15 57.339 85.15 57.341 85.15C57.342 85.15 57.344 85.15 57.345 85.15C57.347 85.15 57.348 85.15 57.35 85.15C57.351 85.15 57.353 85.15 57.354 85.15C57.356 85.15 57.357 85.15 57.359 85.15C57.36 85.15 57.362 85.15 57.363 85.15C57.365 85.15 57.366 85.15 57.368 85.15C57.369 85.15 57.371 85.15 57.372 85.15C57.374 85.15 57.375 85.15 57.377 85.15C57.378 85.15 57.38 85.15 57.381 85.15C57.383 85.15 57.384 85.15 57.386 85.15C57.387 85.15 57.389 85.15 57.39 85.15C57.392 85.15 57.393 85.15 57.395 85.15C57.396 85.15 57.398 85.15 57.399 85.15C57.401 85.15 57.402 85.15 57.404 85.15C57.405 85.15 57.407 85.15 57.408 85.15C57.41 85.15 57.411 85.15 57.413 85.15C57.414 85.15 57.416 85.15 57.417 85.15C57.419 85.15 57.42 85.15 57.422 85.15C57.423 85.15 57.425 85.15 57.426 85.15C57.428 85.15 57.429 85.15 57.431 85.15C57.432 85.15 57.434 85.15 57.435 85.15C57.437 85.15 57.438 85.15 57.44 85.15C57.441 85.15 57.443 85.15 57.444 85.15C57.446 85.15 57.447 85.15 57.449 85.15C57.45 85.15 57.452 85.15 57.453 85.15C57.455 85.15 57.456 85.15 57.458 85.15C57.459 85.15 57.461 85.15 57.462 85.15C57.464 85.15 57.465 85.15 57.467 85.15C57.468 85.15 57.47 85.15 57.471 85.15C57.473 85.15 57.474 85.15 57.476 85.15C57.477 85.15 57.479 85.15 57.48 85.15C57.482 85.15 57.483 85.15 57.485 85.15C57.486 85.15 57.488 85.15 57.489 85.15C57.491 85.15 57.492 85.15 57.494 85.15C57.495 85.15 57.497 85.15 57.498 85.15C57.5 85.15 57.501 85.15 57.503 85.15C57.504 85.15 57.506 85.15 57.507 85.15C57.509 85.15 57.51 85.15 57.512 85.15C57.513 85.15 57.515 85.15 57.516 85.15C57.518 85.15 57.519 85.15 57.521 85.15C57.522 85.15 57.524 85.15 57.525 85.15C57.527 85.15 57.528 85.15 57.53 85.15C57.531 85.15 57.533 85.15 57.534 85.15C57.536 85.15 57.537 85.15 57.539 85.15C57.54 85.15 57.542 85.15 57.543 85.15C57.545 85.15 57.546 85.15 57.548 85.15C57.549 85.15 57.551 85.15 57.552 85.15C57.554 85.15 57.555 85.15 57.557 85.15C57.558 85.15 57.56 85.15 57.561 85.15C57.563 85.15 57.564 85.15 57.565 85.15C57.567 85.15 57.568 85.15 57.57 85.15C57.571 85.15 57.573 85.15 57.574 85.15C57.576 85.15 57.577 85.15 57.579 85.15C57.58 85.15 57.582 85.15 57.583 85.15C57.585 85.15 57.586 85.15 57.588 85.15C57.589 85.15 57.591 85.15 57.592 85.15C57.594 85.15 57.595 85.15 57.597 85.15C57.598 85.15 57.6 85.15 57.601 85.15C57.603 85.15 57.604 85.15 57.606 85.15C57.607 85.15 57.609 85.15 57.61 85.15C57.612 85.15 57.613 85.15 57.615 85.15C57.616 85.15 57.618 85.15 57.619 85.15C57.621 85.15 57.622 85.15 57.624 85.15C57.625 85.15 57.626 85.15 57.628 85.15C57.629 85.15 57.631 85.15 57.632 85.15C57.634 85.15 57.635 85.15 57.637 85.15C57.638 85.15 57.64 85.15 57.641 85.15C57.643 85.15 57.644 85.15 57.646 85.15C57.647 85.15 57.649 85.15 57.65 85.15C57.652 85.15 57.653 85.15 57.655 85.15C57.656 85.15 57.658 85.15 57.659 85.15C57.661 85.15 57.662 85.15 57.664 85.15C57.665 85.15 57.667 85.15 57.668 85.15C57.67 85.15 57.671 85.15 57.672 85.15C57.674 85.15 57.675 85.15 57.677 85.15C57.678 85.15 57.68 85.15 57.681 85.15C57.683 85.15 57.684 85.15 57.686 85.15C57.687 85.15 57.689 85.15 57.69 85.15C57.692 85.15 57.693 85.15 57.695 85.15C57.696 85.15 57.698 85.15 57.699 85.15C57.701 85.15 57.702 85.15 57.704 85.15C57.705 85.15 57.707 85.15 57.708 85.15C57.709 85.15 57.711 85.15 57.712 85.15C57.714 85.15 57.715 85.15 57.717 85.15C57.718 85.15 57.72 85.15 57.721 85.15C57.723 85.15 57.724 85.15 57.726 85.15C57.727 85.15 57.729 85.15 57.73 85.15C57.732 85.15 57.733 85.15 57.735 85.15C57.736 85.15 57.738 85.15 57.739 85.15C57.74 85.15 57.742 85.15 57.743 85.15C57.745 85.15 57.746 85.15 57.748 85.15C57.749 85.15 57.751 85.15 57.752 85.15C57.754 85.15 57.755 85.15 57.757 85.15C57.758 85.15 57.76 85.15 57.761 85.15C57.763 85.15 57.764 85.15 57.766 85.15C57.767 85.15 57.768 85.15 57.77 85.15C57.771 85.15 57.773 85.15 57.774 85.15C57.776 85.15 57.777 85.15 57.779 85.15C57.78 85.15 57.782 85.15 57.783 85.15C57.785 85.15 57.786 85.15 57.788 85.15C57.789 85.15 57.791 85.15 57.792 85.15C57.794 85.15 57.795 85.15 57.796 85.15C57.798 85.15 57.799 85.15 57.801 85.15C57.802 85.15 57.804 85.15 57.805 85.15C57.807 85.15 57.808 85.15 57.81 85.15C57.811 85.15 57.813 85.15 57.814 85.15C57.816 85.15 57.817 85.15 57.818 85.15C57.82 85.15 57.821 85.15 57.823 85.15C57.824 85.15 57.826 85.15 57.827 85.15C57.829 85.15 57.83 85.15 57.832 85.15C57.833 85.15 57.835 85.15 57.836 85.15C57.838 85.15 57.839 85.15 57.841 85.15C57.842 85.15 57.843 85.15 57.845 85.15C57.846 85.15 57.848 85.15 57.849 85.15C57.851 85.15 57.852 85.15 57.854 85.15C57.855 85.15 57.857 85.15 57.858 85.15C57.86 85.15 57.861 85.15 57.863 85.15C57.864 85.15 57.865 85.15 57.867 85.15C57.868 85.15 57.87 85.15 57.871 85.15C57.873 85.15 57.874 85.15 57.876 85.15C57.877 85.15 57.879 85.15 57.88 85.15C57.882 85.15 57.883 85.15 57.884 85.15C57.886 85.15 57.887 85.15 57.889 85.15C57.89 85.15 57.892 85.15 57.893 85.15C57.895 85.15 57.896 85.15 57.898 85.15C57.899 85.15 57.901 85.15 57.902 85.15C57.903 85.15 57.905 85.15 57.906 85.15C57.908 85.15 57.909 85.15 57.911 85.15C57.912 85.15 57.914 85.15 57.915 85.15C57.917 85.15 57.918 85.15 57.92 85.15C57.921 85.15 57.922 85.15 57.924 85.15C57.925 85.15 57.927 85.15 57.928 85.15C57.93 85.15 57.931 85.15 57.933 85.15C57.934 85.15 57.936 85.15 57.937 85.15C57.939 85.15 57.94 85.15 57.941 85.15C57.943 85.15 57.944 85.15 57.946 85.15C57.947 85.15 57.949 85.15 57.95 85.15C57.952 85.15 57.953 85.15 57.955 85.15C57.956 85.15 57.957 85.15 57.959 85.15C57.96 85.15 57.962 85.15 57.963 85.15C57.965 85.15 57.966 85.15 57.968 85.15C57.969 85.15 57.971 85.15 57.972 85.15C57.973 85.15 57.975 85.15 57.976 85.15C57.978 85.15 57.979 85.15 57.981 85.15C57.982 85.15 57.984 85.15 57.985 85.15C57.987 85.15 57.988 85.15 57.989 85.15C57.991 85.15 57.992 85.15 57.994 85.15C57.995 85.15 57.997 85.15 57.998 85.15C58 85.15 58.001 85.15 58.003 85.15C58.004 85.15 58.005 85.15 58.007 85.15C58.008 85.15 58.01 85.15 58.011 85.15C58.013 85.15 58.014 85.15 58.016 85.15C58.017 85.15 58.019 85.15 58.02 85.15C58.021 85.15 58.023 85.15 58.024 85.15C58.026 85.15 58.027 85.15 58.029 85.15C58.03 85.15 58.032 85.15 58.033 85.15C58.034 85.15 58.036 85.15 58.037 85.15C58.039 85.15 58.04 85.15 58.042 85.15C58.043 85.15 58.045 85.15 58.046 85.15C58.048 85.15 58.049 85.15 58.05 85.15C58.052 85.15 58.053 85.15 58.055 85.15C58.056 85.15 58.058 85.15 58.059 85.15C58.061 85.15 58.062 85.15 58.063 85.15C58.065 85.15 58.066 85.15 58.068 85.15C58.069 85.15 58.071 85.15 58.072 85.15C58.074 85.15 58.075 85.15 58.076 85.15C58.078 85.15 58.079 85.15 58.081 85.15C58.082 85.15 58.084 85.15 58.085 85.15C58.087 85.15 58.088 85.15 58.089 85.15C58.091 85.15 58.092 85.15 58.094 85.15C58.095 85.15 58.097 85.15 58.098 85.15C58.1 85.15 58.101 85.15 58.102 85.15C58.104 85.15 58.105 85.15 58.107 85.15C58.108 85.15 58.11 85.15 58.111 85.15C58.113 85.15 58.114 85.15 58.115 85.15C58.117 85.15 58.118 85.15 58.12 85.15C58.121 85.15 58.123 85.15 58.124 85.15C58.126 85.15 58.127 85.15 58.128 85.15C58.13 85.15 58.131 85.15 58.133 85.15C58.134 85.15 58.136 85.15 58.137 85.15C58.139 85.15 58.14 85.15 58.141 85.15C58.143 85.15 58.144 85.15 58.146 85.15C58.147 85.15 58.149 85.15 58.15 85.15C58.151 85.15 58.153 85.15 58.154 85.15C58.156 85.15 58.157 85.15 58.159 85.15C58.16 85.15 58.162 85.15 58.163 85.15C58.164 85.15 58.166 85.15 58.167 85.15C58.169 85.15 58.17 85.15 58.172 85.15C58.173 85.15 58.175 85.15 58.176 85.15C58.177 85.15 58.179 85.15 58.18 85.15C58.182 85.15 58.183 85.15 58.185 85.15C58.186 85.15 58.187 85.15 58.189 85.15C58.19 85.15 58.192 85.15 58.193 85.15C58.195 85.15 58.196 85.15 58.197 85.15C58.199 85.15 58.2 85.15 58.202 85.15C58.203 85.15 58.205 85.15 58.206 85.15C58.208 85.15 58.209 85.15 58.21 85.15C58.212 85.15 58.213 85.15 58.215 85.15C58.216 85.15 58.218 85.15 58.219 85.15C58.22 85.15 58.222 85.15 58.223 85.15C58.225 85.15 58.226 85.15 58.228 85.15C58.229 85.15 58.23 85.15 58.232 85.15C58.233 85.15 58.235 85.15 58.236 85.15C58.238 85.15 58.239 85.15 58.24 85.15C58.242 85.15 58.243 85.15 58.245 85.15C58.246 85.15 58.248 85.15 58.249 85.15C58.251 85.15 58.252 85.15 58.253 85.15C58.255 85.15 58.256 85.15 58.258 85.15C58.259 85.15 58.261 85.15 58.262 85.15C58.263 85.15 58.265 85.15 58.266 85.15C58.268 85.15 58.269 85.15 58.271 85.15C58.272 85.15 58.273 85.15 58.275 85.15C58.276 85.15 58.278 85.15 58.279 85.15C58.281 85.15 58.282 85.15 58.283 85.15C58.285 85.15 58.286 85.15 58.288 85.15C58.289 85.15 58.291 85.15 58.292 85.15C58.293 85.15 58.295 85.15 58.296 85.15C58.298 85.15 58.299 85.15 58.301 85.15C58.302 85.15 58.303 85.15 58.305 85.15C58.306 85.15 58.308 85.15 58.309 85.15C58.31 85.15 58.312 85.15 58.313 85.15C58.315 85.15 58.316 85.15 58.318 85.15C58.319 85.15 58.32 85.15 58.322 85.15C58.323 85.15 58.325 85.15 58.326 85.15C58.328 85.15 58.329 85.15 58.33 85.15C58.332 85.15 58.333 85.15 58.335 85.15C58.336 85.15 58.338 85.15 58.339 85.15C58.34 85.15 58.342 85.15 58.343 85.15C58.345 85.15 58.346 85.15 58.348 85.15C58.349 85.15 58.35 85.15 58.352 85.15C58.353 85.15 58.355 85.15 58.356 85.15C58.357 85.15 58.359 85.15 58.36 85.15C58.362 85.15 58.363 85.15 58.365 85.15C58.366 85.15 58.367 85.15 58.369 85.15C58.37 85.15 58.372 85.15 58.373 85.15C58.375 85.15 58.376 85.15 58.377 85.15C58.379 85.15 58.38 85.15 58.382 85.15C58.383 85.15 58.384 85.15 58.386 85.15C58.387 85.15 58.389 85.15 58.39 85.15C58.392 85.15 58.393 85.15 58.394 85.15C58.396 85.15 58.397 85.15 58.399 85.15C58.4 85.15 58.401 85.15 58.403 85.15C58.404 85.15 58.406 85.15 58.407 85.15C58.409 85.15 58.41 85.15 58.411 85.15C58.413 85.15 58.414 85.15 58.416 85.15C58.417 85.15 58.418 85.15 58.42 85.15C58.421 85.15 58.423 85.15 58.424 85.15C58.426 85.15 58.427 85.15 58.428 85.15C58.43 85.15 58.431 85.15 58.433 85.15C58.434 85.15 58.435 85.15 58.437 85.15C58.438 85.15 58.44 85.15 58.441 85.15C58.443 85.15 58.444 85.15 58.445 85.15C58.447 85.15 58.448 85.15 58.45 85.15C58.451 85.15 58.452 85.15 58.454 85.15C58.455 85.15 58.457 85.15 58.458 85.15C58.459 85.15 58.461 85.15 58.462 85.15C58.464 85.15 58.465 85.15 58.467 85.15C58.468 85.15 58.469 85.15 58.471 85.15C58.472 85.15 58.474 85.15 58.475 85.15C58.476 85.15 58.478 85.15 58.479 85.15C58.481 85.15 58.482 85.15 58.483 85.15C58.485 85.15 58.486 85.15 58.488 85.15C58.489 85.15 58.49 85.15 58.492 85.15C58.493 85.15 58.495 85.15 58.496 85.15C58.498 85.15 58.499 85.15 58.5 85.15C58.502 85.15 58.503 85.15 58.505 85.15C58.506 85.15 58.507 85.15 58.509 85.15C58.51 85.15 58.512 85.15 58.513 85.15C58.514 85.15 58.516 85.15 58.517 85.15C58.519 85.15 58.52 85.15 58.521 85.15C58.523 85.15 58.524 85.15 58.526 85.15C58.527 85.15 58.528 85.15 58.53 85.15C58.531 85.15 58.533 85.15 58.534 85.15C58.536 85.15 58.537 85.15 58.538 85.15C58.54 85.15 58.541 85.15 58.543 85.15C58.544 85.15 58.545 85.15 58.547 85.15C58.548 85.15 58.55 85.15 58.551 85.15C58.552 85.15 58.554 85.15 58.555 85.15C58.557 85.15 58.558 85.15 58.559 85.15C58.561 85.15 58.562 85.15 58.564 85.15C58.565 85.15 58.566 85.15 58.568 85.15C58.569 85.15 58.571 85.15 58.572 85.15C58.573 85.15 58.575 85.15 58.576 85.15C58.578 85.15 58.579 85.15 58.58 85.15C58.582 85.15 58.583 85.15 58.585 85.15C58.586 85.15 58.587 85.15 58.589 85.15C58.59 85.15 58.592 85.15 58.593 85.15C58.594 85.15 58.596 85.15 58.597 85.15C58.599 85.15 58.6 85.15 58.601 85.15C58.603 85.15 58.604 85.15 58.606 85.15C58.607 85.15 58.608 85.15 58.61 85.15C58.611 85.15 58.613 85.15 58.614 85.15C58.615 85.15 58.617 85.15 58.618 85.15C58.62 85.15 58.621 85.15 58.622 85.15C58.624 85.15 58.625 85.15 58.627 85.15C58.628 85.15 58.629 85.15 58.631 85.15C58.632 85.15 58.634 85.15 58.635 85.15C58.636 85.15 58.638 85.15 58.639 85.15C58.641 85.15 58.642 85.15 58.643 85.15C58.645 85.15 58.646 85.15 58.648 85.15C58.649 85.15 58.65 85.15 58.652 85.15C58.653 85.15 58.655 85.15 58.656 85.15C58.657 85.15 58.659 85.15 58.66 85.15C58.661 85.15 58.663 85.15 58.664 85.15C58.666 85.15 58.667 85.15 58.668 85.15C58.67 85.15 58.671 85.15 58.673 85.15C58.674 85.15 58.675 85.15 58.677 85.15C58.678 85.15 58.68 85.15 58.681 85.15C58.682 85.15 58.684 85.15 58.685 85.15C58.687 85.15 58.688 85.15 58.689 85.15C58.691 85.15 58.692 85.15 58.694 85.15C58.695 85.15 58.696 85.15 58.698 85.15C58.699 85.15 58.7 85.15 58.702 85.15C58.703 85.15 58.705 85.15 58.706 85.15C58.707 85.15 58.709 85.15 58.71 85.15C58.712 85.15 58.713 85.15 58.714 85.15C58.716 85.15 58.717 85.15 58.719 85.15C58.72 85.15 58.721 85.15 58.723 85.15C58.724 85.15 58.725 85.15 58.727 85.15C58.728 85.15 58.73 85.15 58.731 85.15C58.732 85.15 58.734 85.15 58.735 85.15C58.737 85.15 58.738 85.15 58.739 85.15C58.741 85.15 58.742 85.15 58.743 85.15C58.745 85.15 58.746 85.15 58.748 85.15C58.749 85.15 58.75 85.15 58.752 85.15C58.753 85.15 58.755 85.15 58.756 85.15C58.757 85.15 58.759 85.15 58.76 85.15C58.762 85.15 58.763 85.15 58.764 85.15C58.766 85.15 58.767 85.15 58.768 85.15C58.77 85.15 58.771 85.15 58.773 85.15C58.774 85.15 58.775 85.15 58.777 85.15C58.778 85.15 58.779 85.15 58.781 85.15C58.782 85.15 58.784 85.15 58.785 85.15C58.786 85.15 58.788 85.15 58.789 85.15C58.791 85.15 58.792 85.15 58.793 85.15C58.795 85.15 58.796 85.15 58.797 85.15C58.799 85.15 58.8 85.15 58.802 85.15C58.803 85.15 58.804 85.15 58.806 85.15C58.807 85.15 58.809 85.15 58.81 85.15C58.811 85.15 58.813 85.15 58.814 85.15C58.815 85.15 58.817 85.15 58.818 85.15C58.82 85.15 58.821 85.15 58.822 85.15C58.824 85.15 58.825 85.15 58.826 85.15C58.828 85.15 58.829 85.15 58.831 85.15C58.832 85.15 58.833 85.15 58.835 85.15C58.836 85.15 58.837 85.15 58.839 85.15C58.84 85.15 58.842 85.15 58.843 85.15C58.844 85.15 58.846 85.15 58.847 85.15C58.848 85.15 58.85 85.15 58.851 85.15C58.853 85.15 58.854 85.15 58.855 85.15C58.857 85.15 58.858 85.15 58.859 85.15C58.861 85.15 58.862 85.15 58.864 85.15C58.865 85.15 58.866 85.15 58.868 85.15C58.869 85.15 58.87 85.15 58.872 85.15C58.873 85.15 58.875 85.15 58.876 85.15C58.877 85.15 58.879 85.15 58.88 85.15C58.881 85.15 58.883 85.15 58.884 85.15C58.886 85.15 58.887 85.15 58.888 85.15C58.89 85.15 58.891 85.15 58.892 85.15C58.894 85.15 58.895 85.15 58.897 85.15C58.898 85.15 58.899 85.15 58.901 85.15C58.902 85.15 58.903 85.15 58.905 85.15C58.906 85.15 58.908 85.15 58.909 85.15C58.91 85.15 58.912 85.15 58.913 85.15C58.914 85.15 58.916 85.15 58.917 85.15C58.919 85.15 58.92 85.15 58.921 85.15C58.923 85.15 58.924 85.15 58.925 85.15C58.927 85.15 58.928 85.15 58.929 85.15C58.931 85.15 58.932 85.15 58.934 85.15C58.935 85.15 58.936 85.15 58.938 85.15C58.939 85.15 58.94 85.15 58.942 85.15C58.943 85.15 58.945 85.15 58.946 85.15C58.947 85.15 58.949 85.15 58.95 85.15V80.15ZM56.7 80.15C55.763 80.15 54.808 80.284 53.844 80.525L55.056 85.375C55.692 85.216 56.237 85.15 56.7 85.15V80.15ZM53.877 80.516C51.951 80.97 50.194 81.721 48.932 82.982L52.468 86.518C52.806 86.179 53.549 85.73 55.023 85.384L53.877 80.516ZM49.165 82.777C48.037 83.654 46.85 84.999 46.85 86.85H51.85C51.85 86.948 51.834 87.03 51.814 87.09C51.796 87.147 51.78 87.168 51.79 87.152C51.818 87.11 51.931 86.96 52.235 86.723L49.165 82.777ZM46.85 86.85C46.85 88.002 47.238 89.262 48.351 90.152C49.357 90.958 50.583 91.15 51.6 91.15V86.15C51.383 86.15 51.281 86.127 51.26 86.122C51.244 86.118 51.34 86.141 51.474 86.248C51.62 86.364 51.733 86.519 51.798 86.676C51.857 86.817 51.85 86.894 51.85 86.85H46.85Z" fill="#43E11C"/>
</svg>
