<svg xmlns="http://www.w3.org/2000/svg" xmlns:xlink="http://www.w3.org/1999/xlink" width="151" height="36" viewBox="0 0 151 36"><defs><path id="8skba" d="M234.4 36.57a4.28 4.28 0 0 0-4.31-4.24c-2.38 0-4.31 1.9-4.31 4.24v4.25h4.3c2.38 0 4.31-1.9 4.31-4.25"/><path id="8skbb" d="M234.4 40.38V55.01c0 7.03-5.79 12.74-12.92 12.74-7.14 0-12.92-5.7-12.92-12.74s5.78-12.73 12.92-12.73h8.61a5.8 5.8 0 0 0 4.3-1.9m-17.22 14.63a4.28 4.28 0 0 0 4.3 4.25c2.38 0 4.31-1.9 4.31-4.25v-4.25h-4.3c-2.38 0-4.3 1.9-4.3 4.25"/><path id="8skbc" d="M281.14 45.57h4.26v18.38h-4.26v-2.27a7.84 7.84 0 0 1-6.07 2.71 8.68 8.68 0 0 1-6.63-2.78 9.76 9.76 0 0 1-2.61-6.93 9.4 9.4 0 0 1 2.61-6.84 8.92 8.92 0 0 1 6.63-2.71c2.37 0 4.4.91 6.07 2.78zm-1.43 5.21a5.2 5.2 0 0 0-3.95-1.62 5.2 5.2 0 0 0-3.95 1.62 5.65 5.65 0 0 0-1.51 3.96c0 1.6.51 2.91 1.5 4a5.2 5.2 0 0 0 3.96 1.62 5.2 5.2 0 0 0 3.95-1.62 5.56 5.56 0 0 0 1.55-4c0-1.55-.52-2.87-1.55-3.96z"/><path id="8skbd" d="M303.67 62.87a9.33 9.33 0 0 1-5.4 1.52c-4.22 0-6.38-2.47-6.38-7.18V49.3h-3.09v-3.72h3.16v-6.5h4.43v6.5h6.25v3.72h-6.25v7.75c0 2.2.9 3.32 2.71 3.32 1.03 0 2.1-.3 3.16-.95z"/><path id="8skbe" d="M307.04 56.27v-10.7h4.5v10.7c0 2.47 1.47 4.1 3.91 4.1 2.48 0 3.95-1.63 3.95-4.1v-10.7h4.5v10.7c0 5.1-3.2 8.12-8.45 8.12-5.18 0-8.41-3.01-8.41-8.12"/><path id="8skbf" d="M356.31 47.16c1.41 1.39 2.13 3.28 2.13 5.72v11.07h-4.5V53.69c0-2.98-1.54-4.57-3.87-4.57-2.51 0-4.3 1.86-4.3 4.7v10.13h-4.46V53.73c0-2.88-1.58-4.6-3.95-4.6-2.5 0-4.33 1.85-4.33 4.73v10.09h-4.46V45.57h4.4v2.64a6.39 6.39 0 0 1 5.66-3.15c2.44.03 4.57 1.15 5.56 3.28 1.34-2.06 3.85-3.28 6.7-3.28 2.23 0 4.02.71 5.42 2.1"/><path id="8skbg" d="M258.1 39.03v8.88a7.29 7.29 0 0 0-5.86-2.78c-2.61 0-4.81.92-6.6 2.78a9.6 9.6 0 0 0-2.64 6.84c0 2.74.9 5.04 2.64 6.9a8.83 8.83 0 0 0 6.63 2.75c2.4 0 4.4-.95 5.94-2.85v2.4h4.36V39.04zm-1.25 19.72a5.14 5.14 0 0 1-3.96 1.63 5.07 5.07 0 0 1-3.91-1.63 5.69 5.69 0 0 1-1.51-4c0-1.56.51-2.88 1.5-3.96 1-1.09 2.31-1.63 3.92-1.63 1.62 0 2.92.54 3.92 1.63a5.54 5.54 0 0 1 1.55 3.96c0 1.6-.52 2.92-1.51 4z"/></defs><g><g transform="translate(-208 -32)"><g><use fill="#fff" xlink:href="#8skba"/></g><g><use fill="#fff" xlink:href="#8skbb"/></g><g><g><use fill="#fff" xlink:href="#8skbc"/></g><g><use fill="#fff" xlink:href="#8skbd"/></g><g><use fill="#fff" xlink:href="#8skbe"/></g><g><use fill="#fff" xlink:href="#8skbf"/></g><g><use fill="#fff" xlink:href="#8skbg"/></g></g></g></g></svg>