<?xml version="1.0" standalone="no"?>
<!DOCTYPE svg PUBLIC "-//W3C//DTD SVG 20010904//EN"
 "http://www.w3.org/TR/2001/REC-SVG-20010904/DTD/svg10.dtd">
<svg version="1.0" xmlns="http://www.w3.org/2000/svg"
 width="150" height="150" viewBox="0 0 1280.000000 706.000000"
 preserveAspectRatio="xMidYMid meet">

<g transform="translate(0.000000,706.000000) scale(0.100000,-0.100000)"
fill="#000000" stroke="none">
<path d="M1515 6999 c-144 -15 -207 -33 -365 -107 -41 -19 -76 -39 -78 -43 -2
-5 -9 -9 -16 -9 -7 0 -26 -11 -42 -25 -16 -14 -32 -25 -35 -25 -3 0 -15 -8
-27 -17 -11 -10 -35 -29 -53 -43 -49 -38 -180 -169 -231 -230 -25 -30 -77
-103 -116 -161 -393 -585 -561 -1448 -441 -2273 34 -235 28 -227 78 -95 24 63
110 296 191 519 394 1076 429 1166 522 1340 148 278 283 400 442 400 79 0 118
-16 171 -68 48 -48 76 -92 108 -173 56 -140 102 -403 137 -779 25 -269 104
-940 125 -1063 41 -237 111 -367 196 -367 33 0 46 7 91 54 29 29 72 89 95 132
65 123 187 443 333 869 92 269 184 532 272 772 l80 223 -27 67 c-60 153 -190
381 -303 533 -66 89 -268 293 -332 335 -25 17 -54 38 -64 47 -11 10 -29 21
-40 24 -12 4 -23 9 -26 13 -7 9 -138 71 -180 86 -3 1 -12 5 -20 8 -114 47
-300 70 -445 56z"/>
<path d="M3448 6762 c-25 -31 -55 -66 -65 -77 -10 -11 -25 -29 -33 -41 -8 -11
-32 -41 -52 -65 -21 -24 -61 -73 -90 -109 -29 -36 -62 -76 -73 -88 -48 -57
-58 -69 -83 -101 -15 -19 -37 -45 -49 -59 -28 -31 -29 -42 -2 -49 11 -3 18
-11 15 -18 -4 -13 48 -45 73 -45 6 0 11 -4 11 -9 0 -5 14 -12 30 -16 17 -4 30
-13 30 -21 0 -17 -65 -193 -210 -569 -104 -271 -497 -1343 -615 -1682 -68
-193 -107 -282 -160 -363 -55 -85 -101 -129 -160 -151 -47 -18 -50 -18 -89 0
-51 23 -78 49 -111 105 -83 142 -122 367 -200 1151 -75 752 -136 1076 -231
1228 -40 65 -80 87 -154 87 -62 0 -105 -19 -155 -68 -66 -65 -111 -147 -193
-354 -314 -791 -382 -964 -447 -1128 -40 -102 -120 -304 -178 -451 -58 -146
-106 -272 -107 -280 -4 -27 0 -39 13 -39 14 0 22 17 122 275 37 94 102 260
145 370 96 244 270 685 352 895 246 626 259 651 372 714 60 33 120 35 167 3
112 -75 183 -426 279 -1372 54 -536 93 -807 137 -940 39 -122 103 -214 172
-248 44 -22 69 -21 123 2 109 47 221 215 312 466 19 55 125 348 235 650 224
619 354 970 472 1273 45 114 159 414 254 667 95 253 178 472 184 488 6 15 9
27 8 27 -1 0 -23 -26 -49 -58z m-245 -377 c-3 -9 -8 -14 -10 -11 -3 3 -2 9 2
15 9 16 15 13 8 -4z m-39 -42 c-10 -16 -22 -33 -28 -39 -6 -7 -27 -32 -46 -58
-19 -25 -39 -45 -43 -46 -5 0 3 15 18 33 14 17 45 56 68 85 45 57 60 68 31 25z"/>
<path d="M3730 5920 l0 -310 220 0 220 0 0 310 0 310 -220 0 -220 0 0 -310z"/>
<path d="M7400 4425 l0 -1805 220 0 220 0 0 138 0 137 30 -63 c96 -204 260
-322 447 -322 143 0 325 122 434 292 171 268 256 597 266 1040 12 518 -76 943
-249 1203 -77 116 -225 242 -305 261 -15 4 -34 12 -42 18 -18 14 -201 14 -232
0 -13 -6 -41 -19 -62 -28 -97 -42 -177 -130 -247 -271 l-40 -80 0 643 0 642
-220 0 -220 0 0 -1805z m917 302 c163 -103 263 -413 263 -817 0 -398 -94 -695
-254 -798 -35 -23 -52 -27 -116 -27 -85 0 -109 11 -177 83 -78 82 -141 248
-174 457 -18 108 -18 497 0 595 56 323 155 496 306 534 40 10 114 -3 152 -27z"/>
<path d="M3052 5282 c-13 -37 -70 -200 -127 -362 -57 -162 -171 -489 -254
-727 -207 -594 -242 -685 -327 -861 -124 -258 -235 -409 -343 -464 -170 -89
-310 -41 -403 137 -84 163 -131 414 -178 965 -62 725 -112 1066 -176 1197 -30
63 -64 87 -125 87 -44 0 -57 -6 -100 -49 -76 -74 -166 -280 -347 -795 -55
-157 -138 -388 -185 -515 -46 -126 -108 -300 -137 -385 l-53 -155 55 -126
c251 -582 652 -956 1113 -1041 146 -27 338 -12 485 38 70 24 199 82 210 95 3
3 32 22 65 42 33 20 78 51 100 69 70 56 250 242 285 293 19 28 40 56 47 63 26
26 124 195 186 318 151 302 259 677 299 1039 17 158 17 693 0 835 -18 149 -52
354 -60 362 -4 4 -18 -23 -30 -60z"/>
<path d="M5415 5334 c-16 -3 -41 -10 -55 -16 -68 -30 -96 -44 -107 -55 -7 -6
-23 -20 -36 -30 -34 -27 -102 -116 -150 -197 l-42 -71 -3 158 -3 157 -229 0
-230 0 2 -1327 3 -1328 217 -3 217 -2 4 872 c4 964 2 935 69 1080 40 88 95
138 177 163 53 16 67 16 103 6 93 -28 149 -86 184 -191 17 -51 19 -116 22
-993 l3 -937 217 2 217 3 5 890 c5 811 7 895 23 950 32 108 80 185 149 241 16
12 111 44 133 44 37 0 115 -34 145 -63 40 -38 76 -114 90 -187 6 -33 10 -394
10 -966 l0 -914 220 0 221 0 -4 1058 c-3 1028 -4 1059 -24 1147 -63 276 -183
431 -383 496 -52 16 -228 18 -262 2 -13 -6 -40 -18 -61 -27 -93 -40 -189 -139
-257 -266 -24 -44 -46 -77 -50 -73 -4 4 -15 28 -24 53 -10 25 -36 73 -58 108
-87 135 -206 208 -353 216 -38 2 -83 2 -100 0z"/>
<path d="M11839 5306 c-2 -2 -17 -7 -34 -10 -75 -14 -92 -19 -122 -32 -17 -8
-33 -14 -37 -14 -3 0 -30 -15 -60 -33 -241 -145 -368 -449 -353 -842 8 -216
59 -372 151 -465 84 -86 64 -74 681 -376 77 -37 147 -75 156 -84 79 -74 68
-273 -18 -348 -14 -12 -51 -34 -82 -49 -51 -24 -67 -27 -171 -26 -105 0 -120
2 -173 28 -32 15 -71 44 -88 64 -31 37 -62 123 -74 204 l-7 47 -217 0 -217 0
3 -62 c11 -184 59 -369 130 -490 54 -93 164 -197 254 -241 112 -54 152 -65
292 -83 119 -15 135 -15 239 1 61 9 119 21 127 25 9 4 36 16 61 26 187 75 328
255 394 503 79 297 50 640 -71 829 -68 106 -146 161 -358 252 -33 14 -126 56
-195 88 -36 17 -92 42 -125 57 -188 84 -225 112 -245 185 -24 88 5 206 63 260
49 47 94 61 188 61 75 0 98 -5 144 -26 96 -46 150 -139 162 -281 l6 -74 215 0
215 0 -6 113 c-11 198 -59 357 -147 490 -89 135 -178 206 -325 262 -57 21
-199 45 -270 45 -45 0 -84 -2 -86 -4z"/>
<path d="M3730 3945 l0 -1335 220 0 220 0 0 1335 0 1335 -220 0 -220 0 0
-1335z"/>
<path d="M9320 4318 c0 -578 4 -1011 11 -1083 23 -274 95 -474 213 -589 79
-77 77 -76 161 -111 63 -27 80 -30 180 -30 69 0 127 5 155 15 132 42 239 147
328 323 l37 72 3 -152 3 -153 224 0 225 0 0 1335 0 1335 -220 -2 -219 -3 -4
-895 c-3 -797 -5 -903 -20 -965 -35 -143 -116 -261 -214 -307 -38 -18 -65 -23
-133 -23 -76 0 -90 3 -128 28 -89 58 -134 160 -152 345 -6 63 -10 462 -10 965
l0 857 -220 0 -220 0 0 -962z"/>
<path d="M8880 1040 l0 -930 120 0 120 0 0 325 c0 179 3 325 8 325 4 1 86 2
182 4 158 2 180 5 225 25 96 44 172 156 217 318 19 67 22 105 22 273 1 176 -1
203 -23 277 -36 129 -105 228 -186 269 -62 32 -182 44 -437 44 l-248 0 0 -930z
m507 608 c106 -28 147 -106 148 -278 0 -153 -23 -216 -97 -263 -23 -14 -52
-17 -173 -17 l-145 0 0 278 c0 153 3 282 7 285 11 12 211 8 260 -5z"/>
<path d="M12360 1635 l0 -185 -55 0 -55 0 0 -114 0 -115 53 -3 52 -3 5 -495 5
-495 26 -56 c16 -34 42 -68 65 -85 35 -27 43 -29 133 -29 53 0 104 3 114 7 15
6 17 23 17 131 l0 125 -44 -5 c-40 -5 -46 -3 -62 23 -18 26 -19 56 -19 454 l0
425 58 3 57 3 0 114 0 114 -62 3 -63 3 -3 183 -2 182 -110 0 -110 0 0 -185z"/>
<path d="M10470 1526 c-3 -2 -18 -6 -35 -9 -106 -15 -211 -100 -271 -219 -104
-207 -131 -574 -63 -851 62 -248 203 -387 393 -387 113 0 185 33 268 124 131
143 193 449 157 772 -38 341 -174 533 -404 569 -22 3 -43 4 -45 1z m106 -324
c33 -25 81 -109 100 -177 26 -93 31 -343 9 -442 -35 -159 -101 -243 -190 -243
-135 0 -216 195 -202 488 10 205 45 300 140 378 33 27 103 25 143 -4z"/>
<path d="M11505 1483 c-130 -40 -214 -143 -246 -302 -16 -84 -7 -263 16 -321
20 -49 96 -127 133 -136 12 -4 22 -10 22 -15 0 -5 5 -9 11 -9 6 0 52 -20 102
-44 51 -24 112 -53 137 -65 61 -29 77 -43 90 -75 24 -64 -2 -136 -61 -168 -49
-26 -170 -25 -215 2 -31 20 -58 70 -66 125 -3 18 -12 20 -116 23 -130 3 -121
13 -98 -118 18 -99 54 -176 104 -225 56 -55 65 -61 93 -70 13 -4 30 -13 38
-19 9 -7 64 -11 150 -11 122 0 141 2 185 23 56 27 137 109 166 167 54 111 68
315 30 437 -22 73 -79 146 -132 171 -18 8 -53 24 -78 35 -25 11 -76 34 -113
51 -38 17 -71 31 -74 31 -20 0 -103 65 -113 89 -28 67 24 153 100 166 111 19
190 -49 190 -164 l0 -31 116 0 116 0 -7 53 c-18 145 -50 232 -113 303 -81 94
-240 135 -367 97z"/>
</g>
</svg>
