<?xml version="1.0" standalone="no"?>
<!DOCTYPE svg PUBLIC "-//W3C//DTD SVG 20010904//EN"
 "http://www.w3.org/TR/2001/REC-SVG-20010904/DTD/svg10.dtd">
<svg version="1.0" xmlns="http://www.w3.org/2000/svg"
 width="80" height="80" viewBox="0 0 500.000000 318.000000"
 preserveAspectRatio="xMidYMid meet">

<g transform="translate(0.000000,318.000000) scale(0.100000,-0.100000)"
fill="#000000" stroke="none">
<path d="M2155 3170 c-342 -44 -654 -261 -795 -554 -56 -116 -82 -217 -105
-401 -24 -190 -60 -262 -156 -311 -66 -33 -149 -44 -347 -44 l-172 0 2 313 3
312 163 -2 c175 -1 273 -14 338 -42 l40 -18 28 91 c37 121 93 238 160 337 31
44 56 84 56 89 0 11 -137 56 -210 70 -157 30 -335 40 -742 40 l-418 0 0 -1525
0 -1525 290 0 290 0 0 644 0 643 68 6 c37 4 112 7 167 7 383 0 646 106 826
330 91 113 138 243 174 485 29 189 33 205 76 285 41 77 112 142 209 189 73 35
78 36 190 36 110 0 118 -1 175 -32 202 -107 270 -331 178 -587 -92 -257 -183
-368 -854 -1051 -141 -143 -337 -343 -437 -445 l-181 -185 -1 -137 0 -138
1145 0 1145 0 0 270 0 270 -625 0 c-344 0 -625 3 -625 6 0 3 80 90 178 192
271 284 294 309 387 421 252 302 377 523 452 803 25 92 28 119 27 258 0 142
-3 162 -28 240 -135 412 -448 650 -876 664 -69 3 -156 1 -195 -4z"/>
<path d="M3190 2990 c0 -53 5 -66 44 -127 68 -106 113 -203 148 -320 31 -103
33 -116 32 -273 0 -136 -4 -182 -23 -260 -33 -141 -66 -231 -136 -375 -118
-241 -275 -453 -555 -750 l-123 -130 522 -3 521 -2 0 -351 0 -350 73 3 72 3 3
618 c1 339 3 617 5 617 1 0 101 5 222 10 121 5 256 16 300 24 252 45 487 203
597 401 47 83 85 199 99 300 15 108 5 299 -21 400 -43 168 -154 343 -272 431
-215 161 -402 194 -1093 194 l-415 0 0 -60z m1002 -524 c114 -25 192 -87 228
-184 54 -144 -5 -313 -130 -377 -68 -34 -150 -45 -347 -45 l-173 0 0 317 0
316 178 -7 c97 -3 207 -13 244 -20z"/>
</g>
</svg>
