<svg width="33" height="29" viewBox="0 0 33 29" fill="none" xmlns="http://www.w3.org/2000/svg">
<path d="M5.32704 11.294L1.03774 13.2613L0.470041 13.5005C0.185204 13.6205 0 13.8995 0 14.2085V14.6457V14.8658C0 15.1432 0.117519 15.4076 0.323426 15.5935C0.429381 15.6891 0.554946 15.7605 0.691346 15.8026L6.7773 17.6802C7.1459 17.7939 7.52948 17.8518 7.91523 17.8518C8.26364 17.8518 8.61045 17.8046 8.9462 17.7115L9.2136 17.6374C9.57353 17.5377 9.92318 17.4039 10.2578 17.2381L10.3151 17.2097C10.7244 17.0068 11.1116 16.7618 11.4701 16.4785L12.0377 16.0302L23.6755 7.71539C23.8006 7.62597 23.9506 7.57789 24.1045 7.57789H24.2786C24.3698 7.57789 24.4569 7.61533 24.5197 7.68146C24.6246 7.79193 24.641 7.95955 24.5595 8.08827L24.4214 8.30653C24.0538 8.88729 23.6169 9.42122 23.1205 9.89656L22.3459 10.6382L19.7862 13.2613L17.7799 15.3015L15.0421 17.9396C14.7042 18.2652 14.4464 18.6647 14.289 19.1068L14.2193 19.3026C14.1491 19.4998 14.1132 19.7074 14.1132 19.9167C14.1132 20.1883 14.1736 20.4564 14.2901 20.7018L14.3199 20.7646C14.4571 21.0535 14.6573 21.308 14.9058 21.5094L15.4277 21.9322L16.7421 22.8065L18.5409 23.9724L19.7862 24.9196L19.8631 24.9642C20.733 25.4681 21.563 26.0378 22.3459 26.6683L23.6604 27.6156L25.1824 28.49L25.9403 28.8186C26.2162 28.9383 26.5136 29 26.8143 29C27.0621 29 27.3081 28.9581 27.5419 28.876L27.557 28.8707C27.8615 28.7638 28.1399 28.5938 28.3741 28.3718L28.4838 28.2678C28.6347 28.1248 28.7702 27.9666 28.8883 27.7955L28.9046 27.772C29.1421 27.428 29.3115 27.0417 29.4037 26.6341L29.6101 25.7211L29.8868 23.3894L30.1635 21.6407L30.5786 18.8719L31.2013 14.6457L32.0314 9.32663L32.7925 4.15327L32.9488 2.83606C32.9827 2.54993 32.9743 2.26036 32.9238 1.97668L32.8931 1.80377C32.827 1.43302 32.6688 1.08482 32.433 0.791244L32.3766 0.721015C32.151 0.440256 31.8514 0.228231 31.5115 0.108932L31.495 0.103126C31.3006 0.0348674 31.096 0 30.8899 0C30.6839 0 30.4793 0.0348674 30.2849 0.103126L28.7107 0.655779L26.3585 1.53015L24.9748 2.25879L22.8302 3.20603L20.7547 4.15327L18.5409 5.17337L15.9119 6.3392L13.8365 7.28643L10.9308 8.74372L8.44025 9.83668L5.32704 11.294Z" fill="white"/>
</svg>
