<svg width="64" height="58" viewBox="0 0 64 58" fill="none" xmlns="http://www.w3.org/2000/svg">
<path d="M4.83356 37.8476L6.90419 41.5168C7.01056 41.7052 7.10296 41.9013 7.18067 42.1032C7.56556 43.1037 7.57462 44.2097 7.20616 45.2163L4.23679 53.3284C3.99029 54.0018 4.57656 54.6851 5.27964 54.5439L12.3056 52.8284C15.6979 52.0001 19.257 52.168 22.5562 53.3121C23.5269 53.6487 24.5245 53.9023 25.5382 54.0701L27.9161 54.4637C29.5355 54.7318 31.1741 54.8665 32.8155 54.8665H35.0777L39.36 54.3019L40.9823 53.865C42.6922 53.4045 44.3539 52.7806 45.9444 52.0017L46.1814 51.8856C47.2825 51.3464 48.341 50.724 49.3477 50.024C50.656 49.1141 51.871 48.077 52.9749 46.9277L54.2591 45.5908L56.5787 42.8484L58.363 40.0254L58.4933 39.7504C59.4728 37.6841 60.1788 35.4989 60.5934 33.2501L60.9024 31.2013C61.053 30.2026 61.1287 29.1939 61.1287 28.1839C61.1287 27.0465 61.0328 25.9111 60.842 24.7899L60.5934 23.3291L60.2974 22.0295C60.0787 21.0691 59.7842 20.1276 59.4167 19.2138C59.0716 18.3558 58.663 17.5246 58.1945 16.7272L57.3816 15.3439L56.0434 13.6501L54.2591 11.4723C52.7768 10.025 51.1363 8.74939 49.3685 7.66948L48.7277 7.27804L45.4267 5.50356L43.4891 4.65015C42.4626 4.19803 41.4041 3.82258 40.3221 3.52685C38.8518 3.12496 37.3447 2.8721 35.8237 2.77209L33.2042 2.59985H30.9137C29.4101 2.59985 27.9093 2.72935 26.428 2.9869C24.8228 3.26598 23.2471 3.69426 21.7215 4.26615L20.3571 4.77763L16.7885 6.63278L15.3773 7.53518C13.8825 8.49109 12.4754 9.57773 11.1726 10.7823L10.9254 11.0108C9.78031 12.0697 8.71949 13.2162 7.75263 14.44L6.52866 15.9892L5.63924 17.4704C5.1032 18.3631 4.64818 19.3021 4.27965 20.276L4.19069 20.5111C3.84689 21.4197 3.59289 22.3597 3.43233 23.3178C3.29613 24.1305 3.22768 24.9531 3.22768 25.7771V27.0394V29.7011V31.7175L3.24552 31.8466C3.52996 33.9038 4.06321 35.9189 4.83356 37.8476Z" stroke="white" stroke-width="5"/>
<path d="M25.5654 15.6665H23.1494C23.0098 15.6665 22.8757 15.7213 22.7761 15.8192L21.5619 17.0121C21.266 17.3028 21.0099 17.6315 20.8004 17.9895L20.3899 18.6908L20.1045 19.3384C19.9082 19.7839 19.7664 20.2515 19.6822 20.731C19.6216 21.0763 19.5911 21.4261 19.5911 21.7767V22.0293C19.5911 22.4913 19.6269 22.9525 19.6981 23.4089L19.809 24.1191L19.8414 24.2835C20.0123 25.1507 20.32 25.9852 20.753 26.7557L21.5518 28.4618L22.5685 30.3229L23.0674 31.1754C23.4597 31.8457 23.9257 32.4701 24.4565 33.037L25.328 34.0451L26.3446 35.2083L27.5065 36.2165L28.3779 36.9919L29.9755 38.1551L31.5731 39.3183C32.4904 39.8854 33.4651 40.3537 34.4811 40.7153L35.1314 40.9468C36.3868 41.3593 37.6815 41.6403 38.9949 41.7854L39.1254 41.7998H40.0412C40.687 41.7998 41.3305 41.7217 41.9575 41.5672C42.4372 41.4135 42.8829 41.1692 43.2703 40.8473L43.3373 40.7917L43.7234 40.538C44.0935 40.2948 44.4271 40.0002 44.7141 39.663C44.9093 39.4338 45.0818 39.1862 45.2292 38.9237L45.4176 38.5885C45.5795 38.3004 45.7107 37.9961 45.8092 37.6806C45.9517 37.2241 46.0242 36.7487 46.0242 36.2705V35.9838C46.0242 35.2701 45.6235 34.6169 44.9873 34.2934L40.1481 31.8326C40.0009 31.7577 39.8382 31.7187 39.6731 31.7187C39.33 31.7187 39.0086 31.8866 38.8127 32.1683L37.2374 34.4329L36.7551 35.0415C36.5551 35.2939 36.2508 35.441 35.9289 35.441C35.7396 35.441 35.5539 35.39 35.3911 35.2935L35.1771 35.1665C35.0502 35.0912 34.9153 35.0305 34.7748 34.9855L34.6451 34.944C34.3903 34.8623 34.1513 34.7377 33.9385 34.5754C33.8143 34.4806 33.6809 34.3985 33.5403 34.3303L33.3748 34.2499C33.0944 34.1138 32.8301 33.9468 32.5868 33.752L32.3719 33.5799L31.791 33.1921L30.9196 32.5717L29.9755 31.7187L29.9102 31.6651C29.3271 31.1861 28.8116 30.6302 28.3779 30.0127L27.797 29.1597L26.9256 27.8414L26.8296 27.7219C26.6097 27.4479 26.4898 27.1071 26.4898 26.7557C26.4898 26.5038 26.5704 26.2586 26.7196 26.0557L28.8223 23.1979C28.8647 23.1403 28.899 23.077 28.9241 23.01C28.9931 22.8257 28.9897 22.6222 28.9144 22.4404L26.3359 16.2086C26.2936 16.1065 26.2333 16.0129 26.1578 15.9323L26.1437 15.9172C26.0844 15.8539 26.0151 15.8008 25.9386 15.7599C25.8237 15.6986 25.6956 15.6665 25.5654 15.6665Z" fill="white"/>
</svg>
