<svg width="25" height="23" viewBox="0 0 25 23" fill="none" xmlns="http://www.w3.org/2000/svg">
<path d="M1.6379 15.162L2.46012 16.6357C2.50257 16.7118 2.53943 16.7909 2.57041 16.8723C2.72331 17.2743 2.72691 17.7178 2.58055 18.1222L1.39871 21.3879C1.30164 21.6561 1.53558 21.9272 1.8151 21.8704L4.6042 21.1815C5.95226 20.8486 7.36816 20.9161 8.67846 21.3757C9.06366 21.5108 9.45973 21.6126 9.86233 21.68L10.5362 21.7928C11.3596 21.9307 12.1931 22 13.028 22H13.6518L15.3529 21.7731L15.9944 21.5984C16.6755 21.4129 17.337 21.1617 17.9696 20.8483L18.0601 20.8035C18.4991 20.5861 18.9208 20.3353 19.3215 20.0534C19.8404 19.6885 20.3217 19.2729 20.7585 18.813L21.2712 18.2731L22.1926 17.1713L22.9014 16.037L22.9522 15.9287C23.3419 15.097 23.6227 14.2184 23.7874 13.3148L23.9101 12.4918C23.9699 12.0904 24 11.6851 24 11.2793C24 10.8223 23.9619 10.3661 23.8861 9.9154L23.7874 9.3287L23.6695 8.8053C23.5828 8.42026 23.466 8.04263 23.3202 7.67589C23.1829 7.33071 23.0203 6.99615 22.8337 6.67494L22.5116 6.12037L21.98 5.43981L21.2712 4.56481C20.6824 3.98334 20.0298 3.47025 19.3259 3.03528L19.074 2.87963L17.7627 2.16667L16.9917 1.82318C16.5849 1.64193 16.165 1.49134 15.7358 1.37265C15.1512 1.21106 14.5518 1.10935 13.9467 1.06911L12.9075 1H11.9987C11.4008 1 10.804 1.05207 10.2152 1.15563C9.57803 1.26767 8.95284 1.43952 8.34792 1.66889L7.80431 1.875L6.38675 2.62037L5.8897 2.94187C5.25366 3.35326 4.65548 3.82043 4.10223 4.33784C3.61776 4.79094 3.16933 5.28109 2.761 5.80385L2.31125 6.37963L1.95892 6.97314C1.74533 7.33293 1.56417 7.71099 1.41756 8.10288L1.3829 8.19553C1.24608 8.56123 1.14506 8.93933 1.08123 9.32453C1.02717 9.65084 1 9.98103 1 10.3118V10.8194V11.8889V12.6991L1.00732 12.7526C1.12016 13.5781 1.33188 14.3871 1.6379 15.162Z" stroke="white" stroke-width="2"/>
<path d="M9.8728 6.25H8.91352C8.85809 6.25 8.80492 6.27193 8.7656 6.311L8.28147 6.79209C8.16489 6.90793 8.06413 7.03868 7.98182 7.18093L7.81737 7.46513L7.70427 7.72473C7.6261 7.90414 7.56968 8.09225 7.53621 8.28507C7.51216 8.42365 7.50006 8.56404 7.50006 8.7047V8.8065C7.50006 8.9921 7.51428 9.17743 7.54258 9.36086L7.5866 9.64614L7.5997 9.71338C7.66747 10.061 7.7896 10.3959 7.9616 10.7055L8.27891 11.3909L8.68275 12.1387L8.88152 12.4822C9.03699 12.7509 9.22187 13.0014 9.43275 13.2292L9.77891 13.6343L10.1828 14.1016L10.6443 14.5067L10.9904 14.8182L11.6251 15.2856L12.2597 15.753C12.624 15.9808 13.0116 16.1691 13.4159 16.3147L13.6731 16.4073C14.1718 16.573 14.6864 16.6859 15.2086 16.7443L15.2597 16.75H15.6232C15.8799 16.75 16.1356 16.7186 16.3847 16.6565C16.5752 16.5948 16.752 16.4968 16.9053 16.368L16.9328 16.345L17.0849 16.2438C17.2327 16.1456 17.3658 16.0268 17.48 15.891C17.5573 15.7992 17.6256 15.7002 17.6838 15.5952L17.7588 15.4604C17.8233 15.3442 17.8756 15.2216 17.9148 15.0946C17.9713 14.9114 18.0001 14.7208 18.0001 14.529V14.4132C18.0001 14.1262 17.8396 13.8633 17.5845 13.7321L15.6659 12.7453C15.6075 12.7152 15.5427 12.6996 15.477 12.6996C15.3409 12.6996 15.2136 12.7665 15.1365 12.8786L14.5097 13.7901L14.3171 14.0359C14.2384 14.1364 14.1178 14.1951 13.9901 14.1951C13.9148 14.1951 13.841 14.1746 13.7764 14.1359L13.6912 14.0848C13.6408 14.0546 13.5873 14.0302 13.5314 14.0121L13.4805 13.9956C13.3789 13.9627 13.2838 13.9125 13.1992 13.8473C13.1499 13.8092 13.0969 13.7762 13.041 13.7488L12.9753 13.7165C12.864 13.6619 12.7591 13.5949 12.6627 13.5168L12.577 13.4473L12.3462 13.2915L12.0001 13.0423L11.6251 12.6996L11.6002 12.6789C11.3678 12.4858 11.1627 12.2622 10.9904 12.0141L10.7597 11.6714L10.4135 11.1417L10.376 11.0944C10.2882 10.9838 10.2404 10.8467 10.2404 10.7055C10.2404 10.6042 10.2725 10.5056 10.3321 10.4237L11.1668 9.27623C11.1838 9.25292 11.1974 9.22739 11.2075 9.20035C11.2349 9.12637 11.2335 9.04479 11.2036 8.97177L10.1791 6.46735C10.1624 6.42664 10.1386 6.38925 10.1087 6.35698L10.1027 6.35044C10.0793 6.32519 10.0519 6.30397 10.0217 6.28763C9.97593 6.26293 9.92477 6.25 9.8728 6.25Z" fill="white"/>
</svg>
